<?xml version="1.0" encoding="UTF-8"?>
<svg id="Layer_1" xmlns="http://www.w3.org/2000/svg" version="1.1" viewBox="0 0 647 431">
  <!-- Generator: Adobe Illustrator 29.6.0, SVG Export Plug-In . SVG Version: 2.1.1 Build 207)  -->
  <defs>
    <style>
      .st0 {
        fill: #d36262;
      }

      .st1 {
        fill: #8cb302;
      }

      .st2 {
        fill: #efe8e9;
      }

      .st3 {
        fill: #2d1a22;
      }

      .st4 {
        fill: #5b3c48;
      }

      .st5 {
        fill: #dcdff7;
      }

      .st6 {
        stroke: #d1937d;
        stroke-width: .8px;
      }

      .st6, .st7, .st8 {
        fill: none;
        stroke-linecap: round;
        stroke-linejoin: round;
      }

      .st9 {
        fill: #d1937d;
      }

      .st10 {
        fill: #362f34;
      }

      .st11 {
        fill: #f60;
      }

      .st12 {
        fill: #e5dadc;
      }

      .st13 {
        fill: #bc2f3a;
      }

      .st14 {
        fill: #211c2d;
      }

      .st15 {
        fill: #1b1d1e;
        opacity: .15;
      }

      .st15, .st16, .st7, .st17, .st18, .st19, .st20, .st21 {
        isolation: isolate;
      }

      .st22 {
        fill: #77758a;
      }

      .st23 {
        fill: #fff;
      }

      .st24 {
        fill: #242326;
      }

      .st25 {
        fill: #494443;
      }

      .st26 {
        fill: #bdcbd8;
      }

      .st27 {
        fill: #e2aa50;
      }

      .st28 {
        fill: #d9d9d7;
      }

      .st16, .st29 {
        fill: #f38b82;
      }

      .st16, .st21 {
        opacity: .5;
      }

      .st30 {
        fill: #f7eeeb;
      }

      .st31 {
        fill: #403a44;
      }

      .st32 {
        fill: #ce9541;
      }

      .st33 {
        fill: #61525e;
      }

      .st7 {
        opacity: .8;
        stroke: #a1abe2;
        stroke-width: .96px;
      }

      .st34 {
        fill: #564953;
      }

      .st35 {
        fill: #f2f2f2;
      }

      .st36 {
        fill: #e27971;
      }

      .st37 {
        fill: #9e8d8d;
      }

      .st8 {
        stroke: #aa222c;
        stroke-width: 1.06px;
      }

      .st38 {
        fill: #353130;
      }

      .st18 {
        opacity: .18;
      }

      .st18, .st19 {
        fill: #f74d31;
        mix-blend-mode: multiply;
      }

      .st39 {
        fill: #7a9c02;
      }

      .st40 {
        fill: #e25050;
      }

      .st19 {
        opacity: .27;
      }

      .st41 {
        fill: #efefef;
      }

      .st42 {
        fill: #5c606c;
      }

      .st20 {
        fill: #3d3938;
        opacity: .6;
      }

      .st43 {
        fill: #2f273d;
      }

      .st21 {
        fill: #f7e8d5;
      }

      .st44 {
        fill: #f6b994;
      }

      .st45 {
        fill: #cc373e;
      }

      .st46 {
        fill: #282424;
      }

      .st47 {
        fill: #fffffd;
      }

      .st48 {
        fill: #504f6b;
      }
    </style>
  </defs>
  <g class="st17">
    <g id="Layer_11" data-name="Layer_1">
      <g>
        <g>
          <path class="st5" d="M315.09,118.65c-.66,4.38-13.49,6.07-28.67,3.78-15.17-2.29-26.93-7.69-26.27-12.07s13.49-6.07,28.67-3.78,26.93,7.69,26.27,12.07Z"/>
          <path class="st46" d="M279.56,132.11l7.05-14.09c.39-.78,1.55-.58,1.66.28l2.02,15.47-10.73-1.66h0Z"/>
          <path class="st38" d="M275.2,134.89s6.82-5.84,9.73-5.75c2.37.07,11.96,9.3,11.96,9.3l-21.68-3.55h-.01Z"/>
          <path class="st7" d="M276.32,110s-2.5.97-4.89,4.44"/>
          <path class="st7" d="M282.03,112.8s-1.34.65-3.3,3.17"/>
          <path class="st7" d="M296.75,117.18s3.12-2.05,3.85-3.56"/>
          <path class="st7" d="M300.44,118.89s3.33-1.34,4.85-3.86"/>
        </g>
        <g>
          <path class="st5" d="M342.58,123.1c-.62,4.38,11.2,9.67,26.39,11.81,15.19,2.14,28.01.32,28.63-4.06.62-4.38-11.2-9.67-26.39-11.81s-28.01-.32-28.63,4.06h0Z"/>
          <path class="st46" d="M372.78,146.15l-2.73-15.52c-.15-.86-1.32-1-1.67-.21l-6.35,14.25,10.76,1.48h0Z"/>
          <path class="st38" d="M376.16,150.06s-4.87-7.54-7.68-8.29c-2.29-.61-14.11,5.5-14.11,5.5l21.79,2.79h0Z"/>
          <path class="st7" d="M382.2,125.89s2.12,1.64,3.42,5.65"/>
          <path class="st7" d="M375.93,126.94s1.1,1,2.26,3.98"/>
          <path class="st7" d="M360.57,126.93s-2.4-2.85-2.68-4.51"/>
          <path class="st7" d="M356.54,127.52s-2.81-2.23-3.55-5.09"/>
        </g>
        <path class="st38" d="M311.26,161.1l11.03,7.96c.22.16.51.2.77.11l13.09-4.48c.84-.29.73-1.52-.15-1.65l-24.12-3.48c-.88-.13-1.34,1.01-.62,1.53h0Z"/>
        <path class="st46" d="M276.3,168.71s-1.84,11.76.55,16.19c0,0-5.9-.98-7.44-7.67l6.89-8.51h0Z"/>
        <path class="st38" d="M284.42,153.87s-17.27,3.33-15.01,23.35l19.5-20.03-4.49-3.33h0Z"/>
        <path class="st46" d="M368.24,182.12s-1.97,11.74-5.63,15.18c0,0,5.91.94,9.48-4.93l-3.85-10.25Z"/>
        <path class="st38" d="M365.22,165.47s15.33,8.61,6.87,26.9l-12.18-25.16,5.31-1.74h0Z"/>
        <path class="st25" d="M269.63,134.56c-.86,4.9-1.04,18.41,21.31,23.56.06,0,.11.02.17.03l68.41,10.27s16.52,2.49,20.37-16.07c.22-1.06-.5-2.1-1.57-2.27l-106.51-17.05c-1.02-.16-2,.51-2.18,1.53Z"/>
        <path class="st20" d="M270.41,143.73c1.98,5.38,7.31,11.35,20.53,14.39.06,0,.11.02.17.03l68.41,10.27s11.97,1.8,17.9-9.12l-107.02-15.57h0Z"/>
        <path class="st35" d="M330.62,151.87c-.11,3.62-3.13,6.46-6.74,6.36-3.62-.11-6.46-3.13-6.36-6.74s3.13-6.46,6.74-6.36c3.62.11,6.46,3.13,6.36,6.74Z"/>
        <path class="st25" d="M327.43,151.78c-.06,1.86-1.6,3.32-3.46,3.26-1.86-.05-3.32-1.6-3.26-3.46.05-1.86,1.6-3.32,3.46-3.26,1.86.05,3.32,1.6,3.26,3.46Z"/>
        <path class="st27" d="M280.43,169.09l-15.03,78.92c-.18.94.44,1.85,1.39,2.02l82.6,15.07c.93.17,1.83-.45,2.01-1.38l14.81-78.65c.18-.94-.44-1.84-1.38-2.02l-82.38-15.35c-.93-.17-1.83.44-2.01,1.37v.02Z"/>
        <path class="st32" d="M279.37,174.66l-13.97,73.35c-.18.94.44,1.85,1.39,2.02l82.6,15.07c.93.17,1.83-.45,2.01-1.38l13.69-72.7-85.71-16.37h-.01Z"/>
        <path class="st21" d="M314.32,173.65l.75,7.83-1.31,14.36c-.08.85.5,1.61,1.33,1.77l8.32,1.6c.87.17,1.71-.38,1.92-1.24l3.3-13.9,2.75-7.24-17.06-3.18h0Z"/>
        <path class="st21" d="M301.25,256.32l5.12-15.88c.2-.64.85-1.02,1.51-.89l5.91,1.15c.75.14,1.27.82,1.23,1.58l-.93,16.38-12.82-2.34h-.02Z"/>
        <polygon class="st21" points="271.05 218.35 357.08 233.5 359.39 221.23 273.48 205.59 271.05 218.35"/>
        <path class="st18" d="M291.31,246.91c-8.42-2.38-13.95-10.43-13.14-19.15l5.58-59.81-1.31-.24c-.94-.17-1.84.44-2.01,1.37l-15.03,78.92c-.18.94.44,1.85,1.39,2.02l82.6,15.07c.89.16,1.73-.39,1.97-1.25l-60.05-16.95v.02Z"/>
      </g>
      <g>
        <g>
          <g>
            <path class="st48" d="M33.39,41.09l-3.1.6c-.86.17-1.69.42-2.5.74l-10.27,4.18c-2.79,1.13-4.37,4.13-3.76,7.1l68.4,331.34c.4,1.92,2.17,3.22,4.1,2.99l12.84-1.5c.43-.05.86-.12,1.28-.22l4.38-.99L34.03,40.96"/>
            <path class="st43" d="M30.08,46.52l68.74,335.36c.56,2.72,3.33,4.34,5.93,3.48l141.35-46.87c2.2-.73,3.52-3,3.08-5.31L190.3,25.93c-.46-2.4-2.68-4.03-5.07-3.73L34.03,40.96c-2.67.33-4.49,2.9-3.94,5.56h0Z"/>
            <path class="st41" d="M37.74,53.07l65.48,318.79c.44,2.17,2.66,3.45,4.73,2.76l134.46-45.33c1.74-.59,2.79-2.4,2.43-4.22L188.2,33.77c-.37-1.9-2.13-3.19-4.03-2.96L40.87,48.64c-2.12.26-3.57,2.31-3.13,4.42h0Z"/>
            <path class="st24" d="M81.4,43.6l5.43,5.45c.74.75,1.79,1.11,2.83.98l49.89-6.22c1.1-.14,2.07-.79,2.63-1.75l3.74-6.49-64.51,8.03h-.01Z"/>
            <path class="st15" d="M110.52,354.12L43.37,55.96c-.6-2.67-.12-5.48,1.34-7.79l-3.84.48c-2.12.26-3.57,2.31-3.13,4.42l65.48,318.79c.44,2.17,2.66,3.45,4.73,2.76l134.46-45.33c1.74-.59,2.79-2.4,2.43-4.22l-.51-2.6-121.46,38.84c-5.4,1.73-11.1-1.58-12.36-7.17v-.02Z"/>
            <path class="st43" d="M36.44,98.97l5.67,30.04c.05.27-.21.51-.59.56l-6.2.79c-.41.05-.8-.14-.86-.43l-6.03-30.03c-.05-.27.21-.52.6-.57l6.56-.81c.41-.05.8.15.85.43v.02Z"/>
            <path class="st14" d="M40.33,129.73l1.19-.15c.38-.05.64-.3.59-.56l-.5-2.66-5.16-27.38c-.05-.29-.44-.48-.85-.43l-1.06.13,5.8,31.06h0Z"/>
            <path class="st43" d="M44.64,138.32l5.67,30.04c.05.27-.21.51-.59.56l-6.2.79c-.41.05-.8-.14-.86-.43l-6.03-30.03c-.05-.27.21-.52.6-.57l6.56-.81c.41-.05.8.15.85.43v.02Z"/>
            <path class="st14" d="M48.52,169.08l1.19-.15c.38-.05.64-.3.59-.56l-.5-2.66-5.16-27.38c-.05-.29-.44-.48-.85-.43l-1.06.13,5.8,31.06h0Z"/>
            <path class="st43" d="M56.79,197.34c0,2.47-1.98,4.47-4.42,4.47s-4.42-2-4.42-4.47,1.98-4.47,4.42-4.47,4.42,2,4.42,4.47Z"/>
            <path class="st14" d="M52.37,192.87c-.61,0-1.19.13-1.72.35.15-.02.29-.05.45-.05,2.44,0,4.42,2,4.42,4.47,0,1.85-1.11,3.44-2.69,4.12,2.23-.23,3.97-2.11,3.97-4.42,0-2.47-1.98-4.47-4.42-4.47h0Z"/>
          </g>
          <path class="st37" d="M72.54,173.55l24.98,111.28c1.09,4.85,5.9,7.84,10.67,6.63l106.02-26.96c4.81-1.22,7.79-6.07,6.76-10.98l-22.98-108.9s-95.08,5.59-125.44,28.94h0Z"/>
          <path class="st11" d="M237.57,140.37s-4.74,7.93-18.4,3.87c0,0-9.65,7.74-20.95,3.13,0,0-4.41,10.31-22.88,5.62,0,0-9.36,9.12-26.48,5.25,0,0-7.65,8.66-26.41,2.67,0,0-4.92,8.39-19.67,5.44,0,0-6.56,4.79-14.94,2.95,0,0-6.56,11.4-24.77,7.09l-4.55-22.16v-.02l-6.09-29.63,148.83-23.67,29.25,21.19c1.57,1.14,2.81,2.66,3.62,4.4.32.72.59,1.47.77,2.24l2.68,11.63h0Z"/>
          <g>
            <path class="st30" d="M68.79,121.98l-16.36,2.6,32.5,26.66,2.91,18.06c8.38,1.84,14.94-2.95,14.94-2.95l-2.55-19.17-31.44-25.21h0Z"/>
            <path class="st30" d="M148.86,158.25l-3.86-19.11-34.21-23.84-22.79,3.62,30.07,23.29,4.37,18.71c18.76,5.99,26.41-2.67,26.41-2.67h0Z"/>
            <path class="st30" d="M163.92,106.85l-24.04,3.82,31.95,28.47,2.8,14.47c.48-.38.72-.62.72-.62,18.47,4.7,22.88-5.62,22.88-5.62l-3.64-15.11-30.67-25.41h0Z"/>
            <path class="st30" d="M237.57,140.37l-2.68-11.63c-.62-2.68-2.18-5.05-4.39-6.65l-29.24-21.19-15.87,2.52,28.58,24.9,5.22,15.91c13.66,4.05,18.4-3.87,18.4-3.87h-.02Z"/>
          </g>
          <path class="st19" d="M237.57,140.37s-4.74,7.93-18.4,3.87c0,0-9.65,7.74-20.95,3.13,0,0-4.41,10.31-22.88,5.62,0,0-9.36,9.12-26.48,5.25,0,0-7.65,8.66-26.41,2.67,0,0-4.92,8.39-19.67,5.44,0,0-6.56,4.79-14.94,2.95,0,0-6.56,11.4-24.77,7.09l-4.55-22.16v-.02l175.57-27.75.03.03c.32.72.59,1.47.77,2.24l2.68,11.63h0Z"/>
        </g>
        <g>
          <path class="st44" d="M222.82,217.41l6.01,2.83s3.83,1.17,9.65,0c5.83-1.17,24.86-10.11,24.86-10.11,0,0,6.1-8.32,6.95-9.8.85-1.47,3.22-3.81,5.04-3.56l-4.74,8.6,5.4-4.67s1.88-.18,2.67.43.36,2.27,0,2.83c-.36.55-4.74,5.78-4.74,5.78,0,0-1.85,8.6-3.31,11.55l8.93,4.88s-4.64.83-9.29.92c-4.64.09-7.8,1.87-12.66,3.84-4.86,1.97-25.14,10.81-27.69,11.27s-12.2-4.68-12.2-4.68c0,0-5.1-15.68,5.1-20.11h.02Z"/>
          <path class="st16" d="M272.45,203.77l-1.85,1.6,4.74-8.6c-.42-.06-.87.03-1.32.2l-8.02,13.88c.76-1.01,6.46-7.08,6.46-7.08h0Z"/>
          <path class="st16" d="M270.63,221.28c1.46-2.95,3.31-11.55,3.31-11.55l-4.81,10.63c-.48,1.06.01,2.3,1.08,2.74l6.44,2.63h-10.9s-33.88,12.45-36.67,11.79-10.96-6.77-10.96-6.77l-1.39,2.17c.38,2.68,1,4.6,1,4.6,0,0,9.65,5.14,12.2,4.68s22.83-9.31,27.69-11.27c4.86-1.97,8.01-3.75,12.66-3.84,4.64-.09,9.29-.92,9.29-.92l-8.93-4.88h-.01Z"/>
          <path class="st44" d="M100.96,229.39s-7.29,10.69-7.47,11.12.91,9.52,7.47,22.61,17.03,25.07,17.03,25.07l6.74-1.84s1.85,3.62,1.85,8.48c0,0,2.37,1.6,3.89-.55,0,0,2.07,1.23,4.34-.61,0,0,3.19,1.41,4.7-1.04,0,0,2.98.68,4.01-1.72s-.3-8.79-.3-8.79c0,0,.12-4.48-4.92-5.35-5.04-.86-12.57-4.05-12.57-4.05l-11.85-25.47c-.32-.69-.17-1.52.37-2.06l4.44-4.36s-10.45-13.36-17.73-11.43h0Z"/>
          <path class="st16" d="M139.55,290.89c-1.66,2.2-4.74,1.17-4.74,1.17-1.24,2.4-4.29.86-4.29.86,0,0-2.49,1.78-2.73-.68s-2.06-6.88-2.06-6.88l-7.04.98c-7.68-5.17-17.07-23.2-22.67-34.96,1.13,3.34,2.71,7.3,4.94,11.73,6.56,13.09,17.03,25.07,17.03,25.07l6.74-1.84s1.85,3.62,1.85,8.48c0,0,2.37,1.6,3.89-.55,0,0,2.07,1.23,4.34-.61,0,0,3.19,1.41,4.7-1.04,0,0,2.98.68,4.01-1.72.15-.34.24-.77.3-1.24-1.26,1.8-4.27,1.23-4.27,1.23h0Z"/>
          <polygon class="st16" points="129.95 278.97 129.37 277.31 121.52 282.94 129.95 278.97"/>
          <path class="st16" d="M116.26,252.34l-2.37-5.11c-.32-.69-.17-1.52.37-2.06l3.79-3.72c-1.01-2.48-3.27-5.02-7.83-6.94,0,0,.25,5.57.15,9.75-.04,1.81.73,3.53,2.07,4.72l3.82,3.36Z"/>
          <path class="st11" d="M162.53,196.22s-19.55-3.62-22.34-3.26c-2.79.37-31.03,18.92-39.22,36.43,0,0,12.75,3.87,16.76,15.48,0,0,9.11-9.03,14.03-15.85,0,0-6.74,27.83-6.01,43.68l3.64,7s10.93-5.16,13.84,2.4l51.37-12.72s.59-25.8,5.12-41.84c0,0,14.19,8.14,18.01,9.97,0,0-.36-13.47,5.1-20.11,0,0-16.67-9.77-24.86-13.64-8.2-3.87-20.31-3.76-20.31-3.76l-15.12-3.79h-.01Z"/>
          <path class="st2" d="M102.37,226.71c-.52.89-1,1.79-1.41,2.68,0,0,12.75,3.87,16.76,15.48,0,0,.98-.98,2.47-2.52-4.2-15.54-13.58-16.21-17.81-15.65h-.01Z"/>
          <path class="st2" d="M219.8,215.66c-1.81,2.22-5.99,8.57-5.84,19.89,1.58.86,2.92,1.56,3.76,1.96,0,0-.36-13.47,5.1-20.11,0,0-1.16-.68-3.01-1.75h-.01Z"/>
          <path class="st12" d="M169.34,207.54l.28,14.3c0,.41.34.73.74.73h2.12c.39,0,.71-.3.74-.69l1.1-14.47c.03-.42-.28-.78-.7-.8-.94-.04-2.55-.07-3.7.18-.34.08-.58.39-.57.75h-.01Z"/>
          <path class="st2" d="M177.64,200.01l-15.12-3.79s-2.96-.55-6.74-1.2c0,0-2.81,9.98,1.3,18.95,0,0,6.02-8.12,13.93-6.09l1.86-.37s5.91.31,12.17,8.05c0,0,2.13-8.77.46-15.04-4.44-.55-7.86-.52-7.86-.52h0Z"/>
          <path class="st44" d="M152.45,170.84s-5.77,12.38,5.62,15.14c0,0,2.16,3.66,5.19,5.62l-.73,4.61s7.76,8.39,8.84,12.72c0,0,5.67-5.41,9.31-8.29l1.03-5.35s14.15-1.97,16.24-19.91c0,0,4.77-8.85-1.43-12.9-6.19-4.05-40.13.12-44.08,8.36h0Z"/>
          <path class="st15" d="M137.77,222.57c-8.05,4.67-21.32,9.69-27.55,11.94,2.98,2.41,5.92,5.78,7.5,10.36,0,0,9.11-9.03,14.03-15.85,0,0-6.74,27.83-6.01,43.68l3.64,7s10.93-5.16,13.84,2.4l16.19-4.01c-26.96-13.73-21.64-55.53-21.64-55.53h0Z"/>
          <path class="st16" d="M191.72,180.87s-6.19.46-6.65,2.26c-.46,1.8,5.92.83,6.65-2.26Z"/>
          <path class="st16" d="M155.79,173.96s-1.62,5.07,2.86,5.65c0,0,.48-2.53-2.86-5.65Z"/>
          <path class="st4" d="M155.79,167.89s2.87-.1,5.89,2.74c.46.44.82.98,1.04,1.58.38,1.06,1.21,2.87,2.49,3.17,1.82.43,7.89-5.2,8.5-8.13.61-2.93-15.6-3.24-17.91.63h0Z"/>
          <path class="st40" d="M163.86,167.77s10.32.58,16.15,0,13.84-2.43,15.85-2.43c0,0,2.19,4.98,2.09,10.05,0,0,8.56-4.42,10.02-8.66s-6.92-6.42-13.39-6.45c0,0-22.1-5.47-30.72,7.5h0Z"/>
          <path class="st45" d="M152.45,170.84s1.94-4.05,11.41-3.07c0,0,10.69-8.6,30.72-7.5,0,0-6.38-13.45-22.77-11.06-22.77,3.33-19.37,21.63-19.37,21.63h0Z"/>
          <path class="st13" d="M207.97,166.73c.44-1.27,0-2.35-1.02-3.25-1.39-.05-3.06.48-4.65.73-2.73.43-6.44,1.14-6.44,1.14,0,0,2.19,4.98,2.09,10.05,0,0,8.56-4.42,10.02-8.66h0Z"/>
          <path class="st15" d="M172.12,166.3c-5.7-.69-10.05-1.17-12.74-1.46-1.71-.18-2.87-1.89-2.39-3.56.99-3.49,2.4-6.26,3.68-8.28-10.33,6.44-8.22,17.85-8.22,17.85,0,0,1.94-4.05,11.41-3.07,0,0,10.32.58,16.15,0,3.28-.33,7.25-1.06,10.46-1.63,0,0-8.32,1.38-18.35.15h0Z"/>
          <path class="st6" d="M155.05,173.45s3.27,1.61,3.71,7.19"/>
          <path class="st6" d="M154.97,178.21s1.31-1.93,3-1.09"/>
          <path class="st9" d="M187.97,174.09c.81,2.35,2.02,4.91,4.07,6.36.32.21.28.71-.05.88-1.8.9-3.59,1.78-5.61,2.05-.32.04-.38-.45-.07-.5,1.83-.42,3.55-1.47,5.14-2.46l-.03.89c-1.17-.88-1.98-2.04-2.63-3.24-.64-1.21-1.14-2.46-1.51-3.78-.05-.19.06-.4.25-.45.19-.06.4.06.45.25h0Z"/>
          <path class="st29" d="M163.25,191.61s7.59,6.64,18.46,3.69l-.86,4.45s-10.31,2.37-17.78-7l.18-1.14h0Z"/>
          <path class="st0" d="M173.36,182.16c1.41.95,5.68,3.68,8.78,4.28,0,0-1.48,2.86-5.16,1.97-3.65-.88-4.08-4.54-4.1-5.98,0-.26.28-.41.49-.27h0Z"/>
          <path class="st3" d="M181.24,172.49c0,1.17-.7,2.11-1.56,2.11s-1.56-.95-1.56-2.11.7-2.11,1.56-2.11,1.56.95,1.56,2.11Z"/>
          <ellipse class="st3" cx="191.72" cy="172.96" rx="1.56" ry="2.11"/>
          <path class="st8" d="M139.82,220.24"/>
          <path class="st8" d="M130.22,231.16"/>
          <path class="st15" d="M218.11,230.75c-7.19-1.14-20.13-7.19-20.13-7.19l1.72,3.99s14.19,8.14,18.01,9.97c0,0-.08-2.95.4-6.77h0Z"/>
          <line class="st6" x1="120.18" y1="283.49" x2="129.37" y2="279.71"/>
          <path class="st6" d="M129.37,284.78s1.46,5.25,1.09,9.49"/>
          <path class="st6" d="M133.69,283.83s1.55,4.33,1.13,9.83"/>
          <path class="st6" d="M138.03,282.94s1.88,5.9,1.49,9.68"/>
          <path class="st6" d="M264.77,212.5s3.86-5.42,6.96-8.1"/>
        </g>
      </g>
      <g>
        <path class="st34" d="M372.82,320.46c-.54,4.59-1.85,23.62,2.52,28.87,2.48,2.98,42.41,46.3,48.87,51.71,3.96,3.31,8.98,7.71,14.35,8.33,17.32,2,182.99-82.35,187.68-84.41,3.42-1.5,1.11-14.27.42-20.08l-253.84,15.58h0Z"/>
        <path class="st15" d="M619.88,321.97c-31.62,14.55-64.31,30.98-96.39,46.34-3.9,1.86-7.79,3.72-11.67,5.54-19.06,9-37.83,17.49-55.95,24.84-.23-2.3-.18-7.5-.61-9.51,18.47-8.54,37.03-17.08,55.63-25.62,36.28-16.66,72.4-33.86,108.43-50.52.42,2.68.56,5.96.56,8.93Z"/>
        <path class="st39" d="M511.82,373.85c-19.06,9-37.83,17.49-55.95,24.84-.23-2.3-.18-7.5-.61-9.51,18.47-8.54,37.03-17.08,55.63-25.62l.93,10.29Z"/>
        <path class="st22" d="M623.43,310.78c-1.04.61-2.42,1.37-4.11,2.26-28.38,15.05-143.22,68.22-154.84,73.01-2.34.97-5.45,2.42-8.79,3.82-6.32,2.64-13.46,5.06-17.71,3.57-13.81-4.86-61.17-59.05-65.01-71.02-1.65-5.15,6.75-9.3,11.89-11.97.62-.32,1.2-.62,1.7-.9,15.22-8.43,136.37-55.77,146.7-58.17,3.68-.86,7.48-2.26,11.27-3.24,5.96-1.54,11.92-2.03,17.42,2.27,10.17,7.96,44.48,33.77,51.05,39.5,4.76,4.14,20.58,14.93,10.43,20.87h0Z"/>
        <path class="st41" d="M619.32,313.04c-15.99,8.48-59.45,29.07-96.41,46.28-4.05,1.89-8.02,3.73-11.86,5.51-.07.03-.14.07-.21.1-23.27,10.79-42.02,19.34-46.36,21.12-2.34.97-5.45,2.42-8.79,3.82-3.84-4.75-7.74-9.48-11.69-14.17-2.26-2.69-4.55-5.38-6.86-8.05-16.87-19.63-34.54-38.71-52.28-57.2.62-.32,1.2-.62,1.7-.9,6.02-3.33,28.62-12.76,54.38-23.09,3.96-1.58,8-3.19,12.06-4.8,23.14-9.18,47.11-18.43,62.9-24.26,4.4-1.63,8.17-3,11.1-4.02,3.06-1.06,5.22-1.76,6.26-2,3.68-.86,7.48-2.26,11.27-3.24,3.76,3.3,7.53,6.6,11.33,9.91,3.09,2.69,6.19,5.39,9.3,8.08,11.96,10.38,24.03,20.76,36.01,31.13l11.13,9.66c2.35,2.04,4.69,4.08,7.02,6.12h0Z"/>
        <path class="st1" d="M537.57,287.22l-52.56,30-32.01-35.56c23.14-9.18,47.11-18.43,62.9-24.26l21.67,29.82Z"/>
        <path class="st31" d="M396.98,347.72c1.75,3.25,14.13,16.77,16,18.25,2.37,1.88,11.26-5.35,11.87-6.94.62-1.62-14.69-16.94-16.75-18.46-1.92-1.42-12.64,4.33-11.12,7.15Z"/>
        <path class="st42" d="M399.38,348.59s13.23,14.38,14.48,15.12,7.75-4.12,8.37-5.12-13.37-14.88-14.25-15.5-9.78,4.13-8.61,5.5h0Z"/>
        <path class="st26" d="M591.96,281.25c-4.8-4.37-9.6-8.74-14.4-13.11-1.43-1.3-3.55.82-2.12,2.12,4.8,4.37,9.6,8.74,14.4,13.11,1.43,1.3,3.55-.82,2.12-2.12Z"/>
        <path class="st47" d="M612.3,306.92s-54.45,39.08-87.09,1.62l-31.13,18.75,28.83,32.03c-4.05,1.89-8.02,3.73-11.86,5.51l-12.24-13.68-54.81,24.55c-2.26-2.69-4.55-5.38-6.86-8.05l54.04-25.04-50.24-56.15c3.96-1.58,8-3.19,12.06-4.8l32.01,35.56c14.58-8.38,52.56-30,52.56-30l-21.67-29.82c4.4-1.63,8.17-3,11.1-4.02l9.13,12.73,19.73-8.06c3.09,2.69,6.19,5.39,9.3,8.08l-22.3,9.37,11.23,15.65-17.54,10.56c9.12,8.37,32.45,21.52,67.26-2.16l8.49,7.37h0Z"/>
        <path class="st28" d="M523.5,368.31c-3.9,1.86-7.79,3.72-11.67,5.54l-.83-9.2,11.9-5.43.6,9.08h0Z"/>
        <path class="st1" d="M510.99,364.66l-.15.27c-23.27,10.79-42.02,19.34-46.36,21.12-2.34.97-5.45,2.42-8.79,3.82-3.84-4.75-7.74-9.48-11.69-14.17l54.81-24.55,12.18,13.51h0Z"/>
        <polygon class="st15" points="418.66 302 438.56 292.72 462.12 320.46 442.84 329.22 418.66 302"/>
        <polygon class="st15" points="449.42 340.35 459.04 353.31 478.46 343.04 469.14 332.72 449.42 340.35"/>
        <polygon class="st15" points="429.1 351.15 444 343.04 452.3 356.13 437.66 363.56 429.1 351.15"/>
        <polygon class="st15" points="502.09 329.22 511.82 323.72 517.25 332.72 508.46 337.72 502.09 329.22"/>
        <polygon class="st15" points="510.99 340.35 527.98 330.72 543.98 345.97 523.5 354.97 510.99 340.35"/>
        <polygon class="st15" points="551.48 278.22 563.98 272.18 569.48 281.22 555.98 287.31 551.48 278.22"/>
        <path class="st10" d="M386.35,349.87c-2.14-2.14-4.28-4.27-6.42-6.41-1.37-1.37-3.49.76-2.12,2.12,2.14,2.14,4.28,4.27,6.42,6.41,1.37,1.37,3.49-.75,2.12-2.12Z"/>
        <path class="st10" d="M388.65,352.72c-1.93,0-1.93,3,0,3s1.93-3,0-3Z"/>
        <path class="st33" d="M419.37,383.79c-.37,2.04-.91,5.11-1.46,8.33,5.84,5.31,12.1,10.15,18.56,14.34.74-2.85,1.06-6.03,1-8.97-6.37-4.1-12.42-8.69-18.11-13.7h.01Z"/>
        <path class="st33" d="M444.8,406.34c-.24-3.08-.59-6.3-.82-9.39-1.14.46-2.78.57-4,.39.1,3,.2,6,.3,9,1.05.47,3.39.21,4.52,0h0Z"/>
        <path class="st26" d="M618.11,301.18c-.08,0-.16-.02-.25-.03-.78-.09-1.53.75-1.5,1.5.04.89.66,1.41,1.5,1.5.08,0,.16.02.25.03.78.09,1.53-.75,1.5-1.5-.04-.89-.66-1.41-1.5-1.5Z"/>
      </g>
      <g>
        <path class="st11" d="M457.62,289.26c-3,5.85-8.93,17.17-16.81,16.27-4.16-.48-7.57-3.78-10.41-7.67-2.55-3.48-4.63-7.43-6.38-10.2-5.79-9.2-9.15-23.71-4.62-33.96,2.59-5.88,7.16-10.22,12.49-12.57,6.3-2.78,13.68-2.79,20.16.7,1.39.74,2.73,1.65,4.02,2.73,12.7,10.64,8.07,31.97,1.55,44.7h0Z"/>
        <path class="st36" d="M456.07,244.56c-1.29-1.08-2.63-1.99-4.02-2.73-3.74-2.01-7.77-2.85-11.73-2.68,3.31.14,6.63,1,9.75,2.68,1.39.74,2.73,1.65,4.02,2.73,12.7,10.64,8.07,31.97,1.55,44.7-2.76,5.38-8,15.38-14.95,16.25.04,0,.08.01.12.02,7.88.9,13.81-10.42,16.81-16.27,6.52-12.73,11.15-34.06-1.55-44.7h0Z"/>
        <path class="st23" d="M454.52,274.85c-1.81,2.33-4.25,4.09-6.97,5.21-1.13.47-2.31.82-3.51,1.05-3.15.63-6.46.42-9.46-.73-6.9-2.64-11.65-10.04-11.22-17.41.67-11.58,11.81-17.74,21.49-15.54,1.18.27,2.33.66,3.45,1.18,1.08.5,2.13,1.13,3.11,1.9,1.3.99,2.51,2.22,3.55,3.68,4.3,6.01,4.1,14.84-.44,20.66h0Z"/>
      </g>
    </g>
  </g>
</svg>