<svg xmlns="http://www.w3.org/2000/svg" xmlns:xlink="http://www.w3.org/1999/xlink" width="500" zoomAndPan="magnify" viewBox="0 0 375 374.999991" height="500" preserveAspectRatio="xMidYMid meet" version="1.2"><defs><clipPath id="b2f3e98c21"><path d="M 107 59.613281 L 370 59.613281 L 370 126 L 107 126 Z M 107 59.613281 "/></clipPath><clipPath id="b61a105e47"><path d="M 246 105 L 371.320312 105 L 371.320312 315.363281 L 246 315.363281 Z M 246 105 "/></clipPath><clipPath id="394123f4b9"><path d="M 43 105 L 230 105 L 230 315.363281 L 43 315.363281 Z M 43 105 "/></clipPath><clipPath id="4964bda0bd"><path d="M 3.820312 123 L 99 123 L 99 237 L 3.820312 237 Z M 3.820312 123 "/></clipPath></defs><g id="3b1b24a509"><g clip-rule="nonzero" clip-path="url(#b2f3e98c21)"><path style=" stroke:none;fill-rule:nonzero;fill:#f66117;fill-opacity:1;" d="M 238.125 59.65625 L 218.261719 64.148438 L 323.210938 87.609375 L 238.511719 112.53125 L 131.898438 83.671875 L 107.972656 89.082031 L 238.125 125.621094 L 369.046875 89.253906 L 238.125 59.65625 "/></g><g clip-rule="nonzero" clip-path="url(#b61a105e47)"><path style=" stroke:none;fill-rule:nonzero;fill:#f66117;fill-opacity:1;" d="M 352.136719 110.933594 L 352.136719 231.390625 L 265.304688 274.515625 L 265.304688 135.0625 L 246.300781 140.339844 L 246.300781 315.390625 L 371.136719 243.316406 L 371.136719 105.65625 L 352.136719 110.933594 "/></g><g clip-rule="nonzero" clip-path="url(#394123f4b9)"><path style=" stroke:none;fill-rule:nonzero;fill:#f66117;fill-opacity:1;" d="M 105.109375 105.265625 L 105.109375 137.390625 L 119.628906 137.390625 C 123.832031 137.390625 127.238281 140.800781 127.238281 145.003906 C 127.238281 149.207031 123.832031 152.617188 119.628906 152.617188 L 49.195312 152.617188 C 46.199219 152.617188 43.769531 155.046875 43.769531 158.042969 C 43.769531 161.039062 46.199219 163.46875 49.195312 163.46875 L 149.84375 163.46875 C 154.046875 163.46875 157.453125 166.878906 157.453125 171.082031 C 157.453125 175.285156 154.046875 178.695312 149.84375 178.695312 L 82.484375 178.695312 C 79.484375 178.695312 77.054688 181.125 77.054688 184.121094 C 77.054688 187.117188 79.484375 189.546875 82.484375 189.546875 L 134.097656 189.546875 C 138.300781 189.546875 141.707031 192.957031 141.707031 197.160156 C 141.707031 201.363281 138.300781 204.773438 134.097656 204.773438 L 95.171875 204.773438 C 92.179688 204.773438 89.746094 207.203125 89.746094 210.199219 C 89.746094 213.195312 92.179688 215.625 95.171875 215.625 L 165.714844 215.625 C 169.921875 215.625 173.328125 219.035156 173.328125 223.238281 C 173.328125 227.441406 169.921875 230.851562 165.714844 230.851562 L 105.109375 230.851562 L 105.109375 243.316406 L 229.949219 315.394531 L 229.949219 140.316406 L 105.109375 105.265625 "/></g><g clip-rule="nonzero" clip-path="url(#4964bda0bd)"><path style=" stroke:none;fill-rule:nonzero;fill:#f66117;fill-opacity:1;" d="M 81.152344 226.179688 L 36.597656 226.179688 C 33.699219 226.179688 31.351562 228.53125 31.351562 231.429688 C 31.351562 234.332031 33.699219 236.679688 36.597656 236.679688 L 81.152344 236.679688 C 84.050781 236.679688 86.402344 234.332031 86.402344 231.429688 C 86.402344 228.53125 84.050781 226.179688 81.152344 226.179688 Z M 58.875 187.902344 C 58.875 185.003906 56.523438 182.652344 53.625 182.652344 L 9.074219 182.652344 C 6.175781 182.652344 3.828125 185.003906 3.828125 187.902344 C 3.828125 190.800781 6.175781 193.152344 9.074219 193.152344 L 53.625 193.152344 C 56.523438 193.152344 58.875 190.800781 58.875 187.902344 Z M 93.570312 123.761719 L 49.019531 123.761719 C 46.121094 123.761719 43.769531 126.113281 43.769531 129.011719 C 43.769531 131.910156 46.121094 134.257812 49.019531 134.257812 L 93.570312 134.257812 C 96.46875 134.257812 98.816406 131.910156 98.816406 129.011719 C 98.816406 126.113281 96.46875 123.761719 93.570312 123.761719 "/></g></g></svg>