<?xml version="1.0" encoding="UTF-8"?>
<svg id="Layer_1" xmlns="http://www.w3.org/2000/svg" version="1.1" viewBox="0 0 640 412">
  <!-- Generator: Adobe Illustrator 29.6.0, SVG Export Plug-In . SVG Version: 2.1.1 Build 207)  -->
  <defs>
    <style>
      .st0 {
        fill: #b22234;
      }

      .st1 {
        fill: #30273d;
      }

      .st2 {
        fill: #039;
      }

      .st3 {
        fill: #f60;
      }

      .st4 {
        fill: #211c2d;
      }

      .st5 {
        fill: #fff;
      }

      .st6 {
        fill: #e30a17;
      }

      .st7 {
        fill: #f0f5f8;
      }

      .st8 {
        fill: #b2b2b2;
      }

      .st9 {
        fill: #ffcc02;
      }

      .st10 {
        fill: #232326;
      }

      .st11 {
        fill: #35383b;
      }

      .st12 {
        fill: none;
        stroke: #a8222b;
        stroke-linecap: round;
        stroke-linejoin: round;
        stroke-width: 1.06px;
      }

      .st13 {
        fill: #1b1c1e;
        isolation: isolate;
        opacity: .15;
      }

      .st14 {
        fill: #ededed;
      }

      .st15 {
        fill: #3c3b6e;
      }

      .st16 {
        fill: #504f6b;
      }
    </style>
  </defs>
  <g>
    <g>
      <path class="st16" d="M531.62,41l3.1.6c.86.17,1.69.42,2.5.74l10.27,4.18c2.79,1.13,4.37,4.13,3.76,7.1l-68.4,331.34c-.4,1.92-2.17,3.22-4.1,2.99l-12.84-1.5c-.43-.05-.86-.12-1.28-.22l-4.38-.99,70.73-344.4"/>
      <path class="st1" d="M534.93,46.43l-68.74,335.36c-.56,2.72-3.33,4.34-5.93,3.48l-141.35-46.87c-2.2-.73-3.52-3-3.08-5.31L374.71,25.84c.46-2.4,2.68-4.03,5.07-3.73l151.2,18.76c2.67.33,4.49,2.9,3.94,5.56,0,0,.01,0,.01,0Z"/>
      <path class="st14" d="M527.27,52.97l-65.48,318.79c-.44,2.17-2.66,3.45-4.73,2.76l-134.46-45.33c-1.74-.59-2.79-2.4-2.43-4.22l56.65-291.28c.37-1.9,2.13-3.19,4.03-2.96l143.3,17.83c2.12.26,3.57,2.31,3.13,4.42h0Z"/>
      <path class="st10" d="M483.61,43.51l-5.43,5.45c-.74.75-1.79,1.11-2.83.98l-49.89-6.22c-1.1-.14-2.07-.79-2.63-1.75l-3.74-6.49,64.51,8.03h0Z"/>
      <path class="st13" d="M454.48,354.03l67.16-298.17c.6-2.67.12-5.48-1.34-7.79l3.84.48c2.12.26,3.57,2.31,3.13,4.42l-65.48,318.79c-.44,2.17-2.66,3.45-4.73,2.76l-134.46-45.33c-1.74-.59-2.79-2.4-2.43-4.22l.51-2.6,121.46,38.84c5.4,1.73,11.1-1.58,12.36-7.17h-.02,0Z"/>
      <path class="st1" d="M528.57,98.88l-5.67,30.04c-.05.27.21.51.59.56l6.2.79c.41.05.8-.14.86-.43l6.03-30.03c.05-.27-.21-.52-.6-.57l-6.56-.81c-.41-.05-.8.15-.85.43v.02h0Z"/>
      <path class="st4" d="M524.68,129.64l-1.19-.15c-.38-.05-.64-.3-.59-.56l.5-2.66,5.16-27.38c.05-.29.44-.48.85-.43l1.06.13-5.8,31.06h.01Z"/>
      <path class="st1" d="M520.37,138.23l-5.67,30.04c-.05.27.21.51.59.56l6.2.79c.41.05.8-.14.86-.43l6.03-30.03c.05-.27-.21-.52-.6-.57l-6.56-.81c-.41-.05-.8.15-.85.43v.02h0Z"/>
      <path class="st4" d="M516.48,168.98l-1.19-.15c-.38-.05-.64-.3-.59-.56l.5-2.66,5.16-27.38c.05-.29.44-.48.85-.43l1.06.13-5.8,31.06h.01Z"/>
      <path class="st1" d="M508.22,197.24c0,2.47,1.98,4.47,4.42,4.47s4.42-2,4.42-4.47-1.98-4.47-4.42-4.47-4.42,2-4.42,4.47Z"/>
      <path class="st4" d="M512.64,192.77c.61,0,1.19.13,1.72.35-.15-.02-.29-.05-.45-.05-2.44,0-4.42,2-4.42,4.47,0,1.85,1.11,3.44,2.69,4.12-2.23-.23-3.97-2.11-3.97-4.42,0-2.47,1.98-4.47,4.42-4.47h.01Z"/>
    </g>
    <g>
      <path class="st12" d="M425.19,220.15"/>
      <path class="st12" d="M434.79,231.06"/>
    </g>
  </g>
  <g>
    <rect class="st7" x="86.14" y="26.5" width="166.91" height="97.71" rx="6.1" ry="6.1"/>
    <g>
      <rect class="st5" x="107.93" y="82.11" width="78.05" height="5.6"/>
      <rect class="st5" x="185.98" y="41.61" width="50.76" height="5.6"/>
      <rect class="st3" x="185.98" y="54.41" width="50.76" height="12.52"/>
      <rect class="st3" x="107.93" y="94.62" width="78.05" height="12.99"/>
      <rect class="st5" x="197.53" y="82.11" width="38.51" height="5.6"/>
      <rect class="st3" x="197.53" y="94.62" width="38.51" height="12.99"/>
    </g>
  </g>
  <g>
    <g>
      <g>
        <g>
          <path class="st5" d="M394.89,69.52c3.95,1.21,6.78,5.24,7.39,9.89,2.84-2.07,5-5.5,5.79-9.79,1.56-8.44-2.76-17.02-9.66-19.16-6.92-2.15-13.81,2.98-15.37,11.46-.8,4.31-.05,8.65,1.77,12.16,2.18-3.82,6.12-5.77,10.08-4.56Z"/>
          <path class="st3" d="M394.89,69.52c-3.96-1.22-7.9.74-10.08,4.56,1.59,3.05,4.01,5.46,6.96,6.66l1.99.61c3.05.62,6.04-.13,8.52-1.93-.61-4.65-3.43-8.68-7.39-9.89h0Z"/>
        </g>
        <path class="st3" d="M400.64,63.24c-.54,2.94-3.12,5.75-5.52,5.01-2.4-.74-3.72-4.75-3.18-7.69s2.93-4.72,5.33-3.98,3.9,3.73,3.36,6.66h.01Z"/>
      </g>
      <polygon class="st5" points="471.72 90.79 417.65 74.18 419.64 63.36 473.68 80.08 471.72 90.79"/>
      <polygon class="st8" points="441.44 91.64 415.87 83.83 416.69 79.39 442.25 87.22 441.44 91.64"/>
    </g>
    <g>
      <g>
        <polygon class="st11" points="383.55 127.55 375.8 125.45 376.97 119.1 384.71 121.21 383.55 127.55"/>
        <polygon class="st11" points="384.98 119.76 377.24 117.65 376.97 119.1 384.71 121.21 384.98 119.76"/>
      </g>
      <g>
        <path class="st11" d="M377.53,157.77l-6.87-1.8.08-.43c.43-2.34,2.32-3.84,4.22-3.34h0c1.9.5,3.08,2.8,2.65,5.14l-.08.43Z"/>
        <path class="st11" d="M376.8,149.88c-.17.92-.91,1.51-1.66,1.31s-1.22-1.11-1.05-2.03.91-1.51,1.66-1.31,1.22,1.11,1.05,2.03Z"/>
      </g>
      <polygon class="st8" points="429.63 144.32 389.03 133.74 388.37 137.37 428.97 147.92 429.63 144.32"/>
      <polygon class="st3" points="438.12 133.31 391.38 120.98 389.89 129.08 436.65 141.35 438.12 133.31"/>
      <polygon class="st8" points="424.07 174.66 383.43 164.26 382.76 167.89 423.41 178.27 424.07 174.66"/>
      <polygon class="st3" points="432.57 163.6 385.78 151.49 384.29 159.6 431.09 171.64 432.57 163.6"/>
      <path class="st3" d="M454.84,209.13l-77.15-17.15c-5.72-1.27-11.56,3.66-12.87,10.87l-.05.27c-1.24,6.85,2.09,13.23,7.53,14.42l77.2,16.88c5.61,1.23,11.34-3.5,12.78-10.52h0c1.42-6.95-1.9-13.54-7.44-14.77Z"/>
      <polygon class="st8" points="464.08 152.73 447.29 148.46 446.63 152.09 463.42 156.33 464.08 152.73"/>
      <polygon class="st3" points="472.57 141.72 449.63 135.7 448.15 143.8 471.09 149.76 472.57 141.72"/>
      <polygon class="st8" points="458.52 183.07 441.69 178.98 441.02 182.61 457.86 186.68 458.52 183.07"/>
      <polygon class="st3" points="467.02 172 444.03 166.21 442.54 174.32 465.54 180.05 467.02 172"/>
    </g>
  </g>
  <path class="st5" d="M301,156"/>
  <g>
    <rect class="st7" x="86.14" y="133.97" width="166.91" height="97.71" rx="6.1" ry="6.1"/>
    <g>
      <rect class="st5" x="107.93" y="189.58" width="78.05" height="5.6"/>
      <rect class="st5" x="185.98" y="149.09" width="50.76" height="5.6"/>
      <rect class="st3" x="185.98" y="161.88" width="50.76" height="12.52"/>
      <rect class="st3" x="107.93" y="202.09" width="78.05" height="12.99"/>
      <rect class="st5" x="197.53" y="189.58" width="38.51" height="5.6"/>
      <rect class="st3" x="197.53" y="202.09" width="38.51" height="12.99"/>
    </g>
  </g>
  <g>
    <rect class="st7" x="86.14" y="241.44" width="166.91" height="97.71" rx="6.1" ry="6.1"/>
    <g>
      <rect class="st5" x="107.93" y="297.05" width="78.05" height="5.6"/>
      <rect class="st5" x="185.98" y="256.56" width="50.76" height="5.6"/>
      <rect class="st3" x="185.98" y="269.36" width="50.76" height="12.52"/>
      <rect class="st3" x="107.93" y="309.56" width="78.05" height="12.99"/>
      <rect class="st5" x="197.53" y="297.05" width="38.51" height="5.6"/>
      <rect class="st3" x="197.53" y="309.56" width="38.51" height="12.99"/>
    </g>
  </g>
  <g>
    <path class="st5" d="M383,202.48c.16-.71.47-1.29.92-1.76.45-.46,1-.77,1.66-.94.66-.16,1.37-.15,2.15.02.72.17,1.32.45,1.79.85.47.4.81.9,1,1.48s.22,1.24.1,1.97l-1.55-.36c.1-.63,0-1.16-.29-1.58-.3-.43-.77-.72-1.4-.86-.71-.16-1.32-.12-1.83.15-.51.26-.84.7-.98,1.32-.12.5-.08.94.11,1.3.19.36.54.67,1.04.93l1.75.91c.88.44,1.48,1,1.82,1.66s.41,1.43.21,2.3c-.17.74-.48,1.35-.94,1.83-.46.47-1.02.79-1.69.95s-1.41.15-2.21-.04c-.76-.18-1.4-.47-1.92-.88-.52-.41-.88-.92-1.09-1.51-.21-.6-.25-1.25-.14-1.96l1.57.36c-.13.6-.01,1.12.33,1.57.35.45.88.75,1.59.92.75.17,1.39.13,1.92-.14.53-.26.86-.7,1-1.3.11-.49.08-.92-.1-1.29s-.52-.68-1.04-.94l-1.76-.89c-.87-.44-1.47-1-1.81-1.69s-.41-1.48-.21-2.37h0Z"/>
    <path class="st5" d="M394.51,202.71l-1.19,3.46-.85-.19.41-3.64c.03-.27.1-.48.22-.62s.26-.23.42-.27.31-.05.46,0c.14.03.26.1.37.21.11.1.19.24.23.42s.02.4-.08.65h0v-.02Z"/>
    <path class="st5" d="M393.78,214.5l1.93-8.39,1.47.34-1.93,8.39-1.47-.34ZM396.88,204.29c-.26-.06-.46-.22-.61-.47s-.18-.53-.12-.81c.07-.3.22-.53.46-.69s.49-.21.75-.15c.27.06.48.22.62.47.14.25.18.52.11.82-.07.29-.22.51-.45.68-.24.17-.49.22-.76.16h0Z"/>
    <path class="st5" d="M398.85,215.67l-1.47-.34,1.93-8.39,1.33.31-.14,1.32c.35-.43.78-.72,1.3-.88.51-.16,1.04-.18,1.59-.06,1,.23,1.67.71,2.01,1.45.33.74.38,1.65.13,2.72l-1.18,5.13-1.47-.34,1.1-4.77c.19-.85.17-1.49-.08-1.94s-.66-.74-1.22-.87c-.69-.16-1.28-.04-1.78.37-.5.4-.84,1.02-1.03,1.84l-1.02,4.44h0Z"/>
    <path class="st5" d="M406.23,214.8l1.41.32c-.1.42-.03.79.19,1.1.23.31.58.52,1.06.63.52.12.95.1,1.28-.06s.54-.43.63-.8c.06-.27.04-.52-.07-.74s-.35-.43-.72-.64l-1.27-.65c-.64-.34-1.08-.73-1.32-1.19-.24-.45-.29-.99-.15-1.61.12-.51.34-.93.68-1.25.33-.32.74-.54,1.22-.64.48-.11,1-.09,1.57.04.56.13,1.03.35,1.39.66.36.31.62.69.76,1.13.15.44.16.93.05,1.47l-1.41-.32c.09-.44.04-.8-.16-1.1s-.52-.5-.97-.6c-.46-.11-.84-.08-1.14.08-.3.16-.49.43-.58.8-.13.56.16,1.03.87,1.41l1.26.67c.61.31,1.04.68,1.28,1.12.24.43.29.96.15,1.58-.12.53-.36.96-.71,1.29s-.78.56-1.28.66c-.5.11-1.06.09-1.68-.05-.9-.21-1.56-.61-1.98-1.21s-.54-1.3-.36-2.11h0Z"/>
    <path class="st5" d="M413.78,214.69c.2-.88.54-1.62,1.01-2.21.47-.59,1.03-1.01,1.68-1.26s1.35-.29,2.09-.12c.96.22,1.7.69,2.2,1.39.51.71.72,1.54.63,2.49l-1.47-.34c0-.57-.15-1.03-.46-1.39s-.7-.59-1.19-.71c-.46-.11-.9-.08-1.31.09s-.77.45-1.07.85c-.3.4-.52.9-.66,1.51s-.17,1.15-.08,1.63c.09.48.28.89.56,1.21.29.32.66.54,1.12.65.52.12,1,.08,1.45-.12.44-.2.78-.53,1.02-.99l1.47.34c-.23.58-.57,1.07-1,1.44-.43.38-.93.63-1.5.78-.57.14-1.16.14-1.77,0-.75-.17-1.37-.51-1.84-1-.47-.5-.79-1.11-.95-1.84s-.14-1.54.06-2.42v.02h0Z"/>
    <path class="st5" d="M428.02,213.47l-.34,1.48-.66-.15c-.7-.16-1.3-.07-1.8.28s-.85.93-1.04,1.74l-1.02,4.44-1.47-.34,1.92-8.37,1.38.32-.26,1.71-.14-.03c.23-.53.58-.92,1.06-1.17.48-.26,1.01-.32,1.61-.18.14.03.26.07.38.11s.24.1.38.17h0Z"/>
    <path class="st5" d="M427.45,222.24l1.93-8.39,1.47.34-1.93,8.39-1.47-.34ZM430.56,212.03c-.26-.06-.46-.22-.61-.47-.15-.26-.18-.53-.12-.81.07-.3.22-.53.46-.69s.49-.21.75-.15c.27.06.48.22.62.47.14.25.18.52.11.82-.07.29-.22.51-.46.68s-.49.22-.76.16h.01Z"/>
    <path class="st5" d="M437.39,215.62l-.34,1.47-.66-.15c-.7-.16-1.3-.07-1.81.28-.5.35-.85.93-1.04,1.74l-1.02,4.44-1.47-.34,1.92-8.37,1.38.32-.26,1.71-.14-.03c.23-.53.58-.92,1.06-1.17.48-.26,1.01-.32,1.61-.18.14.03.26.07.38.11s.24.1.38.17h.01Z"/>
    <path class="st5" d="M439.8,225.29c-.74-.17-1.36-.51-1.85-1.01s-.82-1.12-.99-1.85c-.17-.73-.16-1.53.04-2.4.2-.88.54-1.62,1.01-2.21.47-.59,1.03-1.01,1.67-1.26.65-.25,1.34-.29,2.08-.12.73.17,1.33.49,1.78.95s.77,1.04.92,1.73c.16.69.14,1.45-.05,2.28l-.14.6-6.57-1.49.28-1.07,5.06,1.16c.16-.7.1-1.3-.19-1.81s-.76-.84-1.4-.99c-.49-.11-.94-.09-1.34.06s-.75.44-1.03.85c-.29.41-.5.93-.65,1.56-.23,1.01-.2,1.83.09,2.47s.83,1.05,1.61,1.23c.58.13,1.07.11,1.5-.05.42-.17.75-.48.99-.93l1.38.32c-.39.85-.95,1.45-1.68,1.8s-1.57.42-2.52.2v-.02h0Z"/>
  </g>
  <g>
    <path class="st2" d="M120.8,144.87c11.03-1.4,20.31,7.87,18.92,18.89-.95,7.5-7.01,13.56-14.51,14.51-11.03,1.39-20.3-7.87-18.91-18.89.95-7.5,7.01-13.56,14.51-14.51h-.01Z"/>
    <path class="st9" d="M121.81,175.55l1.19-.87,1.19.87-.46-1.4,1.19-.87h-1.47l-.46-1.4-.46,1.4h-1.47l1.19.87-.46,1.4h.02ZM123,147.58l-.46,1.4h-1.47l1.19.87-.46,1.4,1.19-.87,1.19.87-.46-1.4,1.19-.87h-1.47l-.46-1.4h.02ZM131.01,171.66l-1.19.87.46,1.4-1.19-.87-1.19.87.46-1.4-1.19-.87h1.47l.46-1.4.46,1.4h1.47-.02ZM135.47,167.21l-1.19.87.46,1.4-1.19-.87-1.19.87.46-1.4-1.19-.87h1.47l.46-1.4.46,1.4h1.47-.02ZM133.54,153.65l.46,1.4h1.47l-1.19.87.46,1.4-1.19-.87-1.19.87.46-1.4-1.19-.87h1.47l.46-1.4h-.02ZM127.15,150.61h1.47l.46-1.4.46,1.4h1.47l-1.19.87.46,1.4-1.19-.87-1.19.87.46-1.4-1.19-.87h-.02ZM136.36,163.4l-1.19-.87-1.19.87.46-1.4-1.19-.87h1.47l.46-1.4.46,1.4h1.47l-1.19.87.46,1.4h-.02ZM114.99,171.66l1.19.87-.46,1.4,1.19-.87,1.19.87-.46-1.4,1.19-.87h-1.47l-.46-1.4-.46,1.4h-1.47.02ZM110.53,167.21l1.19.87-.46,1.4,1.19-.87,1.19.87-.46-1.4,1.19-.87h-1.47l-.46-1.4-.46,1.4h-1.47.02ZM112.46,153.65l-.46,1.4h-1.47l1.19.87-.46,1.4,1.19-.87,1.19.87-.46-1.4,1.19-.87h-1.47l-.46-1.4h.02ZM118.85,150.61h-1.47l-.46-1.4-.46,1.4h-1.47l1.19.87-.46,1.4,1.19-.87,1.19.87-.46-1.4,1.19-.87h.02ZM109.64,163.4l1.19-.87,1.19.87-.46-1.4,1.19-.87h-1.47l-.46-1.4-.46,1.4h-1.47l1.19.87-.46,1.4h.02Z"/>
  </g>
  <g>
    <path class="st6" d="M123,39.64c9.31,0,16.85,7.51,16.85,16.77s-7.54,16.77-16.85,16.77-16.85-7.51-16.85-16.77,7.54-16.77,16.85-16.77h0Z"/>
    <path class="st5" d="M124.88,52.17c-1.42-2.22-3.91-3.7-6.75-3.7-4.41,0-7.99,3.56-7.99,7.95s3.58,7.95,7.99,7.95c2.84,0,5.34-1.48,6.75-3.7-1.17,1.3-2.87,2.11-4.76,2.11-3.53,0-6.39-2.85-6.39-6.36s2.86-6.36,6.39-6.36c1.89,0,3.59.82,4.76,2.11h0ZM124.45,56.41l7.22,2.34-4.46-6.12v7.56l4.46-6.12s-7.22,2.34-7.22,2.34Z"/>
  </g>
  <path class="st0" d="M123,252.81c3.07,0,5.96.81,8.44,2.22h-16.88c2.48-1.41,5.37-2.22,8.44-2.22Z"/>
  <path class="st0" d="M108.94,260.24c.57-.85,1.21-1.64,1.93-2.36h24.28c.71.72,1.36,1.52,1.93,2.36h-28.13"/>
  <path class="st0" d="M107.4,263.08h31.19c.32.76.58,1.55.78,2.36h-32.76"/>
  <path class="st0" d="M106.18,268.28h33.63c.02.36.04.72.04,1.08,0,.43-.02.86-.05,1.29h-33.61"/>
  <path class="st0" d="M106.67,273.49h32.65c-.21.81-.48,1.6-.82,2.37h-31.01"/>
  <path class="st0" d="M109.08,278.69h27.84c-.59.85-1.27,1.65-2.01,2.38h-23.82c-.74-.73-1.41-1.52-2.01-2.38"/>
  <path class="st0" d="M131.06,283.9c-2.4,1.28-5.15,2.01-8.06,2.01s-5.66-.73-8.06-2.01h16.12Z"/>
  <path class="st15" d="M106.15,269.36c0-9.14,7.55-16.54,16.85-16.54.32,0,.63,0,.95.03h0v17.92h-17.74"/>
  <polygon class="st5" points="121.76 267.91 122.39 269.79 120.75 268.62 122.77 268.62 121.14 269.79 121.76 267.91"/>
  <polygon class="st5" points="121.76 264.26 122.39 266.14 120.75 264.98 122.77 264.98 121.14 266.14 121.76 264.26"/>
  <polygon class="st5" points="121.76 260.62 122.39 262.5 120.75 261.33 122.77 261.33 121.14 262.5 121.76 260.62"/>
  <polygon class="st5" points="121.76 256.97 122.39 258.85 120.75 257.69 122.77 257.69 121.14 258.85 121.76 256.97"/>
  <polygon class="st5" points="121.76 253.33 122.39 255.21 120.75 254.04 122.77 254.04 121.14 255.21 121.76 253.33"/>
  <polygon class="st5" points="119.57 266.08 120.2 267.97 118.57 266.8 120.58 266.8 118.96 267.97 119.57 266.08"/>
  <polygon class="st5" points="119.57 262.44 120.2 264.32 118.57 263.16 120.58 263.16 118.96 264.32 119.57 262.44"/>
  <polygon class="st5" points="119.57 258.79 120.2 260.68 118.57 259.51 120.58 259.51 118.96 260.68 119.57 258.79"/>
  <polygon class="st5" points="119.57 255.15 120.2 257.03 118.57 255.87 120.58 255.87 118.96 257.03 119.57 255.15 119.57 255.15"/>
  <polygon class="st5" points="117.4 267.91 118.02 269.79 116.39 268.62 118.41 268.62 116.77 269.79 117.4 267.91"/>
  <polygon class="st5" points="117.4 264.26 118.02 266.14 116.39 264.98 118.41 264.98 116.77 266.14 117.4 264.26"/>
  <polygon class="st5" points="117.4 260.62 118.02 262.5 116.39 261.33 118.41 261.33 116.77 262.5 117.4 260.62"/>
  <polygon class="st5" points="117.4 256.97 118.02 258.85 116.39 257.69 118.41 257.69 116.77 258.85 117.4 256.97"/>
  <polygon class="st5" points="117.52 253.71 118.02 255.21 116.47 254.1 116.61 254.04 118.41 254.04 116.77 255.21 117.24 253.81 117.52 253.71"/>
  <polygon class="st5" points="115.21 266.08 115.83 267.97 114.2 266.8 116.22 266.8 114.58 267.97 115.21 266.08"/>
  <polygon class="st5" points="115.21 262.44 115.83 264.32 114.2 263.16 116.22 263.16 114.58 264.32 115.21 262.44"/>
  <polygon class="st5" points="115.21 258.79 115.83 260.68 114.2 259.51 116.22 259.51 114.58 260.68 115.21 258.79"/>
  <polygon class="st5" points="115.21 255.15 115.83 257.03 114.2 255.87 116.22 255.87 114.58 257.03 115.21 255.15"/>
  <polygon class="st5" points="113.03 267.91 113.65 269.79 112.02 268.62 114.04 268.62 112.41 269.79 113.03 267.91 113.03 267.91"/>
  <polygon class="st5" points="113.03 264.26 113.65 266.14 112.02 264.98 114.04 264.98 112.41 266.14 113.03 264.26"/>
  <polygon class="st5" points="113.03 260.62 113.65 262.5 112.02 261.33 114.04 261.33 112.41 262.5 113.03 260.62"/>
  <polygon class="st5" points="113.03 256.97 113.65 258.85 112.02 257.69 114.04 257.69 112.41 258.85 113.03 256.97"/>
  <polyline class="st5" points="109.84 266.8 111.85 266.8 110.22 267.97 110.84 266.08 111.47 267.97 109.84 266.8"/>
  <polyline class="st5" points="109.84 263.16 111.85 263.16 110.22 264.32 110.84 262.44 111.47 264.32 109.84 263.16"/>
  <polyline class="st5" points="109.84 259.51 111.85 259.51 110.22 260.68 110.84 258.79 111.47 260.68 109.84 259.51"/>
</svg>