<?xml version="1.0" encoding="UTF-8"?>
<svg id="Layer_1" xmlns="http://www.w3.org/2000/svg" version="1.1" xmlns:xlink="http://www.w3.org/1999/xlink" viewBox="0 0 640 411">
  <!-- Generator: Adobe Illustrator 29.6.0, SVG Export Plug-In . SVG Version: 2.1.1 Build 207)  -->
  <defs>
    <style>
      .st0 {
        fill: #f2f6f9;
      }

      .st1 {
        fill: #c81827;
      }

      .st2 {
        fill: #f60;
      }

      .st3 {
        fill: #e2aa50;
      }

      .st4 {
        fill: none;
      }

      .st5 {
        fill: #006c2c;
      }

      .st6 {
        fill: #ce9541;
      }

      .st7 {
        fill: #ff5700;
      }

      .st8 {
        fill: #f75059;
      }

      .st9 {
        fill: #480c22;
      }

      .st10 {
        fill: #ee3038;
      }

      .st11 {
        fill: #ffbd93;
      }

      .st12 {
        clip-path: url(#clippath);
      }

      .st13 {
        fill: #f3f3f3;
      }
    </style>
    <clipPath id="clippath">
      <path class="st4" d="M95.99,389.1h86.68s0-3.92,7.09-7.27c7.09-3.36,14.18-6.71,17.34-10.63,3.15-3.92,6.3-12.87,11.82-14.55,5.52-1.68,7.09-2.24,13.4-6.15,6.3-3.92,4.73-6.71,13.4-7.27s22.06,1.68,36.25,0c14.18-1.68,27.58-1.68,31.52-3.92s.79-17.35,5.52-19.58c4.73-2.24,18.12-7.83,31.52-10.07s17.34-2.8,26-3.36,10.24-3.92,17.34-1.68c7.09,2.24,5.52,5.04,13.4,2.8s7.88-6.15,14.97-7.27,7.88-3.36,17.34-3.92,15.76-2.8,22.06-5.04,4.73-2.24,4.73-6.15-.79-5.04,3.15-6.71c2.63-1.12,6.04-1.87,10.24-2.24,6.3-.56,7.88-2.24,9.46-4.48,1.58-2.24,18.91-2.8,28.37-2.24,9.46.56,15.76,3.36,19.7,0s4.73-4.48,2.36-7.27c-2.36-2.8-6.3-1.12-9.46-5.6-3.15-4.48-3.94-6.71-6.3-11.75s-5.52-7.27-7.88-12.31-1.58-6.15-13.4-6.71c-11.82-.56-11.82-4.48-22.06-3.92s-22.06.56-31.52,1.68-17.34,3.36-23.64,0c-6.3-3.36-6.7-4.48-10.64-6.15-3.94-1.68-1.97-2.24-4.33-2.8s-13.4,1.12-15.76,1.96-8.27,11.47-13,15.39-10.64,8.39-14.97,9.51-11.43,5.32-20.09,5.87c-8.67.56-16.55,1.12-22.46,3.36-5.91,2.24-15.37,7.55-20.49,9.51-5.12,1.96-5.91,1.4-7.09,3.64s1.18,5.04-.79,6.43c-1.97,1.4-3.15,1.68-9.06,3.92-5.91,2.24-4.73,2.52-7.09,5.6-2.36,3.08.39,5.87-.39,8.95-.79,3.08-1.18,2.52,2.36,3.92,3.55,1.4,5.91.56,3.94,3.92-1.97,3.36-2.76,3.92-8.67,6.15-5.91,2.24-8.27,5.04-11.43,6.99-3.15,1.96-7.49,5.32-14.18,6.99-6.7,1.68-12.61.84-15.37,3.08s-5.52,3.64-9.85,5.04-16.94,2.8-23.64,3.08c-6.7.28-10.24.56-14.58,1.4-4.33.84-4.33,2.24-6.7,3.08-2.37.84-3.55,1.68-4.33,3.64-.78,1.96-3.55,4.76-5.91,6.71-2.36,1.96-2.76,1.96-7.49,3.92-4.73,1.96-10.24,3.64-14.18,3.92s-5.52,1.12-7.88,2.24-1.97,2.24-3.55,4.76-5.91,5.04-5.91,5.04l-1.18,6.15s-2.36,5.88-8.27,7.55c-5.91,1.68-7.88,2.24-11.82,4.48-3.94,2.24-11.82,5.04-14.58,8.39l-.02-.03Z"/>
    </clipPath>
  </defs>
  <path class="st11" d="M382.77,237.74c-.37-.3-.75-.59-1.16-.86l1.16.86Z"/>
  <g>
    <g>
      <path class="st0" d="M207.1,380.21c3.15-3.92,6.3-12.87,11.82-14.55s7.09-2.24,13.4-6.15c6.3-3.92,4.73-6.71,13.4-7.27s22.06,1.68,36.25,0c14.18-1.68,27.58-1.68,31.52-3.92,3.94-2.24.79-17.34,5.52-19.58,4.73-2.24,18.12-7.83,31.52-10.07,13.4-2.24,17.34-2.8,26-3.36,8.67-.56,10.24-3.92,17.34-1.68,7.09,2.24,5.52,5.04,13.4,2.8,7.88-2.24,7.88-6.15,14.97-7.27s7.88-3.36,17.34-3.92c9.46-.56,15.76-2.8,22.06-5.04,4.38-1.56,4.96-2.03,4.9-3.49v-7.04h0c.34-.89,1.14-1.56,2.98-2.34,2.63-1.12,6.04-1.87,10.24-2.24,6.3-.56,7.88-2.24,9.46-4.48,1.58-2.24,18.91-2.8,28.37-2.24s15.76,3.36,19.7,0c2.53-2.16,3.75-3.39,3.68-4.74v-8.8c.04-.82-.39-1.66-1.32-2.75-2.36-2.8-6.3-1.12-9.46-5.59-3.15-4.48-3.94-6.71-6.3-11.75s-5.52-7.27-7.88-12.31-1.58-6.15-13.4-6.71c-11.82-.56-11.82-4.48-22.06-3.92s-22.06.56-31.52,1.68-17.34,3.36-23.64,0c-6.3-3.36-6.7-4.48-10.64-6.15-3.94-1.68-1.97-2.24-4.33-2.8s-13.4,1.12-15.76,1.96c-2.36.84-8.27,11.47-13,15.39s-10.64,8.39-14.97,9.51-11.43,5.32-20.09,5.88c-8.67.56-16.55,1.12-22.46,3.36s-15.37,7.55-20.49,9.51-5.91,1.4-7.09,3.64c-.3.56-.37,1.16-.34,1.76v4.23c-.12.16-.25.31-.44.44-1.97,1.4-3.15,1.68-9.06,3.92-5.91,2.24-4.73,2.52-7.09,5.6-.77,1-.99,1.98-.97,2.94v8.8c0,.31.01.61.05.92v7.41c-.06.68.35.85,1.81,1.41-.95.43-2.13.9-3.66,1.47-5.91,2.24-8.27,5.04-11.43,6.99-3.15,1.96-7.49,5.32-14.18,6.99-6.7,1.68-12.61.84-15.37,3.08s-5.52,3.64-9.85,5.04-16.94,2.8-23.64,3.08-10.24.56-14.58,1.4c-4.33.84-4.33,2.24-6.7,3.08-2.36.84-3.55,1.68-4.33,3.64-.79,1.96-3.55,4.76-5.91,6.71-2.36,1.96-2.76,1.96-7.49,3.92-4.73,1.96-10.24,3.64-14.18,3.92s-5.52,1.12-7.88,2.24-1.97,2.24-3.55,4.76c-1.58,2.52-5.91,5.04-5.91,5.04l-1.18,6.15s-2.36,5.88-8.27,7.55c-5.91,1.68-7.88,2.24-11.82,4.48-3.94,2.24-11.82,5.04-14.58,8.39h.2-.2v9.01h85.22c.79,0,1.47-.5,1.76-1.23"/>
      <path class="st10" d="M95.99,389.1h85.09c.83,0,1.6-.48,1.9-1.25.56-1.43,2.18-3.84,6.79-6.03,7.09-3.36,14.18-6.71,17.34-10.63,3.15-3.92,6.3-12.87,11.82-14.55,5.52-1.68,7.09-2.24,13.4-6.15,6.3-3.92,4.73-6.71,13.4-7.27s22.06,1.68,36.25,0c14.18-1.68,27.58-1.68,31.52-3.92,3.94-2.24.79-17.35,5.52-19.58,4.73-2.24,18.12-7.83,31.52-10.07,13.4-2.24,17.34-2.8,26-3.36s10.24-3.92,17.34-1.68c7.09,2.24,5.52,5.04,13.4,2.8,7.88-2.24,7.88-6.15,14.97-7.27s7.88-3.36,17.34-3.92,15.76-2.8,22.06-5.04c6.3-2.24,4.73-2.24,4.73-6.15s-.79-5.04,3.15-6.71c2.63-1.12,6.04-1.87,10.24-2.24,6.3-.56,7.88-2.24,9.46-4.48,1.58-2.24,18.91-2.8,28.37-2.24s15.76,3.36,19.7,0,4.73-4.48,2.36-7.27c-2.36-2.8-6.3-1.12-9.46-5.6-3.15-4.48-3.94-6.71-6.3-11.75s-5.52-7.27-7.88-12.31-1.58-6.15-13.4-6.71c-11.82-.56-11.82-4.48-22.06-3.92s-22.06.56-31.52,1.68-17.34,3.36-23.64,0c-6.3-3.36-6.7-4.48-10.64-6.15-3.94-1.68-1.97-2.24-4.33-2.8s-13.4,1.12-15.76,1.96-8.27,11.47-13,15.39-10.64,8.39-14.97,9.51-11.43,5.32-20.09,5.87c-8.67.56-16.55,1.12-22.46,3.36s-15.37,7.55-20.49,9.51-5.91,1.4-7.09,3.64c-1.18,2.24,1.18,5.04-.79,6.43-1.97,1.4-3.15,1.68-9.06,3.92-5.91,2.24-4.73,2.52-7.09,5.6-2.36,3.08.39,5.87-.39,8.95-.79,3.08-1.18,2.52,2.36,3.92,3.55,1.4,5.91.56,3.94,3.92s-2.76,3.92-8.67,6.15c-5.91,2.24-8.27,5.04-11.43,6.99-3.15,1.96-7.49,5.32-14.18,6.99-6.7,1.68-12.61.84-15.37,3.08s-5.52,3.64-9.85,5.04-16.94,2.8-23.64,3.08-10.24.56-14.58,1.4c-4.33.84-4.33,2.24-6.7,3.08s-3.55,1.68-4.33,3.64-3.55,4.76-5.91,6.71c-2.36,1.96-2.76,1.96-7.49,3.92-4.73,1.96-10.24,3.64-14.18,3.92s-5.52,1.12-7.88,2.24-1.97,2.24-3.55,4.76-5.91,5.04-5.91,5.04l-1.18,6.15s-2.36,5.88-8.27,7.55c-5.91,1.68-7.88,2.24-11.82,4.48-3.94,2.24-11.82,5.04-14.58,8.39l-.03-.02Z"/>
      <path class="st1" d="M376.52,306.3c8.67-.56,10.24-3.92,17.34-1.68,7.09,2.24,5.52,5.04,13.4,2.8,7.88-2.24,7.88-6.15,14.97-7.27s7.88-3.36,17.34-3.92c9.46-.56,15.76-2.8,22.06-5.04,6.3-2.24,4.73-2.24,4.73-6.15s-.79-5.04,3.15-6.71c2.63-1.12,6.04-1.87,10.24-2.24,6.3-.56,7.88-2.24,9.46-4.48,1.58-2.24,18.91-2.8,28.37-2.24,9.46.56,15.76,3.36,19.7,0s4.73-4.48,2.36-7.27c-2.36-2.8-6.3-1.12-9.46-5.6-3.15-4.48-3.94-6.71-6.3-11.75-.66-1.42-1.39-2.61-2.15-3.7-.26.22-.52.44-.77.66-11.04,9.28-25.21,15.19-39.91,16.65-6.52.65-13.25.47-19.4,2.6-10.66,3.69-17.47,13.46-26.88,19.46-17.06,10.89-39.55,7.99-60.11,9.16-24.48,1.39-48.51,9.32-68.59,22.62-10.61,7.03-20.54,15.72-33.07,18.85-18.86,4.72-40.06-4.13-57.94,3.25-9.27,3.83-16.04,11.43-23.31,18.07-7.27,6.64-16.28,12.81-26.39,12.46-8.22-.29-16.19-7.1-16.6-14.29-3.62.31-5.19,1.12-7.46,2.2-2.36,1.12-1.97,2.24-3.55,4.76-1.58,2.52-5.91,5.04-5.91,5.04l-1.18,6.15s-2.36,5.87-8.27,7.55-7.88,2.24-11.82,4.48c-3.94,2.24-11.82,5.04-14.58,8.39h85.23c.78,0,1.46-.5,1.75-1.23.56-1.42,2.16-3.85,6.8-6.05,7.09-3.36,14.18-6.71,17.34-10.63,3.15-3.92,6.3-12.87,11.82-14.55s7.09-2.24,13.4-6.15c6.3-3.92,4.73-6.71,13.4-7.27s22.06,1.68,36.25,0c14.18-1.68,27.58-1.68,31.52-3.92,3.94-2.24.79-17.34,5.52-19.58,4.73-2.24,18.12-7.83,31.52-10.07,13.4-2.24,17.34-2.8,26-3.36h-.02Z"/>
      <path class="st8" d="M499.39,225.46c-8.71-1.04-9.63-4.16-18.85-3.65-10.24.56-22.06.56-31.52,1.68s-17.34,3.36-23.64,0c-6.3-3.36-6.7-4.48-10.64-6.15-3.94-1.68-1.97-2.24-4.33-2.8s-13.4,1.12-15.76,1.96c-2.36.84-8.27,11.47-13,15.39s-10.64,8.39-14.97,9.51-11.43,5.32-20.09,5.88c-8.67.56-16.55,1.12-22.46,3.36-2.98,1.13-6.87,3.04-10.65,4.92,5.47,0,10.96.55,16.42.25,4.49-.25,8.94-1.08,13.19-2.48,3.55-1.17,6.94-2.71,10.33-4.25,4.03-1.83,8.11-3.65,12.48-4.5,3.19-.62,6.52-.71,9.55-1.82,6.12-2.23,9.79-7.97,13.82-12.86s10.04-9.58,16.45-8.25c2.43.51,4.56,1.84,6.76,2.93,8.44,4.2,18.23,5.08,27.73,5.89,3.87.33,7.78.65,11.62.12,3.79-.53,7.39-1.88,11.1-2.76,11.72-2.8,24.59-1.07,36.46-2.34v-.03Z"/>
    </g>
    <g>
      <path class="st5" d="M430.31,251.36h-17.35l-5.36-16.5c-.22-.68-1.19-.68-1.41,0l-5.36,16.5h-17.35c-.72,0-1.02.92-.44,1.34l14.04,10.2-5.36,16.5c-.22.68.56,1.25,1.14.83l14.04-10.2,14.04,10.2c.58.42,1.36-.15,1.14-.83l-5.36-16.5,14.04-10.2c.58-.42.28-1.34-.44-1.34h-.01ZM406.89,264.89l-8.74,6.35,3.34-10.27-8.74-6.35h10.8l3.34-10.27,3.34,10.27h10.8l-8.74,6.35,3.34,10.27-8.74-6.35Z"/>
      <rect class="st5" x="398.99" y="251.36" width="15.19" height="3.26"/>
      <polygon class="st5" points="401.49 260.96 403.55 254.61 400.82 251.36 397.07 262.9 401.49 260.96"/>
      <polygon class="st5" points="401.49 260.96 406.89 264.89 412.29 260.96 416.7 262.9 406.89 270.03 397.07 262.9 401.49 260.96"/>
      <polygon class="st5" points="410.22 254.61 412.29 260.96 416.7 262.9 412.95 251.36 410.22 254.61"/>
    </g>
    <g class="st12">
      <g>
        <path class="st9" d="M305.5,280.18c-.93-.7-2.54-.3-3.62-.19-1.3.13-2.59.35-3.87.64-2.46.56-4.68,1.09-6.25,3.19-3.36,4.53-6.7,8.95-10.59,13.05.48.13.97.26,1.45.38-.08-.42-.13-.6-.46-.87-.15-.13-.35-.17-.53-.07-.43.25-.51.48-.68.94-.3.83.87,1.44,1.45.84,3.56-3.72,6.86-7.67,9.86-11.86.75-1.05,1.41-2.26,2.63-2.82,1.12-.51,2.39-.81,3.58-1.11,1.26-.32,2.54-.59,3.82-.82,1.03-.18,2.47-.09,3.26-.86.15-.15.09-.35-.06-.47h0v.03Z"/>
        <path class="st9" d="M297.98,276.26c-.05.09-.13.18-.18.27-.05.1-.07.23-.1.33-.05.2-.08.4-.12.6-.09.47-.17.93-.22,1.41-.05.45-.11.89-.16,1.34-.03.22-.05.45-.08.67-.01.1-.03.21-.03.31,0,.17.05.27.1.43.14.35.59.44.81.11.17-.26.21-.43.24-.74.02-.21.03-.41.05-.62.04-.46.08-.93.12-1.39.04-.45.05-.89.06-1.34,0-.22.02-.45,0-.67,0-.1,0-.21-.03-.31-.02-.13-.08-.23-.12-.36-.05-.15-.26-.19-.34-.04h0Z"/>
        <path class="st9" d="M284.64,285.28c.24.9.61,1.74,1.03,2.57.2.4.43.78.66,1.17.25.42.49.94.89,1.23.2.14.51.09.69-.05.2-.16.27-.4.22-.65-.06-.26-.23-.47-.37-.7-.11-.18-.22-.35-.33-.53-.22-.37-.43-.75-.65-1.12-.44-.76-.86-1.52-1.33-2.26-.27-.42-.95-.16-.81.34h0Z"/>
        <path class="st9" d="M297.82,298.5c-.4-2.38-3.01-3.96-5.17-4.53-2.99-.79-6.14-.04-9.06.67-.99.24-.57,1.73.42,1.52,2.54-.53,5.3-1.16,7.89-.65,1.04.21,2.04.52,2.94,1.08s1.57,1.37,2.15,2.25c.29.45.91.15.83-.35h0Z"/>
        <path class="st9" d="M356.09,303.42c1.16.54,2.3,1.06,3.38,1.75.51.33,1,.69,1.46,1.09.23.2.45.4.66.62.3.31.54.54,1.01.48.16-.02.33-.2.36-.36.1-.44-.17-.73-.47-1.02-.24-.23-.49-.45-.75-.67-.52-.43-1.08-.83-1.65-1.18-1.14-.69-2.47-1.23-3.81-1.38-.35-.04-.49.52-.18.67h-.01Z"/>
        <path class="st9" d="M453.78,253.41c2,.64,4.11.91,6.15,1.41,2.05.5,4.07,1.11,6.05,1.86.44.17.98.29,1.37.54.5.32.49.67.55,1.25.12,1.11.03,2.31-.02,3.42-.09,2.08-.5,4.1-.7,6.17-.14,1.46.51,2.55,1.98,2.87,1.92.41,3.9.59,5.83,1.01,1.06.23,2.12.49,3.17.78.27.08,1.13.21,1.34.41.18-.16.21-.07.1.27-.01.16-.03.33-.04.49-.18,2.3-.48,4.61-.55,6.92l1.23-1.23c-.1-.03-.19-.05-.29-.08-.52-.22-1.06.14-.94.72.02.09.03.17.05.26-.25,1.75,2.17,2.1,2.41.33.32-2.4.58-4.99.59-7.41.01-2.13-1.5-2.48-3.28-2.91-2.28-.54-4.58-.98-6.9-1.29-.73-.1-2.52.07-2.7-.79-.08-.41.14-.97.2-1.39.08-.57.16-1.15.23-1.72.26-2.26.35-4.55.25-6.83-.1-2.17-.95-2.78-2.95-3.36-2.1-.61-4.23-1.14-6.37-1.55-2.18-.42-4.46-.87-6.67-.67-.29.03-.37.43-.07.52h-.02Z"/>
        <path class="st9" d="M478.66,266.6c-.39.74-.51,1.63-.67,2.45-.17.83-.32,1.66-.48,2.48-.07.38.11.83.52.92.35.08.87-.11.92-.52.12-.87.24-1.74.35-2.61.11-.85.28-1.75.15-2.61-.06-.37-.64-.42-.8-.1h.01Z"/>
        <path class="st9" d="M460.78,261.13c1.24.53,2.62.77,3.95,1,.67.12,1.33.23,2,.35s1.52.42,2.18.23c.63-.18.68-.99.17-1.33-.32-.22-.71-.23-1.08-.29-.31-.05-.62-.09-.93-.14-.67-.1-1.34-.2-2.02-.3-1.32-.19-2.73-.43-4.06-.31-.37.03-.64.6-.21.79h0Z"/>
        <path class="st9" d="M466.85,250.07c-.44,1.51-.84,3.03-1.24,4.55-.08.32.11.67.43.76.3.08.7-.1.76-.43.26-1.56.51-3.12.72-4.69.06-.43-.55-.64-.68-.19h0Z"/>
        <path class="st9" d="M395.16,245.14c-.53-2.1-1.44-4.37-2.89-6.04-.63-.73-1.42-.75-2.32-.68-1.21.09-2.42.2-3.62.31-.49.04-1.07.17-1.54,0-.44-.16-.74-.55-1.02-.91-.65-.83-1.26-1.69-1.93-2.51-1.3-1.58-2.86-3.44-4.76-4.3-.7-.32-1.5.52-.87,1.13.75.73,1.6,1.33,2.35,2.05.75.71,1.46,1.48,2.12,2.28s1.27,1.64,1.9,2.46c.49.64,1.09,1.23,1.9,1.43.96.24,2.07,0,3.04-.08.58-.05,1.15-.09,1.73-.14.44-.04.99-.19,1.43-.12.53.09.86.85,1.15,1.27.33.47.64.95.97,1.42.63.91,1.33,1.76,2.04,2.62.13.16.37,0,.33-.19h0Z"/>
        <path class="st9" d="M382.8,243.28c.07-.05.15-.08.22-.13.09-.06.17-.15.23-.24.1-.14.18-.3.27-.45.19-.31.31-.66.47-.98.15-.33.31-.66.48-.98.08-.16.16-.31.24-.47.12-.22.27-.44.26-.7-.03-.41-.45-.7-.83-.48-.35.2-.5.71-.67,1.06-.17.36-.33.73-.49,1.1-.15.36-.31.71-.4,1.09-.04.19-.1.39-.11.59,0,.2.08.34.12.53.02.1.14.11.21.06h0Z"/>
        <path class="st9" d="M465.76,232.97c.43-.24.69-.35,1.04-.72s.66-.78.98-1.16c.6-.71,1.17-1.45,1.77-2.17.26-.32.55-.79.91-1,.35-.2.9-.14,1.29-.16,1.02-.05,2.05-.12,3.07-.2.8-.06,1.55-.19,2.06-.88.54-.73.79-1.76,1.12-2.6.77-1.94,1.7-3.89,2.26-5.91.24-.87-1.05-1.46-1.48-.63-.94,1.79-1.58,3.78-2.32,5.66-.18.46-.36.91-.54,1.37-.16.4-.26,1-.66,1.18-.33.15-.95.1-1.31.12-.54.04-1.07.08-1.61.11-.79.05-1.71-.03-2.45.32-.74.35-1.2,1.11-1.68,1.75-.59.79-1.15,1.59-1.64,2.44-.23.41-.46.81-.65,1.24-.19.45-.17.73-.2,1.2,0,.02.02.03.04.02h0v.02Z"/>
        <path class="st9" d="M477.57,231.33c.03-.46-.24-.96-.37-1.4-.13-.45-.25-.89-.31-1.35-.06-.47-.09-.97-.11-1.45-.02-.46.07-.97-.07-1.41-.06-.2-.32-.28-.47-.12-.36.37-.46.95-.53,1.44-.08.58-.08,1.12,0,1.7.07.51.18,1.02.37,1.5.19.49.44,1.15.92,1.41.26.14.54-.04.55-.32h.02Z"/>
        <path class="st9" d="M517.21,263.82c1.01.35,2.13.34,3.18.52.53.09,1.05.17,1.58.27.56.11,1.08.32,1.64.44-.2-.26-.39-.52-.59-.78.04,1.57.13,3.15.26,4.72.07.77.14,1.54.24,2.3.1.78.13,1.66.38,2.41.27.85,1.55.71,1.57-.21.01-.75-.18-1.55-.26-2.3-.09-.77-.18-1.53-.25-2.3-.15-1.54-.26-3.08-.32-4.62-.01-.34-.24-.7-.59-.78-.59-.13-1.2-.13-1.8-.2-.59-.06-1.19-.11-1.79-.1-1.08.01-2.27.01-3.26.49-.07.03-.04.12.02.14h-.01Z"/>
        <path class="st9" d="M527.49,265.34c-.6.34-1.21.68-1.8,1.03-.29.17-.58.35-.87.52-.17.1-.32.21-.47.33-.1.09-.19.17-.23.31-.03.1,0,.16-.02.25-.02.13.03.23.16.28.08.03.13.08.22.1.14.04.26,0,.39-.05.17-.07.33-.14.49-.24.3-.18.61-.35.91-.53.6-.35,1.18-.72,1.77-1.08.25-.15.34-.48.19-.74-.15-.25-.48-.34-.74-.19h0Z"/>
        <path class="st9" d="M371.15,288.64c.94,1.24,3.08,1.71,4.5,2.15,1.83.56,3.77,1.02,5.64,1.38-.35-.46-.7-.91-1.04-1.37.04,2.71.04,5.43-.09,8.13-.03.69.56,1.54,1.27,1.67,2.84.49,5.82.89,8.71.89-.54-.41-1.07-.82-1.61-1.23.77,2.69,1.55,5.33,2.74,7.86.54,1.16,2.63.93,2.84-.37.11-.68.17-1.2-.26-1.77-.42-.56-1.03-.77-1.69-.44-.63.31-.85.75-1.05,1.39.95-.12,1.89-.25,2.84-.37-1-2.11-1.89-4.4-2.14-6.74-.1-.99-.69-1.55-1.67-1.67-2.59-.32-5.2-.53-7.79-.88.42.56.85,1.11,1.27,1.67.04-2.86-.14-5.68-.57-8.51-.1-.62-.8-1.02-1.37-1.04-.98-.03-1.89-.02-2.88-.17-.86-.13-1.72-.29-2.58-.45-.86-.17-1.7-.36-2.56-.54-.74-.16-1.5-.38-2.25-.2-.25.06-.42.41-.26.63h0v-.02Z"/>
        <path class="st9" d="M376.3,295.81c.16.21.26.41.5.56.21.13.43.25.64.36.45.24.91.44,1.39.61.45.16.92.33,1.39.42.51.1,1.34.28,1.73-.16.19-.21.21-.47.09-.71-.23-.46-.95-.56-1.4-.66-.47-.1-.95-.17-1.42-.28-.45-.11-.9-.23-1.35-.35-.22-.06-.44-.14-.66-.2-.25-.07-.47-.02-.73-.02-.24,0-.3.27-.18.43h0Z"/>
        <path class="st9" d="M395.52,297.83s-.04.02-.07.04h.12s-.03-.02-.05-.03c-.1-.07-.25-.06-.35,0-.04.02-.09.05-.13.07.07-.02.13-.04.2-.05-.3-.03-.48.14-.7.31-.21.16-.39.32-.57.51-.32.32-.62.65-.92.99-.29.33-.57.66-.84,1-.16.2-.34.4-.47.62-.14.22-.33.48-.3.75.05.36.29.56.66.5.26-.04.44-.27.61-.45.17-.17.27-.32.41-.5.28-.35.57-.7.86-1.04.28-.33.57-.66.86-.99.16-.18.32-.36.46-.56.17-.23.35-.43.32-.73-.02.07-.04.13-.05.2.02-.04.05-.09.07-.13.06-.1.07-.25,0-.35-.01-.02-.02-.03-.03-.05v.12s.02-.04.04-.07c.05-.08-.05-.17-.13-.13h0v-.03Z"/>
        <path class="st9" d="M283.83,334.25c1.34.74,2.8,1.21,4.24,1.72,1.48.53,2.95,1.08,4.42,1.65-.17-.42-.34-.84-.51-1.25-.67,1.34-1.34,2.68-2,4.03-.33.68-.67,1.35-.98,2.03-.26.56-.44,1.15-.14,1.74.29.57.97.88,1.48,1.2.62.4,1.24.79,1.87,1.19.62.4,1.24.79,1.87,1.19.6.38,1.18.82,1.86,1.07.77.28,1.35-.82.79-1.35-.19-.19-.36-.38-.54-.58-.28-.32-.84-.06-.83.34,0,.27,0,.54-.01.81.46-.19.92-.38,1.38-.57-.8-.8-1.97-1.36-2.93-1.97-1-.64-2.07-1.23-3.03-1.94-.31-.23-.28-.12-.11-.49.11-.26.25-.51.37-.76.29-.59.58-1.18.86-1.77.54-1.1,1.05-2.21,1.57-3.31.24-.5.05-1.09-.51-1.25-1.46-.43-2.91-.88-4.36-1.35-1.45-.47-2.89-.99-4.39-1.23-.48-.08-.85.57-.36.84h0Z"/>
        <path class="st9" d="M292.52,333.23c-.24.17-.45.35-.65.57-.2.23-.37.48-.52.74-.3.52-.78,1.37-.16,1.86.32.25.78.14.98-.21.11-.19.1-.43-.06-.59-.12-.12-.33-.16-.48-.07-.04.02-.09.07-.11.11,0,.02.29-.16.29-.16-.09-.05-.19.08-.27.09,0,0,.11-.04.04-.02.06-.02.1-.01.16,0-.04,0-.09-.01-.13-.02.03,0,.06,0,.08.01.1.03.18.1.21.2-.03-.11-.01.08,0,.01.01-.08-.04-.05,0,0-.01-.03.03-.12.04-.15.04-.15.07-.3.11-.46.08-.32.21-.61.31-.92.1-.3.2-.6.3-.9.03-.08-.08-.17-.15-.11h0v.02Z"/>
        <path class="st9" d="M221.64,339.34c-1.87,2.09-3.12,4.63-4.5,7.04-.25.43-.1.99.33,1.25,1.23.73,2.52,1.35,3.79,2.01.61.31,1.22.63,1.83.94.24.12.59.24.79.39.27.19.47.45.8.62-.2-.26-.4-.52-.6-.78.32,2.33.19,4.61.24,6.95.79-.33,1.58-.65,2.37-.98-.28-.26-.55-.38-.87-.57-.32-.18-.67-.05-.88.23-.16.23-.31.35-.43.62-.87,2,2.28,2.89,2.53,1.07.2-1.5.17-3.04.04-4.55-.06-.76-.16-1.51-.27-2.26-.11-.74-.11-1.54-.8-1.99-.51-.33-1.11-.33-1.65-.58-.73-.33-1.46-.67-2.19-1-1.33-.61-2.64-1.25-4-1.77.21.37.43.75.64,1.12.97-2.48,2.56-4.65,3.87-6.94.37-.64-.53-1.38-1.04-.8h0v-.02Z"/>
        <path class="st9" d="M214.95,351.18h.15c-.09-.05-.19-.11-.28-.16.2.45,1.02.13,1.35.03.48-.15.94-.34,1.4-.57.41-.2.82-.42,1.22-.65.2-.12.39-.24.59-.36.28-.18.63-.36.69-.73.05-.34-.08-.77-.48-.84-.22-.04-.42-.05-.62.07-.09.05-.18.13-.26.19-.17.13-.35.25-.53.37-.37.25-.75.49-1.14.71-.38.22-.76.42-1.14.64-.19.11-.38.2-.57.32-.09.06-.18.12-.27.18-.13.09-.19.23-.31.33-.19.16-.03.47.19.47h0Z"/>
        <path class="st9" d="M216.62,340.82c.1.27.2.55.35.8.14.24.3.47.46.69.18.24.36.47.56.69.1.1.2.21.3.31.17.16.31.29.55.31.31.02.47-.3.42-.55-.03-.19-.18-.3-.31-.42-.1-.09-.2-.19-.29-.29-.18-.19-.36-.38-.53-.58-.08-.1-.16-.2-.24-.29,0-.02-.04-.05,0-.01-.02-.03-.04-.06-.06-.09-.04-.05-.08-.1-.11-.16-.17-.23-.33-.43-.49-.65-.09-.13-.24-.2-.4-.13-.14.06-.24.23-.19.38h-.01Z"/>
        <path class="st9" d="M438.55,283.43c-1.02.98-1.61,2.47-2.28,3.69-.72,1.32-1.45,2.64-2.17,3.95-.2.36-.12.94.29,1.12,2.5,1.11,4.99,2.23,7.49,3.34-.13-.31-.26-.63-.38-.94-.18.92-.36,1.83-.54,2.75-.16.78-.55,1.71-.12,2.44.23.4.7.39,1.03.13.62-.48.6-1.54.74-2.27.17-.87.33-1.74.5-2.61.06-.33-.03-.79-.38-.94-2.5-1.1-5-2.21-7.5-3.31.1.37.2.75.29,1.12.71-1.33,1.41-2.66,2.12-3.98.65-1.23,1.6-2.56,1.86-3.95.1-.54-.51-.96-.94-.55h0Z"/>
        <path class="st9" d="M431.85,289.1c.63.25,1.37.41,1.95.66.25.11.6.29.87.44.15.09.31.17.47.24.06.04.13.06.21.07-.03-.02-.02-.02.04.02.08.04.16.08.23.12.5.27,1.04-.38.62-.8-.29-.29-.51-.54-.89-.76-.35-.2-.74-.36-1.12-.51-.7-.27-1.51-.51-2.26-.43-.55.06-.63.73-.13.94h.01Z"/>
        <path class="st9" d="M362.49,300.22c-.29,1.08-.32,2.29-.4,3.4-.07,1.08-.09,2.17-.07,3.25.04,2.23.27,4.46.71,6.65.18.91,1.55.52,1.39-.38-.39-2.12-.65-4.24-.71-6.39-.03-1.04-.02-2.08.04-3.12.06-1.08.26-2.16.27-3.24,0-.7-1.04-.85-1.23-.17h0Z"/>
      </g>
    </g>
  </g>
  <g>
    <g>
      <rect class="st9" x="280.64" y="130.66" width=".87" height="84.19" transform="translate(-29.11 60.37) rotate(-11.66)"/>
      <rect class="st9" x="310.59" y="141.58" width=".87" height="63.88" transform="translate(-.57 1.03) rotate(-.19)"/>
      <rect class="st9" x="305.71" y="181.57" width="68.82" height=".87" transform="translate(52.76 439.37) rotate(-70)"/>
      <rect class="st9" x="325.15" y="181" width="83.37" height=".87" transform="translate(23.66 404.41) rotate(-59.33)"/>
      <path class="st0" d="M361.76,119.16l-45.88-6.03-46.81,20.21s.5.03,1.39.11c5.71.54,27.61,3.37,39.83,15.9,0,0,18.78-8.45,38.55,5.46,0,0,24.67-10.85,40.94-4.85l-28.03-30.8h0Z"/>
      <path class="st7" d="M269.07,133.33s22.46-11.63,41.28,5.84c0,0,20.06-14.28,41.34,5.39,0,0,22.6-9.29,38.1,5.39,2.19-8.94-7.19-50.52-51.19-56.75-49.44-7-69.53,40.13-69.53,40.13Z"/>
      <path class="st2" d="M342.05,93.79c-1.13-.22-2.28-.41-3.46-.58-.32-.05-.64-.08-.97-.12-5.88,5.62-21.17,22.04-27.29,46.09,0,0,20.06-14.28,41.34,5.39,6.19-23.77-4.85-43.63-9.63-50.78h.01Z"/>
    </g>
    <rect class="st3" x="282.58" y="197.09" width="63.22" height="77.19" rx="3.34" ry="3.34" transform="translate(36.78 513.73) rotate(-81.94)"/>
    <path class="st6" d="M295.68,253.91c-7.67-3.64-14.97-8.52-20.88-15.17l-2.72,19.23c-.28,1.98.85,3.78,2.54,4.02l70.34,9.95c1.68.24,3.27-1.17,3.55-3.15l1.25-8.85c-18.23,4.05-37.25,1.95-54.07-6.02h0Z"/>
    <rect class="st3" x="307.74" y="164.73" width="20.86" height="85.55" rx="3.02" ry="3.02" transform="translate(68.11 493.44) rotate(-81.94)"/>
    <path class="st6" d="M360.92,210.89c-8.15,1.63-16.33,2.93-24.54,3.22-12.29.44-24.46-1.4-36.57-3.23-8.47-1.28-17.44-2.85-24.07-8.66l-.9,6.34c-.25,1.79.77,3.42,2.29,3.63l79.2,11.21c1.52.22,2.96-1.06,3.21-2.85l1.37-9.66h.01Z"/>
    <path class="st13" d="M329.2,242.77c-1.23,8.66-9.24,14.69-17.9,13.46-8.66-1.23-14.69-9.24-13.46-17.9,1.23-8.66,9.24-14.69,17.9-13.46s14.69,9.24,13.46,17.9Z"/>
    <path class="st2" d="M313.87,238.05s-2.63-8.97-9.59-5.19,5.02,15.89,7.7,18.54c0,0,16.5-8.37,12.75-14.25-4.66-7.31-10.86.89-10.86.89h0Z"/>
  </g>
  <g>
    <g>
      <rect class="st9" x="125.77" y="87.12" width=".64" height="61.71" transform="translate(-45.42 97.93) rotate(-36.43)"/>
      <rect class="st9" x="145.94" y="85.88" width=".64" height="46.82" transform="translate(-32.46 71.93) rotate(-24.96)"/>
      <rect class="st9" x="167.91" y="80.82" width=".64" height="50.44" transform="translate(-8.22 14.33) rotate(-4.76)"/>
      <rect class="st9" x="155.25" y="97.09" width="61.11" height=".64" transform="translate(69.81 272.22) rotate(-84.1)"/>
      <path class="st0" d="M105.99,95.44s.34-.13.96-.35c3.96-1.39,19.41-6.23,31.39-1.65,0,0,9.9-11.39,27.33-8.21,0,0,13.09-14.8,25.76-15.8l-28.11-11.89-32.38,10.07"/>
      <path class="st7" d="M105.99,95.44s11.38-14.64,29.26-8.79c0,0,8.97-15.66,29.17-9.11,0,0,12.19-13.12,27.01-8.11-1.29-6.62-20.3-31.42-51.49-22.05-35.05,10.52-33.95,48.05-33.95,48.05h0Z"/>
      <path class="st2" d="M142.42,46.72c-.82.2-1.64.42-2.48.68-.23.07-.45.14-.68.22-2.19,5.55-7.32,21.17-4.01,39.05,0,0,8.97-15.66,29.17-9.11-3.18-17.72-16.63-27.55-22-30.84h0Z"/>
    </g>
    <rect class="st3" x="139.17" y="126.52" width="56.57" height="46.34" rx="2.44" ry="2.44" transform="translate(-35.97 54.47) rotate(-16.71)"/>
    <path class="st6" d="M160.73,167.53c-6.22-.06-12.58-1.07-18.56-3.69l4.09,13.63c.42,1.4,1.73,2.25,2.92,1.89l49.87-14.97c1.19-.36,1.82-1.79,1.39-3.19l-1.88-6.27c-10.89,8.29-24.2,12.74-37.84,12.59h.01Z"/>
    <rect class="st3" x="130.1" y="122.06" width="62.71" height="15.29" rx="2.21" ry="2.21" transform="translate(-30.48 51.9) rotate(-16.71)"/>
    <path class="st6" d="M190.94,118.86c-4.92,3.59-9.97,6.96-15.34,9.68-8.05,4.06-16.71,6.58-25.33,9.08-6.03,1.75-12.48,3.46-18.68,1.63l1.35,4.5c.38,1.27,1.56,2.04,2.64,1.71l56.15-16.86c1.08-.32,1.64-1.62,1.26-2.89l-2.06-6.85h0Z"/>
    <path class="st13" d="M179.61,149.82c1.84,6.14-1.64,12.61-7.78,14.46-6.14,1.84-12.61-1.64-14.46-7.78-1.84-6.14,1.64-12.61,7.78-14.46,6.14-1.84,12.61,1.64,14.46,7.78Z"/>
    <path class="st2" d="M167.96,151.38s-4.5-5.16-7.97-.51,8.22,9.03,10.82,9.98c0,0,8.41-10.64,4.11-13.4-5.35-3.43-6.96,3.93-6.96,3.93h0Z"/>
  </g>
  <g>
    <g>
      <rect class="st9" x="452.93" y="36.76" width=".5" height="48.17" transform="translate(-4.02 54.57) rotate(-6.86)"/>
      <rect class="st9" x="451.96" y="62.47" width="36.55" height=".5" transform="translate(369.92 526.38) rotate(-85.39)"/>
      <rect class="st9" x="466.72" y="68.72" width="39.38" height=".5" transform="translate(219.85 481.64) rotate(-65.21)"/>
      <rect class="st9" x="477.84" y="69.66" width="47.71" height=".5" transform="translate(153.64 437.93) rotate(-54.53)"/>
      <path class="st0" d="M448.22,37.79s.28.04.79.13c3.23.58,15.58,3.24,21.95,10.97,0,0,11.11-3.92,21.72,4.96,0,0,14.59-5.01,23.58-.8l-14.51-18.91-25.87-5.63"/>
      <path class="st7" d="M448.22,37.79s13.37-5.55,23.26,5.31c0,0,12.12-7.18,23.31,5.05,0,0,13.33-4.22,21.47,4.9,1.68-4.99-1.68-29.15-26.47-34.81-27.86-6.36-41.57,19.55-41.57,19.55Z"/>
      <path class="st2" d="M491.73,18.74c-.63-.18-1.28-.34-1.94-.5-.18-.04-.36-.08-.54-.12-3.62,2.92-13.13,11.56-17.77,24.98,0,0,12.12-7.18,23.31,5.05,4.67-13.26-.68-25.11-3.06-29.42h0Z"/>
    </g>
    <rect class="st3" x="450.95" y="76.25" width="36.17" height="44.17" rx="1.91" ry="1.91" transform="translate(268.78 533.72) rotate(-77.14)"/>
    <path class="st6" d="M457.62,107.82c-4.2-2.44-8.13-5.57-11.18-9.65l-2.47,10.83c-.25,1.12.31,2.2,1.25,2.41l39.63,9.04c.95.22,1.92-.51,2.18-1.63l1.14-4.99c-10.59,1.44-21.34-.67-30.55-6.02h0Z"/>
    <rect class="st3" x="466.7" y="57.99" width="11.94" height="48.96" rx="1.73" ry="1.73" transform="translate(287.07 524.92) rotate(-77.14)"/>
    <path class="st6" d="M496.88,86.42c-4.73.54-9.45.89-14.15.66-7.03-.34-13.88-1.97-20.7-3.59-4.77-1.14-9.81-2.46-13.31-6.09l-.82,3.57c-.23,1.01.28,1.99,1.13,2.18l44.63,10.18c.86.2,1.74-.46,1.97-1.47l1.24-5.45h.01Z"/>
    <path class="st13" d="M477.27,103.08c-1.11,4.88-5.97,7.93-10.85,6.82s-7.93-5.97-6.82-10.85,5.97-7.93,10.85-6.82,7.93,5.97,6.82,10.85Z"/>
    <path class="st2" d="M468.75,99.65s-1.07-5.24-5.22-3.42,2.1,9.3,3.5,10.94c0,0,9.81-3.98,7.95-7.51-2.31-4.39-6.24-.01-6.24-.01h0Z"/>
  </g>
</svg>