<?xml version="1.0" encoding="UTF-8"?>
<svg xmlns="http://www.w3.org/2000/svg" version="1.1" xmlns:xlink="http://www.w3.org/1999/xlink" viewBox="0 0 647 496">
  <!-- Generator: Adobe Illustrator 29.6.0, SVG Export Plug-In . SVG Version: 2.1.1 Build 207)  -->
  <defs>
    <style>
      .st0 {
        fill: #f9f8f7;
      }

      .st1 {
        fill: url(#linear-gradient14);
      }

      .st1, .st2, .st3, .st4, .st5, .st6, .st7, .st8, .st9, .st10, .st11, .st12, .st13, .st14, .st15, .st16, .st17, .st18, .st19, .st20, .st21, .st22, .st23, .st24, .st25, .st26, .st27, .st28, .st29, .st30 {
        mix-blend-mode: multiply;
      }

      .st2 {
        fill: url(#linear-gradient24);
        opacity: .5;
      }

      .st3 {
        fill: url(#linear-gradient4);
      }

      .st31 {
        fill: #eeb226;
      }

      .st4 {
        fill: url(#linear-gradient6);
      }

      .st32 {
        fill: #fbe9d0;
      }

      .st5 {
        fill: url(#linear-gradient13);
      }

      .st33 {
        fill: #b93926;
      }

      .st34 {
        fill: #24150c;
      }

      .st35 {
        fill: #eecd99;
      }

      .st6 {
        fill: url(#linear-gradient1);
      }

      .st7, .st36 {
        fill: #eae2d6;
      }

      .st8 {
        fill: url(#linear-gradient21);
      }

      .st37 {
        fill: #e4ecf7;
      }

      .st38, .st16 {
        fill: #aa7d34;
      }

      .st9 {
        fill: url(#linear-gradient17);
      }

      .st39 {
        fill: #fff;
      }

      .st40 {
        fill: #55453f;
      }

      .st41 {
        fill: #fbc3aa;
      }

      .st42 {
        fill: #dbdad9;
      }

      .st43 {
        fill: #a87a30;
      }

      .st10 {
        fill: url(#linear-gradient16);
      }

      .st44 {
        fill: #282828;
      }

      .st11 {
        fill: url(#linear-gradient5);
      }

      .st45 {
        fill: #5e77ba;
      }

      .st12 {
        fill: url(#linear-gradient9);
      }

      .st46 {
        isolation: isolate;
      }

      .st47 {
        fill: #f26722;
      }

      .st48 {
        fill: #93877c;
      }

      .st49 {
        fill: #a09a92;
      }

      .st13 {
        fill: url(#linear-gradient10);
      }

      .st50 {
        fill: #7d8ec7;
      }

      .st51 {
        fill: #c6d0eb;
      }

      .st14 {
        fill: url(#linear-gradient2);
      }

      .st15 {
        fill: url(#linear-gradient8);
      }

      .st52 {
        fill: #bc9146;
      }

      .st16 {
        opacity: .4;
      }

      .st53, .st19 {
        fill: #f68b64;
      }

      .st54 {
        fill: #b3aba1;
      }

      .st55 {
        fill: #fcd1b9;
      }

      .st18 {
        fill: url(#linear-gradient7);
      }

      .st56 {
        fill: #99918b;
      }

      .st19 {
        opacity: .6;
      }

      .st57 {
        fill: #bd3b26;
      }

      .st20 {
        fill: url(#linear-gradient18);
      }

      .st21 {
        fill: url(#linear-gradient12);
      }

      .st22 {
        fill: url(#linear-gradient22);
      }

      .st23 {
        fill: url(#linear-gradient3);
      }

      .st58 {
        fill: none;
        stroke: #5e77ba;
        stroke-linecap: round;
        stroke-miterlimit: 10;
      }

      .st24, .st59 {
        fill: #d8d5d2;
      }

      .st25 {
        fill: url(#linear-gradient19);
      }

      .st26 {
        fill: url(#linear-gradient);
      }

      .st60 {
        fill: #f15b25;
      }

      .st61 {
        fill: #cea974;
      }

      .st62 {
        fill: #d3cabe;
      }

      .st63 {
        fill: #848382;
      }

      .st27 {
        fill: url(#linear-gradient11);
      }

      .st64 {
        fill: #5f5c5b;
      }

      .st65 {
        fill: #a0752c;
      }

      .st28 {
        fill: url(#linear-gradient20);
      }

      .st66 {
        fill: #dd4726;
      }

      .st29 {
        fill: url(#linear-gradient23);
      }

      .st30 {
        fill: url(#linear-gradient15);
      }
    </style>
    <linearGradient id="linear-gradient" x1="439.79" y1="320.1" x2="336.64" y2="371.32" gradientUnits="userSpaceOnUse">
      <stop offset="0" stop-color="#fff" stop-opacity="0"/>
      <stop offset="1" stop-color="#eac7aa"/>
    </linearGradient>
    <linearGradient id="linear-gradient1" x1="97.68" y1="302.51" x2="111.55" y2="354.26" xlink:href="#linear-gradient"/>
    <linearGradient id="linear-gradient2" x1="191.76" y1="154.87" x2="218.48" y2="175.08" gradientUnits="userSpaceOnUse">
      <stop offset="0" stop-color="#fff" stop-opacity="0"/>
      <stop offset="1" stop-color="#eebaab"/>
    </linearGradient>
    <linearGradient id="linear-gradient3" x1="763.93" y1="-1253.74" x2="917.9" y2="-1404.19" gradientTransform="translate(1570.81 1062.25) rotate(-92.26)" xlink:href="#linear-gradient2"/>
    <linearGradient id="linear-gradient4" x1="289.6" y1="135.04" x2="173.59" y2="204.52" xlink:href="#linear-gradient2"/>
    <linearGradient id="linear-gradient5" x1="253.76" y1="150.65" x2="253.76" y2="117.46" xlink:href="#linear-gradient2"/>
    <linearGradient id="linear-gradient6" x1="253.76" y1="150.65" x2="253.76" y2="117.46" xlink:href="#linear-gradient2"/>
    <linearGradient id="linear-gradient7" x1="253.51" y1="259.36" x2="259.09" y2="257.23" gradientTransform="translate(45.23 -197.2) rotate(12.86)" xlink:href="#linear-gradient2"/>
    <linearGradient id="linear-gradient8" x1="253.91" y1="259.05" x2="257.74" y2="257.59" gradientTransform="translate(45.23 -197.2) rotate(12.86)" xlink:href="#linear-gradient2"/>
    <linearGradient id="linear-gradient9" x1="9027.8" y1="259.7" x2="9033.42" y2="257.55" gradientTransform="translate(9131.63 1876.36) rotate(-167.14) scale(1 -1)" xlink:href="#linear-gradient2"/>
    <linearGradient id="linear-gradient10" x1="9028.18" y1="259.41" x2="9032.12" y2="257.9" gradientTransform="translate(9131.63 1876.36) rotate(-167.14) scale(1 -1)" xlink:href="#linear-gradient2"/>
    <linearGradient id="linear-gradient11" x1="306.49" y1="418.99" x2="304.24" y2="427.37" gradientTransform="translate(127.43 -354.67) rotate(22.01)" xlink:href="#linear-gradient2"/>
    <linearGradient id="linear-gradient12" x1="352.57" y1="146.84" x2="311.97" y2="183.16" xlink:href="#linear-gradient2"/>
    <linearGradient id="linear-gradient13" x1="121.85" y1="402.47" x2="122.11" y2="419.01" xlink:href="#linear-gradient"/>
    <linearGradient id="linear-gradient14" x1="2547.38" y1="141.19" x2="2547.38" y2="108.31" gradientTransform="translate(3001.94) rotate(-180) scale(1 -1)" xlink:href="#linear-gradient2"/>
    <linearGradient id="linear-gradient15" x1="2547.38" y1="143.69" x2="2547.38" y2="110.81" gradientTransform="translate(3001.94) rotate(-180) scale(1 -1)" xlink:href="#linear-gradient2"/>
    <linearGradient id="linear-gradient16" x1="2548.71" y1="-63.95" x2="2554.26" y2="-66.07" gradientTransform="translate(3014.72 -95.4) rotate(173.99) scale(1 -1)" xlink:href="#linear-gradient2"/>
    <linearGradient id="linear-gradient17" x1="2549.1" y1="-64.25" x2="2552.92" y2="-65.71" gradientTransform="translate(3014.72 -95.4) rotate(173.99) scale(1 -1)" xlink:href="#linear-gradient2"/>
    <linearGradient id="linear-gradient18" x1="6732.97" y1="-63.28" x2="6738.53" y2="-65.4" gradientTransform="translate(-6253.68 879.69) rotate(-6.01)" xlink:href="#linear-gradient2"/>
    <linearGradient id="linear-gradient19" x1="6733.34" y1="-63.57" x2="6737.24" y2="-65.06" gradientTransform="translate(-6253.68 879.69) rotate(-6.01)" xlink:href="#linear-gradient2"/>
    <linearGradient id="linear-gradient20" x1="-790.6" y1="134.88" x2="-792.86" y2="143.25" gradientTransform="translate(1228.07) scale(.97 1)" xlink:href="#linear-gradient2"/>
    <linearGradient id="linear-gradient21" x1="2440.95" y1="290.08" x2="2581.68" y2="171.57" gradientTransform="translate(3001.94) rotate(-180) scale(1 -1)" xlink:href="#linear-gradient2"/>
    <linearGradient id="linear-gradient22" x1="2641.88" y1="176.08" x2="2465.32" y2="196.8" gradientTransform="translate(3001.94) rotate(-180) scale(1 -1)" xlink:href="#linear-gradient2"/>
    <linearGradient id="linear-gradient23" x1="2552.16" y1="108.36" x2="2540.77" y2="58.9" gradientTransform="translate(2989.82 -66.37) rotate(176.21) scale(1 -1)" xlink:href="#linear-gradient2"/>
    <linearGradient id="linear-gradient24" x1="2529.12" y1="44.99" x2="2555.96" y2="105.56" gradientTransform="translate(3001.94) rotate(-180) scale(1 -1)" gradientUnits="userSpaceOnUse">
      <stop offset="0" stop-color="#fff" stop-opacity="0"/>
      <stop offset="1" stop-color="#bac4e1"/>
    </linearGradient>
  </defs>
  <g class="st46">
    <g id="Layer_1">
      <g id="BACK">
        <g>
          <polygon class="st39" points="471.32 156.55 452.38 157.35 452.23 253.8 471.32 156.55"/>
          <polygon class="st39" points="489.08 280.79 506.25 155.06 495.71 155.51 478.87 280.79 489.08 280.79"/>
        </g>
        <g class="st17">
          <path class="st37" d="M308.49,186.86s0,0,0,0h0ZM308.14,188.05l-.05-1.23.4.05c-.11.39-.23.79-.35,1.18ZM262.19,125.38h0s.01,0,.01,0c0,0,0,0-.01,0ZM239.18,150.89c-.65.12-1.32.24-2.02.37l2.01-.4v-.06s0,.07,0,.1ZM310.21,337.42h33.72s0,0,0,0h-33.72Z"/>
          <polygon class="st37" points="98.84 247.73 98.84 250.14 143.51 251.17 143.78 250.2 98.84 247.73"/>
          <path class="st37" d="M434.44,295.48l2.01,7.05,3.63-.76h0s3.71-.78,3.71-.78l-1.14,2.6.37,2.65-9.56,2.01c.32-4.46.65-8.75.98-12.77ZM515.55,174.1l-.2.02.2-.04s0,.01,0,.02ZM449.23,142.33s-.06-.01-.1-.02c.45-.18.88-.36,1.3-.56l-1.21.58ZM399.5,175.93h0s.03-.04.03-.04c0,0,0,0,0,0l.86-1.28c.34,5.79.65,10.17.65,10.17-1.12,9.38-1.48,22.59-1.54,34.53,0,0-.01,0-.02,0h.01s-5.21-20.89-11.49-29.38c3.42-3.21,7.26-7.74,11.49-13.98ZM398.9,228.61l.62.05v.02l-.61-.04s0-.01,0-.02Z"/>
        </g>
      </g>
      <g id="PEOPLE">
        <g>
          <polygon class="st38" points="324.78 416.96 319.68 416.96 314.34 334.4 321.13 333.41 324.78 416.96"/>
          <g>
            <g>
              <polygon class="st52" points="402.81 334.39 396.93 417.67 324.78 416.95 320.75 334.39 402.81 334.39"/>
              <polygon class="st35" points="366.98 417.37 369.07 380 367.33 381.56 365.95 379.97 364.75 382.21 363.16 379.94 361.43 381.51 359.2 379.15 357.67 381.47 355.43 380.3 357.42 417.28 366.98 417.37"/>
            </g>
            <polygon class="st52" points="402.81 334.39 402.31 333.39 365.5 333.39 365.5 334.39 402.81 334.39"/>
            <polygon class="st52" points="320.75 334.39 321.13 333.39 364.97 332.95 364.97 334.39 320.75 334.39"/>
            <polygon class="st35" points="371.01 332.95 369.77 371.37 368.7 370.48 367.19 373.85 366.21 367.19 363.63 371.01 360.79 369.23 359.28 371.19 358.12 369.76 356.16 372.97 356.16 332.33 365.5 331.97 365.5 332.95 371.01 332.95"/>
          </g>
        </g>
        <path class="st26" d="M347.11,383.83s-.43-.56-1.21-1.57c.8-1.01,1.21-1.69,1.21-1.69-11.39-14.41-23.74-32.02-32.7-45.18l2.39,36.94c10.91,9.69,19.67,17.31,19.67,17.31.64-.27,1.24-.58,1.83-.9.66.57,1.31,1.14,1.96,1.7,0,0,4.48,8.47,6.85,20.74l1.9.96s5.48-3.83,9.4-8.13c0,0-.31-8.93-2.35-17.54l-8.95-2.64Z"/>
        <g>
          <g>
            <g>
              <polygon class="st52" points="61.86 244.9 66.67 345.25 144.16 344.54 148.19 244.9 61.86 244.9"/>
              <polygon class="st35" points="99.83 344.95 97.74 310.79 99.48 312.35 100.85 310.75 102.06 313 103.65 310.73 105.38 312.29 107.61 309.94 109.14 312.25 111.38 311.08 109.39 344.86 99.83 344.95"/>
            </g>
            <polygon class="st52" points="61.86 244.9 61.68 243.87 100.24 239.64 100.24 241.7 61.86 244.9"/>
            <polygon class="st52" points="148.19 244.9 148.47 243.89 101.84 241.33 101.84 243.83 148.19 244.9"/>
          </g>
          <polygon class="st6" points="66.67 345.25 144.29 344.95 145.11 321.05 66.26 336.52 66.67 345.25"/>
          <path class="st41" d="M156.52,216.52s-4.4-1.65-5.27-1.22c-.87.42-1.75,2.81-1.75,2.81,0,0-7.95-.45-7.67,1.04.27,1.49,1.8,3.33,1.8,3.33,0,0-.88,1.69-.33,3.41.55,1.71,2.97,2.24,2.97,2.24,0,0,.24,1.34.81,2.42.57,1.08,3.58.63,3.58.63,0,0,.62,1.53,1.54,1.61.92.08,9.51-8.14,9.51-8.14"/>
          <g>
            <polygon class="st49" points="134.94 207.83 132.36 207.07 134.39 206.31 134.94 207.83"/>
            <path class="st35" d="M160.76,201.2c.58,6.72-4.39,12.65-11.11,13.24-6.72.59-12.65-4.39-13.24-11.11-.59-6.72,4.39-12.65,11.11-13.23,6.72-.59,12.65,4.39,13.24,11.11Z"/>
            <path class="st32" d="M136.8,203.73c-.59-6.72,4.39-12.65,11.11-13.24,3.71-.32,7.18,1.05,9.64,3.48-2.48-2.67-6.11-4.23-10.03-3.89-6.72.59-11.7,6.51-11.11,13.23.26,3.01,1.6,5.66,3.6,7.63-1.78-1.92-2.96-4.42-3.21-7.23Z"/>
            <path class="st43" d="M158.08,201.61c.45,5.14-3.35,9.67-8.49,10.12-5.14.45-9.67-3.36-10.12-8.49-.45-5.14,3.35-9.67,8.49-10.12,5.14-.45,9.67,3.35,10.11,8.49Z"/>
            <path class="st52" d="M157.89,201.45c.45,5.14-3.36,9.67-8.49,10.12-5.14.45-9.67-3.36-10.12-8.49-.45-5.14,3.35-9.67,8.49-10.12,5.14-.45,9.67,3.36,10.12,8.49Z"/>
            <path class="st54" d="M156.59,201.57c.38,4.42-2.88,8.31-7.3,8.7-4.42.39-8.31-2.88-8.7-7.3-.39-4.42,2.88-8.31,7.3-8.7,4.42-.38,8.31,2.89,8.7,7.3Z"/>
            <path class="st48" d="M140.77,203.12c-.39-4.42,2.88-8.31,7.3-8.7,2.16-.19,4.2.5,5.76,1.78-1.58-1.37-3.7-2.13-5.95-1.93-4.42.39-7.69,4.28-7.3,8.7.2,2.25,1.31,4.2,2.93,5.53-1.52-1.32-2.56-3.2-2.75-5.37Z"/>
            <path class="st7" d="M148.97,200.65l-7.09,7.1-4.24-4.36-1.12.75c.98,6.3,6.68,10.86,13.12,10.3.59-.05,1.16-.16,1.72-.29l-3.12-9.75,1.92-2.09-1.2-1.65Z"/>
            <path class="st36" d="M134.39,206.31s0,5.96,4.22,8.22l5.7,1.08,8.28,16.63s1.96.36,3.89-1.57l-8.19-25.57,1.92-2.09-1.2-1.65-7.09,7.1-4.24-4.36-3.31,2.22Z"/>
            <path class="st0" d="M152.76,231.78l-8.28-16.63-5.7-1.08c-3.63-1.94-4.14-6.61-4.21-7.88l-.18.12s0,5.96,4.22,8.22l5.7,1.08,8.28,16.63s1.96.36,3.89-1.57l-.08-.24c-1.85,1.66-3.65,1.36-3.65,1.36Z"/>
            <path class="st66" d="M144.41,216.71s4.17-1.76,6.59-4.14l5.41,17.17s-1.49,1.65-4.51,1.91"/>
            <polygon class="st62" points="148.31 205.09 146.16 207.12 148.45 205.56 148.31 205.09"/>
            <polygon class="st62" points="141.94 208.45 140.91 209.5 137.26 204.38 137.7 204.09 141.94 208.45"/>
            <path class="st54" d="M149.28,202.85c.02.26-.17.48-.42.5-.26.02-.48-.17-.5-.42-.02-.26.17-.48.42-.5.25-.02.48.17.5.42Z"/>
            <polyline class="st32" points="141.63 192.22 61.24 243.51 61.86 258.68 62.51 258.51 61.86 243.86 138.76 195"/>
            <path class="st57" d="M151,212.57c-.72.7-1.59,1.35-2.46,1.92.66,1.09,1.31,2.29,1.92,3.59,2.83,6.02,3.68,11.58,1.91,12.41-.3.14-.65.13-1.04,0l.58,1.16c3.01-.26,4.51-1.91,4.51-1.91l-5.41-17.17Z"/>
          </g>
          <path class="st39" d="M219.77,237.26s-27.12,68.05-29.29,78.44c-2.17,10.4-5.18,58.88-4.84,89.13h11.1s16.64-80.15,20.59-89.13c3.95-8.98,32.06-51.51,34.03-53.87,0,0,18.59,68.04,20.73,70.88,2.13,2.83,35.29,35.39,62.12,58.55l6.85-6.62s-46.45-60.18-47.53-66.33c-1.08-6.14-5.4-79.16-5.4-79.16"/>
          <path class="st41" d="M286.88,145.57s40.42,15.32,45.43,23.3c5.01,7.97-2.04,16.66-42.54.68"/>
          <path class="st41" d="M225.55,144.54s-8.57,3.22-11.05,6.14c-2.48,2.91-22.91,46.81-17.75,51.67,5.15,4.86,16.8,5.44,28.06-26.03"/>
          <path class="st14" d="M218.37,191.01l.58-1.08c.12-.24.26-.48.39-.74l.99-28.96-2.05,30.94c.03-.06.06-.11.09-.16Z"/>
          <path class="st47" d="M225.55,144.54s-8.57,3.22-11.05,6.14c-.96,1.13-4.62,8.42-8.44,17.2,2.63.5,10.65,2.37,16.64,7.46.83.71,1.54.74,2.12.26l.73-31.06Z"/>
          <path class="st41" d="M198.9,186.25s-25.25,19.54-42.76,30.27l3.97,8.97s54.68-17.12,53.09-29.94c-1.59-12.82-9.77-12.54-14.29-9.3Z"/>
          <path class="st23" d="M149.49,218.11s2.02,5.6,4.42,5.81c2.4.21,1.46-4.02,1.46-4.02,0,0,.28,3.43-1.33,3.57-1.61.14-4.31-5.94-4.31-5.94l-.23.58Z"/>
          <path class="st3" d="M199.29,186.25s3.1-1.05,7.87,1.03"/>
          <path class="st41" d="M142.74,218.4s5.87-1.73,7.4,0c1.53,1.73-2.18,4.33-2.18,4.33,0,0,2.88-1.69,4.04-.57,1.16,1.13-1.44,4.06-1.44,4.06,0,0,3.6-2.14,4.43-.96.83,1.18-1.83,3.16-1.83,3.16,0,0,2.99-1.63,3.6-1.07.61.56-.75,2.96-2.98,4.41,0,0-.9.65-1.59,1.02s-1.54-1.61-1.54-1.61l-7.91-12.77Z"/>
          <path class="st41" d="M153.99,218.02s2.08-.79,1.29,3.83c-.8,4.61-5.07-1.47-5.45-2.67-.38-1.2.68-3.11.68-3.11,0,0,.88-1.68,3.34-.42"/>
          <path class="st41" d="M286.37,187.02l4.18-39.44c-3.36-3.42-27.45-6.15-35.13-7.65v-.57s-.54.1-1.51.28c-.96-.18-1.51-.28-1.51-.28v.57c-7.68,1.5-25.88,4.23-29.24,7.65l-2.27,39.44s1.22,26.57.38,52.96c17.22,1.89,17.09.1,33.39.11l.1,1.59h.18c18.11,0,33.49-1.7,33.49-1.7-.84-26.39-2.05-52.96-2.05-52.96Z"/>
          <path class="st41" d="M260.08,140.33c0,3.55-2.83,6.43-6.32,6.43h0c-3.49,0-6.32-2.88-6.32-6.43v-10.97c0-3.55,2.83-6.43,6.32-6.43h0c3.49,0,6.32,2.88,6.32,6.43v10.97Z"/>
          <path class="st11" d="M248.21,126.27c-.49.92-.77,1.97-.77,3.08v5.85c2.27,2.34,7.57,6.56,12.64,1.67v-7.52c0-1.68-.64-3.21-1.68-4.36l-10.19,1.27Z"/>
          <path class="st4" d="M248.21,126.27c-.49.92-.77,1.97-.77,3.08v5.85c2.27,2.34,7.57,6.56,12.64,1.67v-7.52c0-1.68-.64-3.21-1.68-4.36l-10.19,1.27Z"/>
          <path class="st55" d="M239.86,109.31s-.87-4.27-4.11-3.31c-3.24.96-4.67,10.26,2.28,11.53"/>
          <path class="st18" d="M239.86,109.31s-.87-4.27-4.11-3.31c-3.24.96-4.67,10.26,2.28,11.53"/>
          <path class="st15" d="M238.69,109.96s-.59-2.93-2.82-2.28c-2.23.66-3.22,7.05,1.56,7.93"/>
          <path class="st55" d="M269.13,116.1s2.61-3.46,5.13-1.16c2.52,2.3-.16,11.31-6.97,9.38"/>
          <path class="st12" d="M269.13,116.1s2.61-3.46,5.13-1.16c2.52,2.3-.16,11.31-6.97,9.38"/>
          <path class="st13" d="M269.87,117.16s1.82-2.43,3.59-.81c1.76,1.61-.11,7.92-4.88,6.58"/>
          <path class="st41" d="M269.17,122.93c-2.04,9.05-14.23,13.93-19.78,12.64h0c-5.44-1.26-14.45-11.07-12.42-20.12l3.31-14.75c2.03-9.05,10.88-14.71,19.77-12.64h0c8.89,2.06,14.45,11.07,12.42,20.12l-3.31,14.75Z"/>
          <path class="st27" d="M250.08,152.68s.29,3.6,2.72.21"/>
          <path class="st47" d="M291.49,246.7c-2.41-19.73-3.44-59.67-3.44-59.67l3.83-39.02c-3.08-3.37-25.12-7.06-25.12-7.06,0,0-4.84,13.68-16.01,16.91-7.72-6.98-9.55-16.91-9.55-16.91,0,0-17.56,2.64-19.39,5.8-1.28,2.2-2.38,41.4-2.38,41.4-.78,7.89-3.96,53.16-3.96,53.16,0,0,29.59-2.4,76.03,5.39Z"/>
          <path class="st31" d="M273.6,188.39"/>
          <path class="st31" d="M231.5,184.12"/>
          <path class="st60" d="M219.88,173.26l.45-13.03-.84,12.77c.13.09.26.17.39.26Z"/>
          <path class="st34" d="M240.04,101.76l1.14.48s-2.5,5.56-2.98,7.71c0,0,1.16-8.12,1.83-8.19Z"/>
          <path class="st47" d="M286.88,145.57l2.89,23.97s5.96,2.76,8.7,3.71c.49-2.51,3.92-15.76,8.85-20.09-10.31-4.59-20.44-7.59-20.44-7.59Z"/>
          <path class="st31" d="M289.77,169.54l-2.39-1.14s.71,2.27,2.12,3.89"/>
          <path class="st21" d="M319.38,178.18s.4-2.77,2.43-5.4c0,0-2.29,1.35-3.22,5.3"/>
          <path class="st60" d="M266.76,140.96s-4.84,13.68-16.01,16.91c-1.77-1.6-3.23-3.36-4.43-5.12l-4.42,8.15s.47,1.91,1.49,3.59c0,0,4.31-4.54,7.36-6.06,0,0,7.21,2.95,11.52,8.85,0,0,6.31-10.61,6.65-25.94-1.34-.25-2.16-.38-2.16-.38Z"/>
          <path class="st39" d="M250.75,157.87s-5.01,1.99-9.48,5.9c0,0-3.92-15.39-1.33-23.6l7.5-.81.02,1.44-5.96,1.2s1.88,9.09,9.25,15.87Z"/>
          <path class="st39" d="M250.75,157.87s6.74,2.31,11.59,7.17c0,0,5.88-11.32,5.72-24.63l-7.98-1.27-.09,1.67,6.03,1.11s-4.31,10.76-15.28,15.94Z"/>
          <path class="st39" d="M250.75,163.28c0,.68-.46,1.24-1.02,1.24s-1.02-.56-1.02-1.24.45-1.24,1.02-1.24,1.02.55,1.02,1.24Z"/>
          <path class="st39" d="M251.05,171.05c0,.69-.46,1.24-1.02,1.24s-1.02-.56-1.02-1.24.46-1.24,1.02-1.24,1.02.56,1.02,1.24Z"/>
          <path class="st40" d="M253.61,116.62c-.09.6.17,1.14.57,1.2.41.06.81-.37.91-.97.09-.6-.17-1.14-.58-1.2-.41-.06-.81.37-.9.97Z"/>
          <path class="st40" d="M243.99,114.76c-.08.55.15,1.03.52,1.09.37.06.74-.34.82-.88.08-.55-.15-1.04-.52-1.1-.37-.06-.74.34-.82.88Z"/>
          <path class="st34" d="M256.86,112.75c-.19,0-.37-.12-.44-.31-.14-.37-.65-1.38-1.38-1.63-.37-.12-.76-.05-1.19.24-.21.14-.51.08-.65-.15-.14-.22-.08-.52.14-.66.69-.44,1.36-.55,2-.34,1.3.44,1.94,2.13,1.96,2.2.09.25-.03.52-.27.62-.06.02-.11.03-.17.03Z"/>
          <path class="st34" d="M243.46,110.64c-.1,0-.21-.03-.29-.1-.2-.16-.23-.46-.07-.67.65-.83,1.34-1.23,2.02-1.21.88.04,1.38.79,1.41.83.14.22.08.52-.13.66-.21.14-.5.09-.65-.13-.01-.01-.28-.39-.67-.4-.38,0-.8.28-1.24.85-.09.12-.23.18-.37.18Z"/>
          <path class="st39" d="M252.54,123.68s-2.17,1.01-4.57-.11c0,0,1.58,5.18,4.57.11Z"/>
          <path class="st53" d="M249.61,120.24s-.07,0-.1-.02c-.21-.06-2.06-.64-2.62-1.55l-.11-.18.1-.18s1.06-2.02,1.26-3.39c.03-.2.2-.33.4-.3.19.03.32.21.3.41-.19,1.23-.95,2.84-1.24,3.41.48.51,1.66.96,2.11,1.09.19.06.29.25.24.45-.05.16-.19.26-.34.26Z"/>
          <path class="st45" d="M185.64,404.83s-7.98,7.81-18.32,8.93l1.73,3.67h29.14l-1.44-12.6h-11.1Z"/>
          <path class="st39" d="M192.43,403.8s2.46,10.16,3.29,0"/>
          <path class="st45" d="M334.21,391.27s4.48,8.46,6.85,20.74l1.9.95s5.48-3.83,9.4-8.13c0,0-.31-8.93-2.35-17.54l-8.95-2.64-6.85,6.62Z"/>
          <path class="st39" d="M338.44,385.92s11.16,5.6,1.64-1.27"/>
          <path class="st60" d="M232.26,142.66c-1.45.33-2.92.7-4.28,1.1-.22,18.02,1.74,51.31,1.74,51.31h1.73"/>
          <path class="st60" d="M286.52,145.45c-1.46-.48-3.1-.93-4.79-1.37-9.24,30.11-14.06,53.01-14.06,53.01l1.67.67c5.56-23.17,15.21-47.47,17.17-52.31Z"/>
          <path class="st34" d="M269.78,120.24s-1.72-5.21-.86-12.66c0,0-6.61.91-8.12-5.31-1.51-6.23-21.07,5.87-25.43-1.69-4.36-7.56,8.61-10.31,8.61-10.31,0,0-3.01-1.96-1.76-3.2,1.25-1.25,3.56,3.02,3.56,3.02,0,0,1.51-8.54,9.34-8.8,7.83-.27,9.69,7.74,9.69,7.74,0,0,11.61,5.69,10.38,9.6,0,0,1.71-.18,2.15.44.44.62-2.15.62-2.15.62,0,0,1.55.75,2.2,2.07.66,1.31-2.2-.55-2.2-.55,0,0,1.09,1.15,1.17,2.4.09,1.24-3.97,10.55-3.97,10.55l-1.04.21s-.37,3.2-1.57,5.87Z"/>
          <path class="st31" d="M291.49,246.7c-.7-5.71-1.28-13.1-1.75-20.73-4.77-.91-10.76-1.91-10.76-1.91-.36-6.22-2.13-25.96-2.13-25.96-23.65-3.56-48.73-4.27-48.73-4.27-1.07,5.16-4.09,24.19-4.09,24.19-2.49.53-6.66,2.31-6.66,2.31l-1.46,14.67c-.27,3.86-.45,6.32-.45,6.32,0,0,29.59-2.4,76.03,5.39Z"/>
          <path class="st50" d="M215.81,219.38s4.17-1.78,6.66-2.31c0,0,3.02-19.03,4.09-24.19,0,0,25.08.71,48.73,4.27,0,0,1.78,19.74,2.13,25.96,0,0,8.28,1.38,13.12,2.38,0,0,3.13,50.77,5.02,91.52,0,0,24.4,37.7,45.5,64.38,0,0-3.71,6.14-10.65,9.07,0,0-59.49-51.75-61.62-57.09-2.13-5.33-21.07-65.36-21.07-65.36,0,0-24.01,39.85-28.28,47.22-4.27,7.37-20.27,88.56-20.27,88.56,0,0-7.83.18-15.12-1.78,0,0,2.31-78.25,4.18-85.99,1.87-7.74,24.99-70.69,24.99-70.69l2.59-25.97Z"/>
          <polygon class="st45" points="247.72 268.02 235.32 261.61 245.2 272.21 247.72 268.02"/>
          <path class="st45" d="M231.18,201.02s-3.07,17.24-4,29.25c0,0,16.81,1.6,43.35,4.93,0,0-.4-21.87-1.33-31.48,0,0-20.14-2.61-38.01-2.7Z"/>
          <path class="st58" d="M243.59,229.07s-1.47,8.46-1.6,17.63c0,0,1.87.64,5.74,2.11"/>
          <path class="st58" d="M274.53,241.68s2.93,10.73,14.14,10.86"/>
          <path class="st45" d="M278.84,333.71s-2.51,1.8-6.65,1.48"/>
          <path class="st50" d="M228.92,195.06s-2-34.01-1.73-51.88c0,0,1.57-.53,4.32-1.07,0,0-1.78,22.54-.85,52.95h-1.73Z"/>
          <path class="st50" d="M266.4,197.06s4.93-23.48,14.41-54.15l4.8,1.63s-11.32,27.31-17.53,53.19"/>
          <path class="st7" d="M290.54,225.49c-.27-.06-.56-.11-.85-.17-1.14-18.57-1.65-38.28-1.65-38.28l2.54-25.89-59.99,7.78v-1.04l-21.69-6.35c-.3.65-.6,1.31-.91,1.99l21.9,5.81,17.07,69.61,44.02-6.15c-.28-4.62-.44-7.3-.44-7.3Z"/>
          <g>
            <polygon class="st52" points="232.3 164.19 249.44 234.1 320.9 224.12 317.92 153.09 232.3 164.19"/>
            <polygon class="st52" points="232.3 164.19 201.19 156.22 202.33 154.04 233.08 163.04 232.3 164.19"/>
            <polygon class="st52" points="317.92 153.09 323.93 115.94 321.66 115.24 316.03 152.48 317.92 153.09"/>
            <polygon class="st35" points="279.11 229.96 272.24 193.16 274.16 194.49 275.32 192.73 276.8 194.8 278.09 192.35 280.01 193.67 281.92 191.05 283.73 193.15 285.8 191.7 288.58 228.63 279.11 229.96"/>
          </g>
          <path class="st41" d="M328.2,171.32s-3.23,1.1-8.74,6.59c-2.53,8.72-5.58,16.86-5.58,16.86l7.51,7.31s12.89-13.18,15.58-27.41c0,0-1.93-5.91-13.24-12.46"/>
          <path class="st41" d="M314.75,193.74s-8.1-4.42-9.42-2c-1.32,2.42,6.67,4.46,6.67,4.46,0,0-13.84,6.44-11.97,8.61,1.88,2.17,12.31-4.69,12.31-4.69,0,0-9.47,9.23-7.9,11.05,1.57,1.82,9.7-8.69,9.7-8.69,0,0-4.71,10.93-3.32,12.53,1.39,1.61,5.75-10.86,5.75-10.86,0,0-.98,10.44.68,10.94,1.66.5,4.57-14.9,4.57-14.9"/>
          <g>
            <g>
              <polygon class="st52" points="77.57 345.75 85.58 417.29 157.73 416.58 163.9 345.75 77.57 345.75"/>
              <polygon class="st35" points="115.54 416.99 113.45 379.62 115.18 381.19 116.56 379.59 117.76 381.84 119.35 379.57 121.09 381.13 123.32 378.77 124.84 381.09 127.09 379.92 125.09 416.9 115.54 416.99"/>
            </g>
            <polygon class="st52" points="77.57 345.75 78.06 344.75 117.01 344.75 117.01 345.75 77.57 345.75"/>
            <polygon class="st52" points="163.9 345.75 163.52 344.75 117.54 344.31 117.54 345.75 163.9 345.75"/>
            <polygon class="st35" points="111.5 344.31 112.74 370.99 113.81 370.1 115.32 373.48 116.3 366.81 118.88 370.63 121.72 368.85 123.24 370.81 124.39 369.39 126.35 372.59 126.35 343.69 117.01 343.33 117.01 344.31 111.5 344.31"/>
          </g>
          <polygon class="st5" points="85.58 417.29 157.73 416.58 158.65 406.05 85.3 414.77 85.58 417.29"/>
        </g>
        <g>
          <path class="st39" d="M422.49,400.74s-6.23,8.86-3.53.72"/>
          <g>
            <path class="st47" d="M417.23,135.66s-7.63,1.05-12.19,4.86c-4.55,3.81-22.54,30.91-23.67,39.21-1.14,8.3,12.21,20.9,36.99-20"/>
            <path class="st47" d="M487.5,135.66s7.63,1.05,12.19,4.86c4.55,3.81,22.54,30.91,23.67,39.21,1.14,8.3-12.21,20.9-36.99-20"/>
            <path class="st55" d="M419.13,177.22l-1.71-39.07c3.39-3.39,27.67-6.1,35.42-7.58v-.57s.55.1,1.53.28c.97-.18,1.53-.28,1.53-.28v.57c7.74,1.49,32.3,4.19,35.69,7.58l-.6,39.07s7.71,50.93-2.77,61c0,0-15.5,1.67-33.75,1.69h-.18c-18.25-.01-33.76-1.69-33.76-1.69-9.75-7.15-1.38-61-1.38-61Z"/>
            <path class="st39" d="M416.45,222.18l77.09-3.23c1.09,27.5-12.19,186.61-12.19,186.61h-8.95s-10.41-139.41-17.38-151.89c-.86.06-1.51-.02-1.98-.14-3.46,5.76-5.59,42.49-9.96,78.02-4.43,36.08-15.14,70.95-15.14,70.95l-8.95-1.02s3.47-31.55,1.81-69.33c-1.94-44.04-4.92-95.16-4.33-109.96Z"/>
            <path class="st50" d="M493.88,234.92s-2.1,62.29-8.1,167.9h-18.75s-7.29-142.03-12.29-143.24c-2.37-.57-4.97,31.34-7.05,65.19-6.4,44.93-14.24,74.99-14.24,74.99l-17.19-1.02s2.4-31.85,3.12-73.68c-2.49-40.13-3.89-82.77-3.6-92.79"/>
            <path class="st45" d="M454.65,248.5s.06,0,.09-.01l2.78-.6.1-.15c.64-1.03.89-10.33.94-12.18,0-.24-.18-.43-.41-.43-.23,0-.43.18-.43.41-.12,5.02-.42,10.52-.75,11.61l-2.4.52c-.23.05-.37.27-.33.5.04.2.22.33.41.33Z"/>
            <path class="st45" d="M454.33,245.39s.03,0,.04,0c.23-.02.4-.23.38-.46l-.92-9.26c-.02-.23-.23-.41-.46-.38-.23.02-.4.23-.38.46l.92,9.26c.02.22.21.38.42.38Z"/>
            <path class="st55" d="M492.31,226.94"/>
            <path class="st55" d="M446.74,130.96c0,3.52,3.5,6.37,7.82,6.37h0c4.31,0,7.81-2.85,7.81-6.37v-10.87c0-3.52-3.5-6.37-7.81-6.37h0c-4.32,0-7.82,2.85-7.82,6.37v10.87Z"/>
            <path class="st1" d="M461.42,117.03c.61.91.96,1.95.96,3.05v5.8c-2.82,2.32-9.37,6.5-15.63,1.65v-7.45c0-1.67.79-3.18,2.08-4.32l12.59,1.26Z"/>
            <path class="st30" d="M461.42,119.54c.61.91.96,1.95.96,3.05v5.8c-2.82,2.32-9.37,6.5-15.63,1.65v-7.45c0-1.67.79-3.18,2.08-4.32l12.59,1.26Z"/>
            <path class="st55" d="M468.52,104.56s1.36-4.05,4.46-2.73c3.1,1.32,3.43,10.53-3.59,10.94"/>
            <path class="st10" d="M468.52,104.56s1.36-4.05,4.46-2.73c3.1,1.32,3.43,10.53-3.59,10.94"/>
            <path class="st9" d="M469.61,105.33s.94-2.78,3.07-1.88c2.13.91,2.36,7.24-2.47,7.52"/>
            <path class="st55" d="M439.66,107.6s-2.18-3.67-4.93-1.74c-2.76,1.93-1.16,11.01,5.79,9.95"/>
            <path class="st20" d="M439.66,107.6s-2.18-3.67-4.93-1.74c-2.76,1.93-1.16,11.01,5.79,9.95"/>
            <path class="st25" d="M438.79,108.53s-1.52-2.58-3.45-1.22c-1.93,1.35-.82,7.72,4.06,6.97"/>
            <path class="st55" d="M438.82,114.23c1.37,13.03,12.45,15.24,18.09,14.64h0c5.53-.58,16.15-3.74,14.64-18.09l-1.55-14.73c-.95-9.04-9.05-15.59-18.09-14.64h0c-9.04.95-15.59,9.05-14.64,18.09l1.55,14.74Z"/>
            <path class="st28" d="M455.58,140.34s1.57,3.19,2.55-.83"/>
            <path class="st45" d="M481.34,405.56s8.1,6.62,19.03,8.97l-1.42,2.76h-27.49l.89-12.11,8.98.37Z"/>
            <path class="st45" d="M427.07,236.97v-4.32l58.58,1.99.06,2.33c-34.74,4.1-58.64,0-58.64,0Z"/>
            <path class="st39" d="M473.51,133.4s.02,23.65-16.65,25.14c-16.67,1.5-19.94-25.47-19.94-25.47l-9.77,1.77v100.76s23.89,4.1,58.64,0l-2.45-100.69-9.83-1.52Z"/>
            <path class="st8" d="M466.73,132.28s-8.23,7.78-24.48,1.76l-9.52,2.28,3.91,112.93s-10.72.2-20.46-2.69l-.31-4.49,10.47-105.81,5.06-2.72,13.92-2.24s17.28-.47,21.41.97Z"/>
            <polygon class="st22" points="478.84 134.27 477.69 245.63 493.56 243.68 493.69 240.41 478.84 134.27"/>
            <path class="st47" d="M465.23,132.05l13.61,2.22s1.66,55.46,2.13,107.54c0,0,10.65-1.03,16.43-1.9,0,0-2.08-47.48-5.09-61.79,0,0,2.35-39.72,1.41-40.79-.95-1.06-26.93-6.02-26.93-6.02l-1.56.74Z"/>
            <path class="st47" d="M444.98,131.83l-13.68,2.2s-.93,73.05,2.15,109.39c0,0-8.2.23-19.23-1.62,0,0-1.46-43.42,1.21-65.81,0,0-2.74-38.12-.89-39.51,1.85-1.39,29.58-5.19,29.58-5.19l.86.53Z"/>
            <path class="st39" d="M427.15,158.54c0,.65.47,1.18,1.04,1.18s1.04-.53,1.04-1.18-.47-1.18-1.04-1.18-1.04.53-1.04,1.18Z"/>
            <path class="st39" d="M427.15,174.14c0,.65.47,1.18,1.04,1.18s1.04-.53,1.04-1.18-.47-1.18-1.04-1.18-1.04.53-1.04,1.18Z"/>
            <path class="st39" d="M427.31,191.43c0,.65.47,1.18,1.04,1.18s1.04-.53,1.04-1.18-.47-1.18-1.04-1.18-1.04.53-1.04,1.18Z"/>
            <path class="st39" d="M428.19,208.86c0,.65.47,1.18,1.04,1.18s1.04-.53,1.04-1.18-.47-1.18-1.04-1.18-1.04.53-1.04,1.18Z"/>
            <path class="st39" d="M428.19,227.23c0,.65.47,1.18,1.04,1.18s1.04-.53,1.04-1.18-.47-1.18-1.04-1.18-1.04.53-1.04,1.18Z"/>
            <path class="st34" d="M438.35,109.78s3.4,3.66,7.95,6.38c0,0,5.96-4.52,13.75-4.3,1.53-.19,2.6-1.04,2.6-1.04,0,0,5.35-.43,9.02,1.94,0,0,6.36,11.36-2.51,17.24-8.87,5.88-36.16,9.55-30.81-20.22Z"/>
            <path class="st29" d="M477.41,178.77s-18.84-5.02-43.86.96c0,0,24.06-7.86,43.86-.96Z"/>
            <path class="st31" d="M392.83,180.9"/>
            <path class="st31" d="M401.48,180.9"/>
            <polygon class="st60" points="414.75 165.44 415.13 149.03 413.82 166.83 414.75 165.44"/>
            <polygon class="st60" points="494.1 171.31 493.54 154.12 492.79 169.52 494.1 171.31"/>
          </g>
          <path class="st40" d="M456.56,109c.09.57-.16,1.09-.55,1.15-.39.06-.78-.35-.87-.93-.09-.57.16-1.09.55-1.15.39-.06.78.35.86.93Z"/>
          <path class="st40" d="M465.77,107.22c.08.53-.14.99-.5,1.05-.36.06-.71-.32-.79-.85-.08-.52.14-.99.5-1.05.36-.05.71.32.79.85Z"/>
          <path class="st34" d="M453.44,105.29c.18,0,.35-.11.42-.3.13-.35.62-1.32,1.33-1.56.35-.12.73-.04,1.14.23.21.14.49.07.62-.14.13-.21.07-.5-.14-.63-.66-.42-1.3-.53-1.92-.32-1.25.43-1.86,2.04-1.88,2.1-.09.24.03.5.26.59.05.02.1.03.16.03Z"/>
          <path class="st34" d="M466.28,103.27c.1,0,.2-.03.28-.1.19-.16.22-.45.07-.64-.62-.8-1.29-1.18-1.94-1.16-.84.04-1.33.76-1.35.79-.14.21-.08.5.13.63.2.14.48.08.62-.12.01-.01.26-.37.64-.39.37,0,.76.27,1.19.81.09.11.22.17.35.17Z"/>
          <path class="st53" d="M460.39,112.47s.06,0,.1-.01c.2-.06,1.97-.61,2.51-1.49l.1-.17-.1-.18s-1.01-1.93-1.21-3.24c-.03-.19-.2-.32-.39-.29-.18.03-.31.2-.28.39.18,1.18.92,2.72,1.19,3.26-.46.49-1.59.92-2.02,1.05-.18.06-.28.24-.23.43.04.15.18.25.33.25Z"/>
          <path class="st47" d="M468.52,90.33s-2.84-8.04-9.93-10.02c-7.09-1.98-15.78,1.58-18.85,5.01-3.07,3.42-3.02,11.75-2.37,15.12l12-3.39s8.84-8.01,19.15-6.72Z"/>
          <g>
            <path class="st60" d="M458.08,80.54c-4.4-1.23-9.42-.32-13.32,1.36,3.97-1.83,9.23-2.88,13.83-1.6,7.09,1.98,9.93,10.02,9.93,10.02-.21-.03-.41-.03-.62-.04-.56-1.4-3.5-7.97-9.83-9.74Z"/>
            <path class="st51" d="M456.23,92.63c-4.16,1.97-6.86,4.42-6.86,4.42l-.36.1c.63-.54,3.34-2.77,7.22-4.52Z"/>
          </g>
          <path class="st2" d="M439.74,85.32c.97-1.08,2.5-2.18,4.37-3.11h0c-8.41,4.9-2.43,19.86,5.09,12.35,8.12-8.12,18.59-5.87,18.59-5.87.26.53.46.96.58,1.25l-.06.38c-10.22-1.15-18.94,6.74-18.94,6.74l-12,3.39c-.65-3.38-.69-11.7,2.37-15.12Z"/>
          <path class="st47" d="M478.52,96.03l-8.59-.52s-2.47-5.06-8.35-4.69c0,0,9.34-2.83,16.94,5.22Z"/>
          <path class="st60" d="M479.28,95.32l-.77.7s-6.77-5.49-13.22-5.49-15.65,6.71-15.65,6.71c0,0-5.64,1.16-12.28,3.2,0,0,6.08-1.99,11.96-3.59,0,0,8.11-6.71,15.97-7.03,7.86-.32,13.99,5.49,13.99,5.49Z"/>
          <path class="st34" d="M438.35,109.78s2.22-1.94,3.95-8.71c0,0,6.15,3.9,10.32-3.39,0,0,18.08,6.13,19.24,1.15,1.16-4.98-4.19-8.89-9.06-8.02,0,0-5.94,1.19-13.15,6.43,0,0-8.77,1.93-12.28,3.2,0,0-.07,4.84.98,9.34Z"/>
          <path class="st19" d="M444.4,98.47c2.81-.69,5.24-1.23,5.24-1.23,7.22-5.24,13.15-6.43,13.15-6.43,1.98-.35,4.03.09,5.7,1.07-3.23,0-10.75.63-15.27,6-.38-.12-.61-.2-.61-.2-.17.31-.36.59-.54.86l-14.71,1.9s3.33-.99,7.03-1.97Z"/>
          <path class="st19" d="M438.35,109.78s.18.19.49.5c-.1.82-.17,1.64-.17,2.49,0,10.95,8.74,19.82,19.51,19.82,5.9,0,11.18-2.67,14.76-6.88-.72,1.57-1.91,3.05-3.77,4.29-8.87,5.88-36.16,9.55-30.81-20.22Z"/>
          <path class="st39" d="M477.52,404.62s-3.49,11.24-4.09,0"/>
          <path class="st60" d="M413.83,211.67c1.54.05,2.77.23,3.18.52,1.25.89,2.59,3.13,2.59,3.13l-2.59.12c-2.47,2.48-1.88,6.07-1.88,6.07l2.54.17s1.53,2.78,0,3.86c-.88.62-2.25,1.22-3.77,1.63-.06-4.58-.1-9.91-.07-15.5Z"/>
          <path class="st45" d="M428.27,401.35l-7.31.34s-2.96,5.99-1.99-.23l-2.27,1.36,5.45,14.47h14.39l1.53-2.49s-3.71-1.66-5.11-2.94c-1.41-1.28-4.71-10.51-4.71-10.51Z"/>
          <g>
            <polygon class="st56" points="446.37 308.79 467.38 306.08 465.86 300.61 446.37 304.7 446.37 308.79"/>
            <polyline class="st54" points="462.61 395.42 425.19 221.52 415.09 219.98 416.89 216.74 430.97 216.74 467.38 393.04"/>
            <polyline class="st54" points="525.2 397.69 511.61 220.33 501.81 217.44 504.04 214.47 517.98 216.37 530.25 395.98"/>
            <g>
              <g>
                <g>
                  <polygon class="st52" points="541.74 164.06 552.58 259.67 457.08 278.98 435.71 176.32 541.74 164.06"/>
                  <polygon class="st35" points="513 267.67 509.01 213.6 506.93 215.98 504.82 214.07 503.57 217.28 501.07 214.49 498.99 216.87 495.61 214.07 493.94 217.43 490.73 216.22 500.28 270.25 513 267.67"/>
                </g>
                <polygon class="st35" points="505.87 165.85 508.55 201.89 506.97 200.87 505.49 205.65 503.09 196.85 500.25 202.41 496.13 200.48 494.42 203.36 492.64 201.64 490.53 206.25 485.82 167.43 498.31 165.43 498.47 166.74 505.87 165.85"/>
              </g>
              <polygon class="st65" points="552.58 259.67 527.01 282.44 452.17 298.2 457.08 278.98 552.58 259.67"/>
              <polygon class="st61" points="513 267.67 499.04 288.33 490.45 290.14 500.29 270.24 513 267.67"/>
              <polygon class="st38" points="435.71 176.32 426.65 208.88 452.17 298.2 457.08 278.98 435.71 176.32"/>
            </g>
            <polygon class="st16" points="520.23 267.47 520.3 264.4 532.94 264.17 532.91 265.5 540.37 265.65 540.21 267.99 543.15 268.06 527.01 282.44 493.45 289.5 490.45 290.14 490.45 290.14 455.93 297.41 455.89 297.13 469.43 266.17 520.23 267.47"/>
            <g>
              <g>
                <g>
                  <polygon class="st52" points="578.84 271.08 576.15 367.26 478.89 372.98 472.14 268.33 578.84 271.08"/>
                  <polygon class="st35" points="535.84 369.63 539.48 315.54 537.09 317.6 535.27 315.41 533.58 318.42 531.49 315.3 529.1 317.36 526.15 314.12 524.02 317.21 521.02 315.56 522.89 370.4 535.84 369.63"/>
                </g>
                <polygon class="st35" points="543.08 267.81 540.66 303.87 539.24 302.64 537.11 307.17 535.97 298.12 532.37 303.22 528.57 300.74 526.47 303.35 524.95 301.39 522.21 305.67 523 266.57 535.64 266.34 535.62 267.66 543.08 267.81"/>
              </g>
              <polygon class="st65" points="576.15 367.26 547.63 386.22 471.32 391.32 478.89 372.98 576.15 367.26"/>
              <polygon class="st61" points="535.84 369.63 519.12 388.12 510.36 388.71 522.89 370.39 535.84 369.63"/>
              <polygon class="st38" points="472.14 268.33 458.6 299.3 471.32 391.32 478.89 372.98 472.14 268.33"/>
            </g>
            <g>
              <path class="st44" d="M540.23,417.43c7.42.02,13.46-8.7,13.49-19.48.02-10.77-5.98-19.52-13.4-19.53h-4.61l-.75,38.97,5.27.04Z"/>
              <path class="st34" d="M522.22,397.89c-.02,10.77,5.98,19.52,13.4,19.54,7.43.02,13.46-8.7,13.49-19.48.02-10.77-5.98-19.52-13.4-19.53-7.42-.02-13.46,8.7-13.49,19.47Z"/>
              <path class="st42" d="M525.19,398.18c-.02,8.24,4.57,14.92,10.24,14.93,5.67.02,10.29-6.65,10.31-14.89.02-8.24-4.57-14.92-10.24-14.93-5.67-.01-10.29,6.65-10.31,14.89Z"/>
              <path class="st63" d="M525.39,397.9c-.02,8.23,4.57,14.92,10.24,14.93,5.67.01,10.29-6.65,10.31-14.89.02-8.24-4.57-14.92-10.24-14.93-5.67-.01-10.29,6.65-10.31,14.89Z"/>
              <path class="st54" d="M526.83,397.9c-.01,7.08,3.93,12.83,8.81,12.84,4.88.01,8.85-5.72,8.86-12.8.02-7.08-3.93-12.82-8.8-12.83-4.88-.01-8.85,5.72-8.87,12.8Z"/>
              <path class="st64" d="M544.3,398.22c.01-7.08-3.93-12.83-8.8-12.84-2.39,0-4.56,1.37-6.15,3.61,1.61-2.4,3.86-3.89,6.35-3.89,4.88.01,8.82,5.76,8.8,12.83,0,3.61-1.05,6.87-2.71,9.19,1.55-2.3,2.51-5.44,2.52-8.91Z"/>
              <path class="st54" d="M534.95,398.94c0,.41.23.74.51.74.28,0,.51-.33.52-.74,0-.41-.23-.74-.51-.74s-.51.33-.51.74Z"/>
            </g>
            <path class="st24" d="M553.69,397.08l-4.69-1.02-19.62,6.9h-6.84l-.29-1.14,30.33-10.89s1.1,2.82,1.11,6.15Z"/>
            <polygon class="st54" points="455.2 397.86 491.09 375.7 583.34 373.15 584.76 375.42 529.98 401.81 455.2 401.81 455.2 397.86"/>
            <polygon class="st59" points="491.09 375.7 583.34 373.15 584.42 374.88 491.37 377.26 457.47 399.56 457.47 401.81 455.2 401.81 455.2 397.86 491.09 375.7"/>
            <g>
              <path class="st44" d="M458.51,417.37c7.42.02,13.46-8.7,13.49-19.48.02-10.77-5.98-19.52-13.4-19.53h-4.61l-.75,38.97,5.27.04Z"/>
              <path class="st34" d="M440.5,397.83c-.02,10.77,5.98,19.52,13.4,19.53,7.42.02,13.46-8.7,13.49-19.48.02-10.77-5.98-19.52-13.4-19.53-7.42-.02-13.46,8.7-13.49,19.48Z"/>
              <path class="st42" d="M443.47,398.12c-.02,8.23,4.57,14.92,10.24,14.93,5.67.02,10.29-6.65,10.31-14.88.02-8.23-4.57-14.92-10.24-14.93-5.68,0-10.29,6.65-10.31,14.89Z"/>
              <path class="st63" d="M443.67,397.84c-.02,8.24,4.57,14.92,10.24,14.93,5.67,0,10.29-6.65,10.31-14.89.02-8.23-4.57-14.92-10.24-14.93-5.67-.01-10.29,6.65-10.31,14.88Z"/>
              <path class="st54" d="M445.11,397.84c-.01,7.08,3.93,12.82,8.8,12.84,4.88.01,8.85-5.72,8.86-12.8.02-7.08-3.93-12.83-8.8-12.84-4.88-.01-8.85,5.72-8.86,12.8Z"/>
              <path class="st64" d="M462.58,398.16c.02-7.08-3.93-12.83-8.81-12.84-2.39,0-4.56,1.37-6.15,3.61,1.61-2.4,3.85-3.89,6.34-3.89,4.88.01,8.82,5.75,8.8,12.84,0,3.61-1.05,6.87-2.71,9.19,1.54-2.3,2.51-5.44,2.51-8.91Z"/>
              <path class="st54" d="M453.23,398.88c0,.41.23.75.51.75.28,0,.51-.33.52-.74,0-.41-.23-.74-.51-.74-.28,0-.52.33-.52.74Z"/>
            </g>
            <path class="st66" d="M421.94,216.74l-.84-1.57-17.08.78s-1.81.9-.96,4.75l17.09,1.32,1.09-1.11-1.67-.3s-.27-1.81.68-3.88h1.72Z"/>
            <path class="st33" d="M404.02,215.95l.88-.04c-.99,3.2,12.13,4.89,12.13,4.89.38-2.85,1.06-4.54,1.62-5.51l2.46-.11.84,1.57h-1.72c-.95,2.07-.68,3.88-.68,3.88l1.67.3-1.09,1.11-17.09-1.32c-.84-3.85.96-4.75.96-4.75Z"/>
          </g>
          <path class="st55" d="M527.4,165.71s1.03-2.71,2.65-2.54c1.62.17,2.39,8.18.34,8.14-2.04-.05-2.04-5.75-2.04-5.75l-.95.15Z"/>
          <path class="st55" d="M529.89,165.84s.33-2.88,1.94-3.12c1.61-.24,4.34,7.34,2.34,7.8-1.99.46-3.4-5.07-3.4-5.07l-.88.38Z"/>
          <path class="st55" d="M533.3,165.1s.91-2.75,2.54-2.65c1.63.1,2.74,8.07.7,8.12-2.04.04-2.29-5.66-2.29-5.66l-.94.19Z"/>
          <path class="st55" d="M537.22,164.58s.9-2.28,2.27-2.12c1.37.16,1.94,6.95.21,6.89-1.73-.06-1.68-4.89-1.68-4.89l-.8.12Z"/>
          <path class="st55" d="M417.68,215.33s-1.34-2.24-2.59-3.13c-1.25-.89-9.99-.7-12.61.77-2.62,1.47-1.98,7.54,2.04,11.75,2.49,2.6,8.76,2.56,11.23.83,1.53-1.07,0-3.86,0-3.86l-2.54-.17s-.59-3.59,1.88-6.07l2.59-.12Z"/>
          <path class="st47" d="M413.82,211.83s-7.83-31.44-16.01-34c-8.18-2.56-14.86-2.59-16.44,1.9-1.58,4.48,6.79,22.32,19.67,35.44,0,0,2.72-3.58,12.78-3.34Z"/>
          <path class="st60" d="M400.9,181.23s-2.71-1.69-7.48-.33"/>
        </g>
      </g>
    </g>
  </g>
</svg>