<?xml version="1.0" encoding="UTF-8"?>
<svg id="Layer_1" xmlns="http://www.w3.org/2000/svg" version="1.1" viewBox="0 0 422 246">
  <!-- Generator: Adobe Illustrator 29.6.0, SVG Export Plug-In . SVG Version: 2.1.1 Build 207)  -->
  <defs>
    <style>
      .st0 {
        fill: #663c1a;
      }

      .st0, .st1, .st2, .st3, .st4, .st5, .st6, .st7, .st8, .st9, .st10, .st11, .st12, .st13, .st14, .st15, .st16, .st17, .st18, .st19, .st20 {
        fill-rule: evenodd;
      }

      .st1 {
        fill: #f7c397;
      }

      .st2 {
        fill: #1e1917;
      }

      .st3 {
        fill: #f6e8d5;
      }

      .st4 {
        fill: #fff;
      }

      .st21, .st12 {
        fill: #d2773c;
      }

      .st22 {
        fill: #7a91b4;
      }

      .st5 {
        fill: #b6762a;
      }

      .st6 {
        fill: #fcc398;
      }

      .st7 {
        fill: #701311;
      }

      .st8 {
        fill: #522c10;
      }

      .st9 {
        fill: #e4a94d;
      }

      .st10 {
        fill: #885723;
      }

      .st11 {
        fill: #010101;
      }

      .st13 {
        fill: #592f10;
      }

      .st14 {
        fill: #1e417e;
      }

      .st15 {
        fill: #213368;
      }

      .st23 {
        fill: #f58c83;
        isolation: isolate;
        opacity: .5;
      }

      .st16 {
        fill: #e9aa74;
      }

      .st17 {
        fill: #ce2b2c;
      }

      .st18 {
        fill: #5f3613;
      }

      .st19 {
        fill: #f15a22;
      }

      .st20 {
        fill: #f26722;
      }
    </style>
  </defs>
  <g id="OBJECTS">
    <g>
      <g>
        <g>
          <g>
            <path class="st11" d="M297.66,62.74c-.1.31.87.02,1.04-.02,2.38-.54,15.55-5.75,15.87-8.79.69-6.69-7.36-32.75-16.26-28.85-7.4,3.25,1.19,16.08,1.21,17.07.3,13.18-10.1,4.04-5.74,17.14"/>
            <path class="st11" d="M276.88,206.23c-.13-.3-.68.52-.79.66-1.46,1.89-8.11,14.03-6.34,16.55,3.92,5.57,27.42,20.59,31.66,12.1,3.52-7.07-11.61-11.61-12.28-12.35-8.99-9.93,5.07-9.34-6.99-16.7"/>
          </g>
          <g>
            <g>
              <path class="st15" d="M245.42,112.23c.87,9.44,5.4,21.21,5.93,29.5,1.59,24.97-4.26,31.83-9.96,36.9-10.94,9.74-23.15-6.32-22.68-6.13,1.6.65,5.17-3.61,5.61-5.29,7.18-14.88,3.12-56.18,4.66-64.14,2.71-13.93,13.73-26.49,49.33-46.5,3.74-2.1,10.42-9.85,15.53-8.24.49.15,8.36,15.07,4.76,17.93-2.92,2.32-8.14,3.51-11.37,5.12-16.15,8.06-28.34,18.66-39.9,29.64,1.34,1.32,2.86,3.41,2.69,4.02-.25.91-3.45.63-4.08,1.79-.35.64,1.76,1.83,2.05,2.42.65,1.34-.81,2.29-2.56,2.98Z"/>
              <path class="st22" d="M299.47,62.58c.01.12.02.25.03.37-.12.06-.25.13-.37.19-.3.15-.31.09-.31.09l-.13-.15s-.03-.07.1-.17c.16-.08.33-.16.49-.24l.18-.08ZM297.97,63.37l.11.09c.04.15-.02.2-.02.2,0,0-.49.25-.84.43l-.27.12c-.16-.02-.18-.1-.18-.1v-.13c.02-.06.02-.06.08-.1.42-.21.98-.48.98-.48,0,0,.06-.02.14-.01ZM296,64.33l.11.09c.04.15-.02.2-.02.2,0,0-.47.24-.81.41l-.3.13c-.16-.02-.18-.1-.18-.1l.03-.2.06-.04c.42-.2.98-.48.98-.48,0,0,.06-.02.14,0ZM294.03,65.29c.07.04.12.22.12.22l-.09.1c-.33.16-.66.32-.99.47,0,0-.06.05-.2-.03l-.05-.19.09-.1c.3-.15.61-.29.91-.44,0,0,.12-.06.22-.05ZM292.06,66.23l.11.09c.04.15-.03.2-.03.2,0,0-.44.22-.75.37l-.36.16-.18-.1.03-.2.06-.04c.31-.15.63-.3.94-.45,0,0,.09-.04.19-.03ZM290.08,67.17l.11.09c.04.15-.03.2-.03.2,0,0-.42.21-.72.36l-.39.17-.13-.04c-.1-.12-.05-.19-.05-.19l.09-.1c.32-.15.65-.31.97-.46,0,0,.07-.03.16-.02ZM288.11,68.11c.22.12.18.12.08.28l-.06.04-.63.3-.35.17c-.16.04-.2-.03-.2-.03-.22-.28.04-.29.04-.29l.35-.17.63-.3s.06-.02.14,0ZM286.13,69.05c.14.08.12.16.12.16l-.1.17c-.31.15-.62.29-.93.44l-.2.04-.12-.16c.02-.16.1-.17.1-.17.33-.16.66-.31.99-.47,0,0,.06-.02.14,0ZM284.16,69.99c.22.12.18.12.08.28l-.06.04c-.41.2-.99.47-.99.47-.16.04-.2-.02-.2-.02l-.05-.19.09-.1c.25-.12.49-.24.74-.35l.32-.14s.05,0,.07,0ZM282.18,70.94c.14.08.13.16.13.16l-.1.17c-.42.2-.98.48-.98.48,0,0-.06.05-.2-.02l-.05-.19.09-.1c.26-.12.51-.25.77-.37l.29-.12s.05,0,.07,0ZM280.21,71.9c.14.08.13.15.13.15l-.1.17c-.43.21-.98.48-.98.48l-.2-.02-.06-.12c.02-.16.1-.17.1-.17.26-.13.53-.26.8-.39l.26-.11s.05,0,.07,0ZM278.25,72.86l.11.09c.05.15-.02.2-.02.2,0,0-.49.26-1,.52l-.17.03c-.22-.12-.18-.11-.09-.28l.06-.04c.3-.16.61-.31.91-.46,0,0,.1-.05.2-.04ZM276.3,73.86c.14.07.13.15.13.15l-.1.17c-.16.08-.32.17-.48.25-.26.14-.55.28-.55.28l-.18-.09c-.05-.15.02-.2.02-.2,0,0,.47-.27.99-.54,0,0,.09-.04.18-.03ZM274.37,74.88c.15.07.13.15.13.15l-.09.18c-.17.09-.35.19-.52.29-.21.11-.5.26-.5.26-.16-.01-.18-.09-.18-.09v-.2s.07-.05.07-.05c.3-.16.59-.33.89-.49,0,0,.11-.06.21-.05ZM272.46,75.94l.14.15s.03.07-.09.18c-.31.17-.61.35-.92.52l-.17.04-.11-.08c-.05-.15.01-.2.01-.2,0,0,.45-.28.86-.5.12-.07.1-.11.29-.1ZM270.56,77.03l.14.15-.09.18c-.14.08-.28.16-.42.25-.28.16-.59.33-.59.33l-.19-.08v-.2s.45-.28.89-.54l.18-.09s.05,0,.07,0ZM268.68,78.14c.07.03.14.21.14.21-.03.06-.03.06-.08.11-.14.08-.27.17-.41.25-.22.13-.52.32-.52.32-.23.09-.25-.05-.25-.05-.06-.15,0-.2,0-.2,0,0,.44-.29.88-.56l.17-.09s.05,0,.07,0ZM266.83,79.29c.15.06.14.14.14.14l-.08.18c-.3.19-.6.38-.89.57l-.16.04c-.23-.09-.19-.09-.12-.27l.05-.05c.39-.25.92-.59.92-.59,0,0,.06-.03.14-.03ZM264.99,80.47c.53.21-.03.38-.39.62-.21.14-.51.33-.51.33l-.19-.07s-.06-.05,0-.2c0,0,.5-.35.81-.56.12-.08.09-.12.29-.13ZM263.18,81.69c.15.06.15.14.15.14l-.07.18c-.11.08-.23.16-.34.24-.3.21-.61.41-.61.41l-.19-.07v-.2s.04-.05.04-.05c.29-.2.57-.4.86-.59,0,0,.08-.05.18-.06ZM261.39,82.93c.15.05.15.13.15.13l-.07.18c-.28.2-.56.41-.85.61,0,0,0,.05-.17.06l-.15-.13.07-.19c.11-.08.23-.16.34-.25.3-.22.61-.42.61-.42.02,0,.05,0,.07,0ZM259.63,84.21l.12.07c.07.14.01.2.01.2,0,0-.48.38-.91.71,0,0-.05.06-.2.02l-.09-.18c.09-.26.22-.24.35-.33.15-.11.3-.23.45-.34.11-.08.09-.13.28-.14ZM257.9,85.53l.12.07c.08.14.02.2.02.2,0,0-.41.34-.82.66l-.21.1-.12-.06c-.08-.14-.02-.2-.02-.2,0,0,.46-.38.86-.69,0,0,.08-.06.18-.07ZM256.2,86.89c.23.06.17.19.17.19-.07.24-.19.22-.29.31-.25.21-.6.5-.6.5-.22.12-.2.09-.29-.08l.05-.19c.2-.17.4-.34.61-.5.11-.09.19-.21.37-.23ZM254.54,88.28c.2.05.11.31.11.31-.27.24-.54.47-.81.71l-.21.04s-.08-.01-.11-.17l.06-.12c.23-.21.46-.41.7-.61.1-.09.07-.12.25-.15ZM252.91,89.72l.17.11s.05.06-.05.19c-.27.24-.53.49-.79.73,0,0-.04.07-.2.04,0,0-.08-.01-.11-.16,0,0,.44-.48.85-.86,0,0,.06-.04.14-.05ZM251.33,91.21c.25.05.21.06.17.24,0,0-.41.41-.81.82,0,0-.04.07-.2.04,0,0-.08,0-.12-.16l.05-.13c.25-.25.51-.5.76-.75,0,0,.06-.05.14-.06ZM249.8,92.74c.25.04.21.05.18.24,0,0-.42.45-.76.83l-.21.07-.12-.16.05-.13c.23-.24.45-.49.68-.73,0,0,.09-.09.19-.12ZM248.39,94.33c.32.17.08.28.08.28-.09.1-.17.19-.26.29-.24.27-.51.56-.51.56l-.2-.02-.06-.19.03-.06c.23-.26.46-.53.69-.79,0,0-.01-.11.22-.08ZM246.98,95.97c.32.16.09.28.09.28-.08.1-.16.2-.24.3-.22.27-.48.59-.48.59h-.2c-.11-.13-.07-.2-.07-.2,0,0,.35-.47.68-.87,0,0-.02-.11.22-.09ZM245.65,97.66c.23.1.19.1.11.28-.07.09-.14.18-.2.28-.18.25-.43.59-.43.59-.12.11-.19.07-.19.07l-.14-.14s.33-.56.66-1c0,0,.09-.08.2-.08ZM244.39,99.42l.12.07c.06.14,0,.2,0,.2-.05.07-.1.15-.15.22-.26.4-.48.73-.48.73l-.14.03c-.24-.08-.2-.09-.13-.27.17-.28.35-.55.53-.82l.17-.16s.05,0,.07,0ZM243.84,101.3l.11.08c.05.08.05.08.08.11.17.24.37.47.57.69l.03.21-.18.09s-.64-.46-.84-.99l.09-.18s.06-.02.14-.02ZM245.1,103s.18.08.25.28c.11.33.02.72-.23.99l-.2.05c-.14-.08-.12-.16-.12-.16,0,0,.25-.31.24-.59,0-.14-.1-.32-.1-.32-.08-.29.06-.23.16-.25ZM244.03,104.46l.12.07c.12.22.08.19-.09.28-.34.09-.69.17-1,.32,0,0-.04.07-.21-.02,0,0-.07-.03-.06-.19,0,0,.19-.16.39-.23.31-.11.77-.22.77-.22.02,0,.05,0,.07,0ZM242.35,105.61c.32.11.13.1.15.39.03.34.29.77.29.77-.01.16-.09.18-.09.18h-.2s-.42-.68-.35-1.18c0,0-.01-.14.21-.15ZM243.26,107.5c.12.05.19.18.26.29.16.25.29.51.36.79l-.08.19-.14.03c-.24-.09-.13-.1-.18-.26-.09-.27-.24-.52-.41-.76v-.2s.08-.07.18-.07ZM243.47,109.43c.28.28.02.3-.2.39-.33.12-.7.17-1.04.12l-.12-.16s-.11-.16.48-.19c.24-.01.48-.04.67-.15,0,0,.04-.07.21,0ZM241.34,110.12c-.06.05.01.2.04.32.06.26.11.57.11.57,0,0,0,.08-.14.14,0,0-.07.04-.19-.07,0,0-.17-.58-.22-.95,0,0,.02-.17.18-.29l.21-.02c.13.1.09.17.09.17,0,0-.04.1-.08.13ZM241.57,111.84c.15.06.15.14.15.14.05.22.1.43.15.65l.09.39c0,.23-.14.21-.14.21-.16,0-.19-.07-.19-.07,0,0-.13-.51-.22-.88l-.05-.29c.08-.21.13-.14.21-.14ZM242.05,113.91l.15.14c.04.17.08.34.12.51l.12.52s.04.07-.07.18c0,0-.08.12-.26-.04l-.03-.06c-.08-.34-.16-.69-.24-1.03l.02-.14c.06-.06.01-.08.19-.08ZM242.53,115.99s.1.03.15.14l.24,1.04-.02.13c-.11.11-.19.08-.19.08l-.15-.14-.24-1.04.02-.13c.06-.06.01-.08.19-.08ZM243.01,118.06l.15.14c.1.44.31.95.22,1.17,0,0-.02.08-.19.08,0,0-.08,0-.15-.14-.04-.19-.09-.38-.13-.57l-.11-.47.07-.18s.06-.03.14-.03ZM243.49,120.13l.15.14c.06.28.13.56.19.84.02.11.08.18.02.33,0,0-.02.08-.19.08l-.15-.14c-.07-.32-.15-.64-.22-.97l-.02-.14c.08-.21.13-.14.21-.14ZM243.95,122.21l.14.14c.07.4.17.95.17.95.05.29.09.22-.13.3,0,0-.12.08-.21-.15-.07-.4-.17-.95-.17-.95,0,0-.13-.31.2-.3ZM244.3,124.31l.14.15c.05.33.1.66.15.99l-.03.19c-.18.16-.26.03-.26.03-.05-.05-.05-.05-.07-.12-.05-.34-.1-.68-.15-1.02l.08-.2s.06-.02.14-.02ZM244.6,126.42c.15.07.13.15.13.15.04.35.09.7.13,1.04,0,0,.06.07-.09.19l-.2-.02-.07-.12c-.02-.15-.03-.3-.05-.44-.02-.14-.03-.29-.05-.43-.05-.4,0-.29.07-.35,0,0,.06-.02.14-.02ZM244.85,128.53c.14.07.13.15.13.15.03.33.06.66.09.99,0,0,.04.07-.04.2l-.2.05c-.11-.06-.11-.11-.13-.15-.03-.35-.06-.7-.1-1.04l.1-.19s.06-.02.14-.01ZM245.03,130.65l.13.16c.03.35.05.7.07,1.05l-.1.18-.2-.03-.06-.12c0-.15-.02-.3-.03-.45-.02-.33-.03-.68-.03-.68.11-.19.15-.12.23-.11ZM245.1,132.76l.17.1.02.07c.02.33.03.67.04,1,0,0,.08.1-.11.23,0,0-.06.05-.2-.03l-.06-.12c0-.17-.01-.33-.02-.5-.01-.29-.01-.63-.01-.63,0,0,.07-.09.16-.12ZM245.18,134.89c.16.03.17.11.17.11,0,0,.03.51.03,1.02l-.05.23c-.13.09-.2.04-.2.04l-.11-.16c0-.33-.01-.65-.02-.98l.05-.21s.05-.04.13-.05ZM245.21,137.01l.13.05c.04.06.04.06.05.12,0,.34,0,.68,0,1.02l-.06.17-.2.04s-.08-.01-.11-.16c0-.16,0-.32,0-.48,0-.24,0-.58,0-.58.04-.22.1-.16.18-.18ZM245.19,139.13c.16.03.17.11.17.11,0,0,0,.52-.02,1.04,0,0,.04.08-.06.22,0,0-.04.07-.2.03l-.11-.17c.02-.44.03-1.06.03-1.06,0,0-.03-.14.19-.17ZM245.12,141.26l.13.06c.04.06.04.06.05.13-.02.34-.03.68-.05,1.03l-.06.16c-.14.08-.2.03-.2.03l-.1-.17c.02-.34.04-.68.05-1.01l.06-.17s.05-.04.13-.05ZM245,143.38c.16.04.16.12.16.12,0,0-.02.52-.06,1.04l-.07.21-.13.04c-.16-.04-.16-.12-.16-.12,0,0,.03-.51.06-1.03l.07-.22s.05-.03.13-.04ZM244.83,145.5l.13.06c.03.06.03.06.04.13-.01.16-.03.31-.04.47-.02.25-.06.59-.06.59-.07.23-.08.19-.27.14,0,0-.08-.02-.1-.17.03-.34.07-.68.1-1.02l.07-.16s.06-.03.13-.04ZM244.62,147.61c.07.02.16.2.16.2-.04.35-.08.7-.13,1.05,0,0,0,.23-.27.14l-.09-.18c.04-.32.08-.65.12-.97l.08-.2s.06-.03.14-.04ZM244.35,149.72c.16.05.16.13.16.13,0,0-.06.59-.11,1.08,0,0,.04.03-.07.16l-.2.02c-.09-.08-.09-.13-.1-.17.01-.12.02-.23.04-.35.04-.37.11-.77.11-.77,0,0,.08-.08.18-.09ZM244.12,151.83c.16.04.16.12.16.12,0,0-.04.55-.08,1.04,0,0,.03.08-.07.2l-.2.02-.1-.17c.04-.46,0-1,.16-1.18,0,0,.06-.03.13-.04ZM243.95,153.95c.07.02.17.19.17.19-.03.35-.05.71-.08,1.06,0,0,.06.13-.2.16,0,0-.08.02-.16-.12v-.07c.02-.35.05-.71.07-1.06,0,0-.02-.14.2-.16ZM243.78,156.07l.13.06c.03.06.03.06.04.13-.01.16-.03.32-.04.49-.01.14-.02.28-.04.42-.03.29-.08.28-.08.28-.14.08-.2.02-.2.02-.09-.07-.09-.13-.1-.17.03-.33.06-.66.09-.99l.07-.19s.06-.03.13-.04ZM243.58,158.19l.16.13v.07c-.04.44-.12,1.06-.12,1.06-.08.23-.08.19-.27.13,0,0-.08-.02-.09-.18.04-.34.08-.68.12-1.02l.07-.15s.06-.03.13-.04ZM243.32,160.3c.15.05.15.13.15.13,0,0-.07.59-.16,1.08,0,0,.04.03-.08.15h-.2s-.08-.17-.08-.17c.01-.08.03-.16.04-.24.06-.36.15-.87.15-.87,0,0,.08-.08.18-.08ZM242.96,162.39l.12.08c.1.25-.01.31-.04.46-.05.23-.1.45-.15.68-.03.12-.09.15-.09.15h-.2s-.08-.19-.08-.19c.07-.33.15-.67.22-1l.09-.15s.06-.03.14-.03ZM242.49,164.47l.11.08c.08.2,0,.25-.04.35-.07.27-.15.53-.23.8l-.09.12c-.16.04-.2-.02-.2-.02,0,0-.04-.23.05-.54.08-.27.18-.66.18-.66.1-.2.14-.13.22-.13ZM241.78,166.48l.17.11s-.04.23-.04.23c-.03.06-.06.13-.09.19-.11.23-.24.46-.37.68l-.19.09c-.46-.16-.14-.25-.03-.44.19-.33.42-.81.42-.81,0,0,.05-.04.13-.05ZM240.71,168.31l.13.16s-.7,1.15-1.11.65c-.22-.27.05-.34.05-.34.19-.02.21.08.21.08.2-.11.36-.31.52-.49,0,0,.1-.07.2-.05Z"/>
            </g>
            <g>
              <path class="st14" d="M220.77,199.64s-4.37-27.12-3.83-27.26c11.73-3.04,18.96-2.79,26.73-8.37,14.32-10.28,27.54-21.22,43.69-28.65,5.68-2.61,15.85-4.29,20.08,1.88,9.69,14.16-5.19,51.36-11.89,65.4-1.63,3.42-3.36,7.32-4.11,11.04-.14.7.62,4.59.37,4.76-1.63,1.09-15.24.12-17.29-.28-1.59-.31-6.92-.85-7.56-2.62-.51-1.41,4.39-9.67,5.15-11.1,5.17-9.73,10.73-19.1,14.27-29.54.12-.36.24-.73.36-1.09,1.48-4.49,3.19-9,3.58-13.74,0-.09.11-1.29-.08-1.33-.97-.2-1.49,3.76-3.16,2.98-.76-.36-1.15-1.77-1.06-2.35.02-.1.13-1.21.12-1.21-10.46,4.8-14.84,12.04-25.43,20.62-10.22,8.29-24.14,26.78-39.92,20.84Z"/>
              <path class="st15" d="M226.2,183.92c0,5.86.98,12.72,5.18,11.73,14.38-3.37,30.49-26.93,43.01-35.98,3.88-2.81,7.67-5.45,11.84-7.87.72-.42,3.02-2.24,3.96-1.94.16.05-.15.72-.18.78-.78,1.76-2.23,6.02-2.44,7.92-.01.11,3.8-8.36,5.23-7.25.83.65-.9,6.15,0,6,.78-.13,3.35-4.44,3.9-3.83.69.94-3.42,8.6-3.9,11.44-1.06,6.28-9.32,29.65-12.78,34.91-1.27,1.94-2.27,3.85-3.31,5.68,5.59,2.1,14.53,5.52,18.47-2.09.12-.26.25-.53.37-.78-.12.27-.24.53-.37.78-1.52,3.23-3.04,6.82-3.74,10.26-.14.7.62,4.59.37,4.76-1.63,1.09-15.24.12-17.29-.28-1.56-.31-6.76-.84-7.53-2.54h0s0,0,0,0h0s0-.02,0-.02h0s0,0,0,0h0s0-.02,0-.02h0s0,0,0,0c0,0,0-.02,0-.02-.33-.9,1.58-4.64,3.19-7.58.89-1.63,1.69-3.01,1.96-3.52,5.17-9.73,10.73-19.1,14.27-29.54.12-.36.24-.73.36-1.09,1.48-4.49,3.19-9,3.58-13.74,0-.09.11-1.29-.08-1.33-.97-.2-1.49,3.76-3.16,2.98-.76-.36-1.15-1.77-1.06-2.35.02-.1.13-1.21.12-1.21-10.46,4.8-14.84,12.04-25.43,20.62-10.22,8.29-24.14,26.78-39.92,20.84,0,0-4.37-27.12-3.83-27.26,4.45-1.15,8.25-1.83,11.67-2.54-.28.51-.49,1.07-.67,1.59-.58,1.65-.9,3.41-1.23,5.12-.13.7-.3,2.15-.41,3.94,2.13,1.02,3.78,2.93,4.84,4.93.54,1.02,1.3,2.76.4,3.8-.17.2-.8.41-.83.06-.13-2.09-2.57-4.31-4.52-5.37Z"/>
            </g>
            <g>
              <path class="st22" d="M287.31,152.24s.06-.01.1-.02c.24-.04.52-.02.7.16,0,0,.07.04.03.19,0,0-.01.08-.17.1,0,0-.3-.17-.63-.08-.14.04-.33.11-.33.11-.16.03-.2-.04-.2-.04l-.04-.19s.23-.17.55-.24ZM286.01,152.88c.15.07.14.15.14.15,0,0-.08.17-.36.34-.32.2-.71.44-.71.44l-.19-.07v-.2s.05-.05.05-.05c.3-.2.61-.4.92-.58,0,0,.07-.03.15-.03ZM284.17,154.08l.15.13-.07.19c-.08.06-.16.11-.24.17-.33.24-.7.5-.7.5l-.19-.06v-.2s.03-.05.03-.05c.28-.21.57-.42.86-.63,0,0,.07-.04.16-.05ZM282.43,155.38l.16.13-.06.19c-.27.2-.53.41-.8.62l-.2.08c-.16-.05-.16-.13-.16-.13l.06-.19c.26-.2.52-.4.78-.6.08-.06.04-.09.22-.1ZM288.3,153.35s.13.15.14.4c.01.27.02.53.04.8,0,0,.04.02-.04.15,0,0-.04.07-.2.05,0,0-.12-.1-.13-.34-.01-.28-.02-.57-.04-.86,0,0-.03-.02.04-.15,0,0,.1-.06.2-.05ZM291.67,153.21c.46-.09.32.27.32.27-.17.15-.05-.1-.43.16-.21.14-.45.43-.45.43-.13.1-.2.06-.2.06l-.11-.09c-.05-.15.02-.2.02-.2.24-.28.46-.55.84-.64ZM280.7,156.7l.12.07c.12.24.01.21-.09.28-.27.19-.54.37-.81.56l-.11.06c-.25,0-.22,0-.22-.2l.07-.12c.29-.2.59-.4.88-.6,0,0,.07-.04.15-.04ZM290.35,154.64c.15.06.14.14.14.14,0,0-.27.48-.59.94l-.17.15c-.08,0-.22-.14-.22-.14,0-.07,0-.07.03-.13.22-.31.38-.67.66-.93,0,0,.06-.03.14-.03ZM278.92,157.93l.15.13s.04.07-.07.18c-.29.2-.59.41-.88.61,0,0-.06.07-.22.02,0,0-.15-.01-.06-.24l.05-.05c.38-.26.89-.62.89-.62,0,0,.06-.03.14-.03ZM292.43,154.07c.16.03.17.1.17.1.15.32.28.66.39,1l-.05.2s-.21.15-.37-.33c-.12-.34-.31-.8-.31-.8.04-.22.1-.16.18-.18ZM288.46,155.45c.23.08.13.07.2.29.08.22.19.43.37.58,0,0,.17,0,.14.23l-.17.12c-.36,0-.62-.55-.74-1.01,0,0-.04-.07.07-.19,0,0,.06-.03.14-.03ZM277.13,159.18c.15.05.15.13.15.13l-.07.19c-.22.15-.43.31-.65.46l-.3.2-.19-.07s-.06-.05,0-.2l.05-.05c.39-.27.89-.63.89-.63,0,0,.06-.03.14-.03ZM275.36,160.44c.07.03.15.2.15.2-.02.06-.02.07-.07.12-.23.16-.45.32-.68.49l-.27.18c-.16,0-.19-.07-.19-.07v-.2s.43-.34.76-.57l.23-.15s.05,0,.07,0ZM293.12,156.1c.13.05.16.2.19.33.04.2.07.4.1.6.02.17,0,.39,0,.39l-.19.06s-.13-.12-.17-.41c-.04-.26-.09-.52-.14-.78l.08-.18s.06-.03.14-.03ZM273.59,161.71c.24.08.2.08.13.27,0,0-.44.34-.76.57l-.17.12c-.13.06-.29-.1-.29-.1,0-.16.07-.19.07-.19.23-.17.45-.33.68-.5l.26-.17s.05,0,.07,0ZM271.83,162.99s.23,0,.13.26l-.05.05c-.38.28-.88.64-.88.64-.15.07-.2.01-.2.01l-.09-.18.07-.12c.21-.16.43-.32.64-.47l.3-.2s.05,0,.07,0ZM270.08,164.28s.22.01.14.26l-.05.05c-.37.27-.87.65-.87.65-.22.1-.26-.03-.26-.03-.03-.07.03-.25.03-.25.29-.21.57-.43.86-.64,0,0,.06-.04.15-.05ZM293.43,158.21s.12.15.12.16c0,.02,0,.05,0,.07,0,.02,0,.05,0,.07,0,.07,0,.15.01.22.02.35,0,.77,0,.77l-.17.11-.17-.11s-.02-.59-.05-1.12l.1-.17s.06-.02.14,0ZM268.34,165.59l.15.13-.06.19c-.27.2-.54.41-.81.61l-.19.08c-.07-.02-.16-.2-.16-.2l.07-.12c.27-.2.54-.41.82-.61,0,0,.09-.07.19-.08ZM266.6,166.89l.16.13-.06.19c-.28.21-.57.43-.85.64,0,0,0,.04-.15.05l-.16-.13c-.01-.16.06-.19.06-.19.36-.28.86-.66.86-.66,0,0,.06-.03.14-.04ZM293.39,160.33c.16.04.17.12.17.12,0,0,.04.81-.07,1.2l-.18.1-.16-.12s.02-.51.05-.99l.06-.26s.05-.04.13-.05ZM264.87,168.21l.12.07c.07.14.02.2.02.2,0,0-.39.32-.68.54l-.29.21c-.25.02-.22,0-.23-.19l.07-.12c.24-.19.49-.38.73-.56.11-.08.08-.12.26-.14ZM263.15,169.54l.16.13-.06.19c-.22.17-.44.34-.67.52l-.25.18s-.11.1-.23-.12c0,0-.04-.07.06-.19.23-.18.46-.36.69-.54.13-.1.1-.15.3-.17ZM293.25,162.44l.16.13v.07c-.03.35-.08.69-.12,1.04,0,0,0,.24-.28.15,0,0-.08-.02-.09-.18.05-.34.09-.68.13-1.02l.07-.15s.06-.03.13-.04ZM261.43,170.87c.24.07.2.08.14.26,0,0-.43.36-.75.6l-.22.15-.2-.06c-.08-.14-.02-.2-.02-.2,0,0,.4-.33.7-.56l.27-.19s.05,0,.07,0ZM259.73,172.22c.24.07.2.08.14.26l-.05.05c-.37.29-.85.67-.85.67-.42.22-.28-.22-.28-.22,0,0,.38-.32.66-.54l.3-.22s.05,0,.07,0ZM258.02,173.56l.12.06c.08.14.02.2.02.2l-.05.05c-.36.28-.85.68-.85.68,0,0-.05.07-.2.02,0,0-.15,0-.08-.24l.05-.05c.27-.22.55-.44.82-.66,0,0,.07-.05.16-.06ZM292.97,164.55l.12.07c.11.23,0,.29-.02.43-.05.31-.14.75-.14.75-.06.15-.14.14-.14.14-.36,0-.22-.2-.22-.2.02-.11.04-.21.06-.32.05-.3.13-.73.13-.73.08-.21.13-.14.21-.15ZM256.32,174.92l.16.12-.06.19c-.27.21-.53.43-.8.64l-.18.08-.12-.06c-.08-.14-.02-.2-.02-.2l.05-.05c.26-.21.52-.42.78-.63.07-.05.02-.07.2-.09ZM254.63,176.28c.16.04.16.12.16.12l-.06.19c-.28.22-.55.45-.83.67,0,0-.05.08-.21.03,0,0-.15,0-.08-.24l.05-.05c.36-.29.84-.68.84-.68,0,0,.06-.03.13-.04ZM292.58,166.64c.2.08.11.37.06.6-.06.26-.14.65-.14.65-.1.22-.1.18-.28.11l-.07-.18.09-.38c.06-.27.14-.66.14-.66.06-.15.13-.14.22-.14ZM252.95,177.65l.12.06c.08.14.02.2.02.2,0,0-.38.33-.66.56l-.29.22-.2-.05-.02-.2.05-.05c.24-.19.48-.39.71-.58.1-.08.08-.12.26-.14ZM251.26,179.02c.16.04.16.12.16.12l-.06.19c-.21.18-.43.35-.64.53l-.26.19c-.24.03-.23-.11-.23-.11-.02-.16.06-.19.06-.19.23-.19.46-.37.68-.56l.22-.16s.05,0,.07,0ZM292.11,168.72l.11.08c.02.06.02.07.02.13-.08.34-.17.67-.26,1.01,0,0-.04.16-.23.16,0,0-.15.03-.13-.22.09-.34.18-.68.26-1.01l.15-.15s.05,0,.07,0ZM249.59,180.4s.22,0,.15.26c0,0-.41.36-.71.61l-.17.14c-.14.08-.2.02-.2.02l-.1-.17.06-.12c.22-.18.44-.36.65-.54l.24-.18s.05,0,.07,0ZM247.91,181.78c.16.04.16.12.16.12.02.12-.02.15-.05.19-.2.16-.39.33-.59.5l-.24.2c-.07.04-.26-.02-.26-.02-.04-.07.02-.25.02-.25.26-.22.53-.45.8-.67,0,0,.08-.06.17-.07ZM291.57,170.78c.15.07.13.15.13.15,0,0-.15.59-.3,1.09l-.16.13s-.22.06-.2-.22c.1-.34.2-.68.29-1.02l.15-.13s.05,0,.07,0ZM246.25,183.18l.16.12-.05.19c-.26.22-.53.44-.79.66,0,0,0,.06-.17.08,0,0-.14.05-.17-.19l.06-.12c.26-.22.52-.44.79-.66,0,0,.08-.07.18-.08ZM244.59,184.58l.13.06c.08.14.03.2.03.2,0,0-.42.37-.86.73l-.22.04s-.08-.02-.1-.17l.06-.12c.13-.11.26-.22.4-.33.24-.2.5-.4.5-.4.02,0,.05,0,.07,0ZM290.98,172.82l.11.09c.02.07.02.07.01.13-.1.32-.2.64-.3.96l-.11.16c-.23.07-.25-.07-.25-.07-.02-.07-.02-.07-.01-.14.1-.32.2-.64.3-.96l.11-.16s.06-.02.14-.01ZM242.92,185.96c.2.06.1.31.1.31-.36.29-.85.68-.85.68l-.13.04c-.16-.05-.16-.12-.16-.12l.06-.19c.36-.28.85-.68.85-.68,0,0,.05-.03.13-.04ZM241.22,187.3l.12.07c.07.14.02.2.02.2,0,0-.51.51-.98.74l-.19-.06v-.2s.47-.38.89-.69c0,0,.06-.04.15-.05ZM290.33,174.86c.14.08.13.15.13.15,0,0-.15.5-.31.96l-.13.23c-.16.04-.2-.02-.2-.02l-.05-.19c.03-.1.07-.2.1-.3.11-.32.27-.77.27-.77.06-.05.02-.07.2-.05ZM219.74,193.14s.05,0,.07,0c.06.01.12.03.18.04.28.06.57.12.86.17,0,0,.03-.03.15.08v.2s-.23.07-.5.02c-.24-.05-.56-.12-.7-.15l-.02-.15-.03-.2ZM239.48,188.59c.2.07.08.32.08.32-.08.05-.16.11-.23.16-.28.19-.67.46-.67.46-.14.06-.28-.11-.28-.11,0-.16.07-.18.07-.18.29-.2.58-.39.86-.59,0,0,.08-.05.17-.05ZM221.96,193.51c.36.04.72.08,1.09.1,0,0,.21.05.15.26l-.18.1c-.28-.02-.55-.04-.83-.07-.14-.01-.26.02-.4-.1l-.02-.2s.08-.08.18-.09ZM237.68,189.81c.07.03.14.21.14.21l-.08.11c-.22.14-.44.28-.67.41-.13.08-.21.19-.4.18l-.14-.14c0-.16.09-.18.09-.18.05-.03.11-.06.16-.1.32-.19.76-.47.76-.47,0,0,.06-.03.14-.03ZM289.64,176.87c.07.04.11.23.11.23-.11.32-.23.64-.35.97l-.11.14-.2-.03-.05-.19c.15-.42.36-1,.36-1,0,0,.01-.14.23-.11ZM224.13,193.66c.06,0,.12,0,.18,0,.3,0,.6,0,.9,0l.19.1c.04.15-.03.19-.03.19l-.13.06c-.36,0-.72.01-1.08,0l-.19-.11.04-.19s.05-.04.13-.05ZM235.82,190.93l.13.15s-.12.19-.32.3c-.31.16-.75.38-.75.38-.16.04-.2-.03-.2-.03l-.05-.19s.54-.32,1.02-.57c0,0,.09-.04.18-.04ZM226.34,193.6c.35-.03.7-.06,1.05-.1,0,0,.24-.07.22.22l-.15.13c-.36.04-.72.08-1.09.1,0,0-.02.03-.15-.04,0,0-.14-.04-.02-.25,0,0,.1-.06.14-.06ZM233.79,191.86c.16.03.17.11.17.11.05.23-.1.23-.1.23-.26.11-.51.21-.78.3-.12.05-.2.13-.4.09l-.11-.17s.2-.19.51-.3c.26-.1.63-.25.63-.25.02,0,.05,0,.07-.01ZM228.5,193.35c.35-.06.69-.12,1.03-.19,0,0,.32.01.21.26,0,0-.65.19-1.19.28,0,0-.16.03-.23-.14l.08-.18s.05-.02.09-.03ZM231.74,192.6c.16.04.16.12.16.12l-.06.19-.06.03c-.35.11-.7.2-1.06.3l-.15-.02c-.12-.1-.09-.18-.09-.18l.13-.15c.34-.09.68-.18,1.01-.28,0,0,.05-.01.11-.02ZM288.84,178.87c.25.04.21.05.18.24-.13.33-.25.66-.38.99,0,0-.06.22-.3.07,0,0-.07-.04-.05-.19.07-.17.13-.34.2-.51.09-.23.22-.55.22-.55,0,0,.05-.04.13-.06ZM288.07,180.86c.15.02.18.24.18.24-.13.32-.25.63-.38.95,0,0,.03.05-.12.14,0,0-.21.05-.26-.16,0,0,.19-.49.35-.91l.16-.24s.05,0,.07-.01ZM287.27,182.83l.17.11v.14c-.07.17-.14.34-.21.51-.11.26-.24.54-.24.54,0,0-.04.07-.2.04l-.11-.16s.19-.48.41-1c0,0-.03-.12.19-.16ZM286.43,184.8s.22-.01.17.25c-.14.32-.28.64-.42.95,0,0,.03.03-.11.12,0,0-.07.05-.2-.04l-.04-.19c.06-.14.13-.29.19-.43.38-.85.36-.64.41-.65ZM285.55,186.75c.15.03.16.25.16.25-.19.41-.46.97-.46.97-.1.13-.17.1-.17.1l-.17-.12v-.14c.15-.31.3-.62.44-.93,0,0-.04-.1.19-.14ZM284.64,188.68c.08.02.17.19.17.19,0,0-.24.51-.47.97,0,0,0,.07-.14.15l-.2-.05-.03-.2c.16-.31.31-.61.46-.92l.12-.12s.05,0,.07,0ZM283.66,190.58l.16.12s-.24.53-.47.95l-.18.21-.19-.06-.02-.2c.17-.3.34-.6.51-.9l.12-.11s.05,0,.07,0ZM282.6,192.44c.24.08.2.08.14.26-.14.24-.28.48-.41.71l-.17.27-.2.02-.09-.18s.25-.45.43-.77l.17-.27s.06-.03.13-.04ZM281.53,194.29c.16.05.16.13.16.13l-.02.13c-.15.26-.3.52-.45.77l-.09.15c-.17.18-.15.15-.3.02,0,0-.07-.05-.01-.2.17-.28.34-.57.5-.86l.15-.15s.05,0,.07,0ZM280.44,196.14c.24.08.2.08.14.26-.1.17-.2.34-.31.52l-.24.41s-.02.08-.18.09l-.15-.13.02-.13c.17-.28.34-.57.5-.85l.15-.15s.05,0,.07,0ZM279.35,197.98l.16.13-.02.13c-.23.39-.54.92-.54.92,0,0-.14.16-.3.02l-.02-.2c.14-.24.28-.49.43-.73l.11-.2c.05-.06,0-.08.18-.09ZM278.27,199.84c.16.05.16.13.16.13l-.02.13c-.23.39-.53.93-.53.93l-.18.09c-.24-.07-.2-.08-.14-.26.17-.31.35-.61.52-.92,0,0,.09-.1.19-.11ZM277.21,201.7c.16.05.16.12.16.12v.13c-.19.31-.36.62-.52.93,0,0-.02.08-.18.1l-.16-.12v-.14c.17-.3.33-.59.49-.88l.14-.14s.05,0,.07,0ZM276.19,203.59c.16.04.16.12.16.12,0,0-.23.56-.45,1,0,0,0,.09-.15.18,0,0-.07.05-.2-.05,0,0-.07-.04-.03-.19.16-.32.32-.63.48-.95,0,0,.08-.1.18-.11ZM275.23,205.5l.17.11s-.19.53-.38.96l-.17.24-.2-.04c-.09-.13-.04-.19-.04-.19.09-.21.18-.41.28-.62.03-.06.06-.13.09-.19.06-.12.18-.26.18-.26.02,0,.05,0,.07-.01ZM274.37,207.46l.13.05c.09.13.04.19.04.19-.16.41-.38.99-.38.99-.13.21-.12.17-.3.07,0,0-.05-.19.01-.37.08-.22.17-.44.25-.66.04-.11.04-.24.23-.28ZM273.7,209.48c.14.08.13.15.13.15,0,0-.17.58-.3,1.04l-.1.15c-.15.05-.2-.01-.2-.01-.08-.09-.07-.14-.07-.19.09-.33.19-.66.3-.99l.1-.14s.06-.02.14-.01ZM273.11,211.52s.21-.14.05.57c-.07.31-.17.73-.17.73,0,0-.11.19-.3,0,0,0,.07-.66.18-1.1.02-.11.17-.21.17-.21.02,0,.05,0,.07,0ZM272.69,213.61s.2-.1.1.55c-.04.32-.11.76-.11.76l-.18.09-.16-.13c-.03-.35.07-.71.12-1.08,0,0-.07-.19.22-.2ZM272.45,215.72l.16.12s-.03.59-.04,1.12l-.12.17c-.36.06-.25-.17-.25-.17.01-.38-.03-.76.07-1.13,0,0,.08-.09.18-.1Z"/>
              <path class="st22" d="M220,184.76c.17-.01.37.12.57.18.22.07.55.13.55.13.2.05.23.41-.18.33-.4-.08-.92-.27-.98-.3-.15-.07-.14-.3.04-.34ZM222.16,185.19s.64.03,1.12.04c0,0,.35.18.09.33-.19.11-.65,0-1.16-.02,0,0-.44-.3-.05-.36ZM224.34,185.3c.11-.01.12,0,.17.01.6.08,1.32.22,1.08.49-.14.16-.4-.01-.67-.06-.24-.05-.59-.09-.59-.09-.16-.05-.18-.3.02-.35ZM226.42,185.95c.1,0,.01-.05.2.08.28.18.53.4.76.64,0,0,.11.11.06.22-.14.3-.57-.28-1.08-.61,0,0-.22-.28.06-.33ZM227.89,187.51c.16,0,.17.08.24.21.15.28.29.56.4.86,0,0-.05.38-.28.22-.23-.16-.29-.62-.51-1.01,0,0-.06-.24.14-.27ZM228.69,189.49c.25-.01.22.19.26.33.07.28.14.56.2.84,0,0,.02.13-.07.19-.26.18-.37-.53-.53-1.09,0,0-.06-.22.14-.26ZM229.13,191.57c.26-.02.22.21.24.38.04.3.1.75.1.75-.02.18-.32.23-.37.02-.04-.31-.08-.62-.13-.92,0,0-.03-.19.15-.22Z"/>
            </g>
          </g>
        </g>
        <g>
          <path class="st6" d="M186.68,87.68c.17.1-1.69-.87-3.3-1.68-1.17-.59-2.28.27-2.61,1.22-.93,2.73-2.68,4.07-5.92,2.91-1.98-.71,3.55-2.75,2.89-5.68-.7-3.11-12.15-.84-12.49-2.31-.76-3.31,8.89-3.18,10.01-3.58.03-.01-9.58-5.74-9.48-5.91,1.3-2.28,7.3-.39,11.35,3.34.87.8.79-1.49-.82-3.43-1.47-1.77-4.45-3.14-4.46-3.57,2.93-2.48,9.39.46,10.94,6.87,1.78-.32-.89-7.8-.33-7.74,8.84.96,2.96,11.55,3.15,11.86.86,1.48,6.78,5.54,8.63,6.9"/>
          <g>
            <path class="st20" d="M220.63,155.93c10.05-.22,5.07,13.5,1.24,28.56-2.36,9.28-.47,16.34,5.55,17.37,1.43.24.18,2.64-2.16,3.12-27.19,5.51-54.86-.56-75.13-36.34-2.55-4.5-.35-11.17,1.49-13.43,3.08-3.79,10.08-12.23,14.96-14.1,7.7-2.96,20.13-12.28,23.18-18.01,13.6-25.59-5.13-34.6-5.81-35.55-.74-1.02,5.58-6.72,6.32-5.96,0,0,17.1,7.57,14.82,32.9-.99,10.97-8.83,22.22-15.78,27.87-2.21,1.8-5.68,4.34-12,7.85,1.11.07,2.5.3,2.22,1.06-.37,1-1.58,1.65-2.31,2.49,4.35,9.58,27.41,15.35,35.71,13.21,3.29-1,5.33-2.19,6.58-3.41,2.07-2.32-1.02-7.57,1.14-7.62Z"/>
            <path class="st19" d="M202.59,95.47c2,4.78,3.22,11.01,2.49,19.02-.99,10.97-8.83,22.22-15.78,27.87-2.12,1.73-8.76,6.34-11.71,7.58-1.1-.69,11.6-10.85,13.08-12.52,10.58-11.97,15.48-26.56,11.91-41.95ZM157.42,179.86c.33-1.22-1.14-2.95-.66-2.49,31.12,29.78,42.12,27.08,56.11,24.92,5.68-.88,6.58-17.76,11.61-27.73-.8,3.15-1.73,6.51-2.61,9.95-2.36,9.28-.47,16.34,5.55,17.37,1.43.24.18,2.64-2.16,3.12-24.06,4.88-48.49.69-67.84-25.13Z"/>
            <path class="st7" d="M149.29,166.52c1.87-2.51,3.95-4.94,6.21-7.25l7,7.69c-1.88,4.9-3.47,9.31-4.81,13.27-2.62-3.46-5.14-7.3-7.56-11.58-.38-.67-.65-1.38-.84-2.13ZM185.47,202.45c1.76-1.89,3.52-4.03,5.27-6.45.07-.1.92.29,2.05.89.37-.52.8-1.15,1.21-1.73.73-1.06-.04-2.22-.99-2.63-2.72-1.18-6.1-4.12-2.55-9.86,1.08-1.75,2.63,7.57,5.72,7.24,3.28-.34,2.14-11.56,3.69-11.73,3.49-.38,2.35,8.86,2.65,9.97,0,.03,6.92-8.58,7.08-8.47,2.21,1.49-.37,7.04-4.63,10.54-.92.75,1.46.92,3.62-.42,1.98-1.23,3.71-3.94,4.14-3.91,2.25,3.07-1.46,8.96-8.23,9.77.14,1.74,4.91,1.74,4.72,2.25-1.77,4.87-8.92-.13-9.27.01-.52.21-1.37.91-2.34,1.8.78.5,1.28.88,1.24.96-.83,1.63-1.85,3.26-3.05,4.85-3.5-.7-6.95-1.71-10.34-3.08Z"/>
          </g>
          <g>
            <path class="st6" d="M187.04,195.97c-.13.15,1.08-1.53,2.08-2.98.73-1.06-.04-2.22-.99-2.63-2.72-1.18-6.1-4.11-2.55-9.86,1.08-1.75,2.63,7.57,5.72,7.24,3.28-.34,2.14-11.57,3.69-11.73,3.49-.38,2.35,8.86,2.65,9.97,0,.03,6.92-8.58,7.08-8.47,2.21,1.49-.37,7.04-4.63,10.54-.92.75,1.46.92,3.62-.42,1.98-1.23,3.71-3.94,4.14-3.91,2.25,3.07-1.46,8.96-8.23,9.77.14,1.74,4.91,1.74,4.72,2.25-1.77,4.87-8.92-.13-9.27.01-1.62.67-6.43,5.92-8.02,7.56"/>
            <g>
              <path class="st20" d="M150.63,211.23c6.13,3.71,21.3,1.92,35.24-17.4.23-.32,8.29,4.36,8.12,4.69-8.96,17.72-41.63,34.38-54.58,18.54-13.03-15.94-2.65-44.83,15.31-63.22l11.83,10.74c-16.66,17.07-20.66,36.64-18.78,43.04,1.28-.18,2.65.04,3.07,1.11.3.76.09,1.64-.22,2.51Z"/>
              <path class="st19" d="M138.54,215.94c.71.01,1.51.02,2.38.03,6.11.05,17.09.06,22.8,1.83,1.16.36,1.58,1.77,1.69,3.6-6.73,2.25-13.47,2.79-18.97.71l-3.59-1.87c-1.26-.86-2.41-1.92-3.44-3.18-.3-.37-.59-.74-.87-1.12Z"/>
            </g>
          </g>
        </g>
        <g>
          <path class="st13" d="M118.41,97.67l-9.75,9.19-4.5-9.89c-5.22,10.58,7.77,37.43,10.79,40.67,10.05,10.78,33.18,20.44,25.22,1.82-4.02-9.41-.8-21.85-5.02-30.73-3.07-6.47-8.35-14.04-16.74-11.06Z"/>
          <g>
            <path class="st6" d="M147.04,147.15l-.09.07c-.01-.15.02-.16.09-.07ZM147.04,147.15l5.58-4.64c-.29,2.41,3.94,4.76,6.77,6.99,2.78-2.99,6.55-6.67,7.6-5.23,4.72,6.47-5.96,16.71-12.78,16.61-3.17-.05-3.71-2.93.22-6.52-1.54-.78-2.95-1.92-3.99-2.94-.88-.86-1.76-1.75-2.52-2.72-.27-.34-.7-1.3-.89-1.54Z"/>
            <path class="st16" d="M168.15,147.74c.11,6.12-8.26,13.22-13.94,13.14-.58,0-1.08-.11-1.47-.3-1.6-.76-1.54-2.9.96-5.5-.5,2.36-.64,5.44,3.16,4.06,8.45-3.07,10.71-10.87,11.29-11.39Z"/>
            <path class="st12" d="M146.95,147.23c-.05-.58.61,1.01.97,1.47.75.97,1.64,1.86,2.52,2.72,2.5,2.46,9.26-1.68,6.02-4.07-2.13-1.57-4.04-3.19-3.84-4.83"/>
          </g>
          <g>
            <path class="st12" d="M144.95,116.3c1.33-2.35,1.58-14.94,8.99-14.12,3.48.38,5.78,13.12,3.68,18.34-.98,2.44-4.71,4.86-8.21,4.77-4.17-.11-5.79-6.63-4.46-8.99Z"/>
            <path class="st1" d="M153.46,86.87c2.28-10.15-8.58,2.62-22.11,5.96-12.98,3.2-17.76,19-14.41,28.47,8.03,22.72,12.59,32.4,29.35,27.83,21.02-5.73,25.71-19.78,13.65-31.6-3.36-3.3-10.92-10.92-6.48-30.65Z"/>
            <path class="st16" d="M152.46,83.03c-2.98,1.75-6.73,4-10.88,5.64,5.02-2.7,8.95-5.52,10.88-5.64ZM130.93,92.94c-8.24,5.83-10.97,17.87-8.22,25.64,8.03,22.72,12.59,32.4,29.35,27.83,1.66-.45,3.21-.95,4.66-1.5-2.85,1.67-6.33,3.1-10.42,4.22-16.76,4.57-21.32-5.12-29.35-27.83-3.31-9.36,1.33-24.91,13.98-28.35Z"/>
            <path class="st16" d="M124,130.2c-2.24-1.58-11.64-9.94-16.45-4.44-1.73,1.98,2.06,7.82,6.27,11.67,1.97,1.8,7.9,5.14,10.13,2.74,2.79-2.99,2.29-8.38.05-9.96Z"/>
            <path class="st21" d="M114.58,129.2c.2,0,.4.02.6.05.3.04.6.1.9.17.32.08.63.18.93.3.7.27,1.35.63,1.96,1.06l.03.02c1.85,1.37,3.43,3.27,3.5,5.55,0,.02,0,.04,0,.04l-.1.27s-.22.13-.24.13l-.26-.08-.16-.24s-.02-.07-.02-.1c-.56-2.15-2.85-3.67-4.32-4.51-.21-.12.27.11-.86-.47-.04-.02-.08-.04-.11-.06-.13-.07-.25-.13-.38-.19-.69-.32-1.38-.66-2.2-.69-.38-.02-.79.14-.88.52l-.16.25-.25.09-.24-.12-.11-.26c-.03-.58.29-1.17.9-1.45.43-.2.91-.26,1.38-.27t.08,0Z"/>
          </g>
          <g>
            <g>
              <path class="st7" d="M136.87,134.45c.41,8.36,2.95,11.87,8.61,11.95,4.25.06,10.36-8.51,7.26-15.29-4.45,1.89-8.21,2.99-15.87,3.33Z"/>
              <path class="st17" d="M152.63,139.73c-1.54,3.79-4.67,6.71-7.15,6.67-5.65-.08-8.2-3.59-8.61-11.95,2.42-.11,4.45-.29,6.23-.55,3.51,1.29,6.76,3.28,9.53,5.83Z"/>
              <path class="st4" d="M138.41,134.37c6.64-.42,10.19-1.49,14.33-3.25.07.15.13.3.19.45-1.33,1.58-3.2,3.23-5.4,3.77-2.97.73-6.62.12-9.12-.97Z"/>
            </g>
            <g>
              <g>
                <path class="st2" d="M150.7,105.39c-.17-1.82-2.97-2.01-4.17,1.03-.55,1.38.6,6.16,2.27,8.57,1.37,1.97,4.88.69,4.17-1.03-.44-1.07-2.21-7.93-2.27-8.57Z"/>
                <path class="st4" d="M152.16,110.8c.7-.17,1.42.24,1.6.92s-.25,1.37-.95,1.55c-.7.17-1.42-.24-1.6-.92-.18-.68.25-1.37.95-1.55Z"/>
              </g>
              <g>
                <path class="st2" d="M132.05,110.53c-.2-2.14-3.5-2.37-4.91,1.21-.64,1.63.7,7.25,2.68,10.08,1.62,2.32,5.75.81,4.91-1.21-.52-1.26-2.6-9.33-2.68-10.09Z"/>
                <path class="st4" d="M133.84,118.14c.7-.17,1.42.24,1.6.92.18.68-.25,1.37-.95,1.55-.7.17-1.42-.24-1.6-.92-.18-.68.24-1.37.95-1.55Z"/>
              </g>
            </g>
          </g>
          <g>
            <path class="st18" d="M120.85,85.53c.87-1.37,1.96-2.65,3.05-3.79,4.2-4.4,9.66-7.59,12.24-13.47.59-1.34,1.13-3.01.07-3.9l-.03-.29s.26-.06.31-.02c1,.75.91,2.29.65,3.34-.45,1.84-1.3,3.5-2.36,5.04,3.12-2.4,6.58-4.38,10.45-5.74,3.11-1.09,10.21-2.98,11.7-1.23,1.51,1.78-1.79,5.4-4.7,8.05,3.12-.63,6.4-.71,9.26-1.96,1.2-.52,2.45-1.08,3.24-2.12.22-.29.38-.64.3-1.01l.15-.25c.09.05.17.1.26.15.27.91-.52,1.83-1.15,2.39-.14.12-.28.24-.43.35-1.23.95-2.62,1.6-4.11,2.11,3.65-.34,7.3.21,8.5,3.08,1.67,3.98-6.41,5.83-10.56,6.79,2.95.43,5.78,1.84,7.14,4.44l-.07.28-.29-.07c-1.37-1.84-2.99-2.45-4.8-2.84-.67-.15-1.35-.24-2.04-.26,2.5,1.03,6.14,2.93,5.8,5.44-.89,6.75-18.37,5.03-23.2,5.29.99.8,2.24,1.62,3.94,2.07.4.11.81.19,1.22.26,1.05.17,2.11.22,3.17.17l.29.17s-.12.15-.18.23c-2.37.54-4.88.52-7.22-.22,1.09,1.3,2.01,2.87,1.35,4.03-2.02,3.5-12.8,2.58-17.1,2.4.65.4,1.38.73,2.17.94,2.53.67,5.22.44,7.84.18l.3.16-.18.24c-3.33.78-6.78,1.54-10.2.36-.86-.3-1.67-.72-2.41-1.25-2.56,3.4-1.03,19.32.9,24.79.4,1.13.56,1.8-1.04,1.54-.62-.1-6.4-4.38-11.4-9.33-.06,0-.14,0-.25-.01l-.39-.19c-5.04-3.81-8.2-9.75-10.07-15.24-1.51-4.4-2.44-9.05-2.3-13.66l.21-.21c.07.07.14.14.21.21.18,5.04,1.52,9.97,3.58,14.46-1.15-4.55-1.35-9.4-.93-13.92.18-1.87.17-5.65,2-6.89,1.51-1.01,2.18,2.72,2.44,3.52.78,2.4,1.62,4.75,2.36,7.15.34-5.81,1.76-11.69,4.6-16.95l.28-.1c.03.09.07.18.1.27-1.81,4.3-2.48,8.89-2.91,13.55,1.12-5.49,2.94-13.2,5.36-15.99.95-1.09,3.06-3.82,4.86-3.38,1.24.3,1.51,2.21,1.42,3.2-.15,1.63-.82,4.88-1.42,7.66Z"/>
            <path class="st8" d="M109.09,120.18c-1.89-2.74-3.09-6-3.83-9.24-.58-2.55-.88-5.17-.95-7.79v-.12s.19-.22.19-.22c.07.06.15.13.22.19.31,2.83.85,5.64,1.77,8.35-.34-1.6-.6-3.22-.77-4.85-.34-3.19-2.21-10.06.77-11.26.95-.38,3.05,9.28,3.58,10.67.04-2.11,3.13-14.05,4.27-17.14l.03-.08.26-.14c.05.09.09.17.14.26-.64,2.41-1.02,4.87-1.22,7.36.72-3.86,1.82-7.65,3.47-11.19.72-1.55,1.42-3.25,2.87-4.2.51-.34,1.17-.84,1.21.68.06,1.99-3.4,11.88-3.5,13.06.14-.16,3.36-1.36,3.5-1.51,1.42-1.58,6.94-6.74,10.21-12.67l.04-.07c.09-.03.28-.1.28-.1l.1.27c-.22.51-2.91,6.72-3.36,7.64h0s.05.41.05.41l-.05.19c1.2-1.15,2.45-2.25,3.75-3.28,1.65-1.31,3.51-2.7,5.41-2.72t.08,0c.28,0,.55.06.81.15,1.29-1.64,3.42-5.55,3.47-5.46-.5,2.1-8.8,15.26-11.14,19.15.14-.1.27-.19.4-.29,3.18-2.41,5.83-5.42,8.79-8.12h.3c0,.09,0,.18,0,.28-3.22,3.58-11.61,12.22-11.71,12.58,0,0,.52.11.89.15,2.81.32,5.71.34,8.37,1.16.72.22,1.28.62,1.84,1.25,0,0,.14.17.22.39-4.08,1.21-10.96.66-14.19.52.65.4,1.38.73,2.17.94,2.53.67,5.22.44,7.84.18l.3.16-.18.24c-3.33.78-6.78,1.54-10.2.36-.86-.3-1.67-.72-2.41-1.25-2.56,3.4-1.03,19.32.9,24.79.4,1.13.56,1.8-1.04,1.54-.62-.1-6.4-4.38-11.4-9.33-.06,0-.14,0-.25-.01l-.39-.19c-.69-.52-1.34-1.08-1.97-1.68Z"/>
          </g>
        </g>
      </g>
      <g>
        <g>
          <path class="st5" d="M253.8,34.96c-1.61-4.41-46.61-24.61-51.35-23.72-1.05.2-12.13,7.62-12.29,9.01-6.38,11.4-9.23,29.81-8.2,32.24,1.03,2.42,23.98,26.94,38.82,32.76,5.05,1.98,13.83-6.86,14.34-8.04,2.91-2.1,19.9-38.93,18.68-42.25Z"/>
          <path class="st10" d="M253.8,34.96c-.64-1.75-5.89,8.6-19.59,11.81-20.84,4.9-28.28,32.65-13.44,38.48,5.05,1.98,13.83-6.86,14.34-8.04,2.91-2.1,19.9-38.93,18.68-42.25Z"/>
          <path class="st9" d="M241.51,43.98c-1.61-4.41-46.61-24.61-51.35-23.72-3.08.58-22.06,37.56-20.49,41.25,1.38,3.25,46.47,24.58,51.35,23.72,3.58-.63,21.71-37.92,20.49-41.25Z"/>
          <path class="st3" d="M224.38,18.91c4.71,2.06,9.59,4.32,13.98,6.5-5.35,1.75-11.99,4.27-16.89,6.37-2.19.94-6.33,11.03-7.48,10.51-2.74-1.23-10.67-5.79-10.67-5.79-.15.1,2.73-10.11,5.2-11.32,3.83-1.89,7.68-3.2,11.63-4.8,1.76-.71,3.11-1.19,4.25-1.46Z"/>
        </g>
        <g>
          <path class="st5" d="M255.36,76c2.03-2.6,27.02-5.65,29.97-4.11.66.34,6.4,7.51,6.2,8.46,1.76,8.85-.34,21.65-1.56,23.05-1.21,1.4-12.5,11.77-23.62,12.64-3.78.3-7.69-7.34-7.77-8.23-1.48-1.98-4.76-29.85-3.23-31.81Z"/>
          <path class="st10" d="M255.36,76c.8-1.03,2.04,6.89,10.44,11.79,12.77,7.45,11.68,27.37.57,28.25-3.78.3-7.69-7.34-7.77-8.23-1.48-1.98-4.76-29.85-3.23-31.81Z"/>
          <path class="st9" d="M261.57,84.47c2.03-2.6,27.02-5.65,29.97-4.11,1.92,1,6.49,29.38,4.65,31.51-1.62,1.88-26.92,5.67-29.97,4.11-2.24-1.14-6.18-29.55-4.65-31.51Z"/>
          <path class="st3" d="M290.02,77.62c-10.58-2.14-29.78,2.49-30.44,5.06-.36,1.39-.3,5.77.87,9.33.06.18-3.16-.54-3.75-2.43-.46-2.73.02-10.32.09-11.35.18-2.46,22.15-5.38,29.95-4.84.99,1.17,2.28,2.82,3.28,4.23Z"/>
          <path class="st0" d="M256.79,78.23c-.03-1.12,2.86,3.38,2.79,4.45-.36,1.39-.3,5.77.87,9.33.06.18-3.16-.54-3.75-2.43-.46-2.73.02-10.32.09-11.35Z"/>
        </g>
        <g>
          <path class="st5" d="M232.51,89.24c-4.51-1.72-49.83,17.8-52.25,21.83-.54.9-1.99,13.83-1.01,14.86,4.74,12.12,17.29,26.27,19.87,27.11,2.58.84,36.82.2,51.11-6.78,4.86-2.37,3.7-14.56,3.11-15.71.26-3.5-17.43-40.01-20.83-41.31Z"/>
          <path class="st10" d="M232.51,89.24c-1.79-.68,2.87,9.92-3.59,22.01-9.83,18.38,7.02,41.99,21.31,35.01,4.86-2.37,3.7-14.56,3.11-15.71.26-3.5-17.43-40.01-20.83-41.31Z"/>
          <path class="st9" d="M231.51,104.11c-4.51-1.72-49.83,17.8-52.25,21.83-1.57,2.62,14.94,40.69,18.86,41.96,3.45,1.12,49.72-17.71,52.25-21.83,1.85-3.02-15.46-40.67-18.86-41.96Z"/>
          <path class="st3" d="M200.66,100.14c4.7-2.08,9.67-4.15,14.25-5.92-2.14,5.04-4.52,11.53-6.09,16.47-.7,2.2,4.49,11.84,3.32,12.34-2.76,1.19-11.53,3.97-11.53,3.97-.03.17-6.12-8.62-5.46-11.21,1.03-4.02,2.53-7.69,3.86-11.61.6-1.75,1.11-3.04,1.64-4.05Z"/>
          <path class="st3" d="M217.78,161.69c-2.91-3.71-7.38-11.27-6.66-11.7.97-.58,10.3-4.1,11.52-3.91.6.1,2.5,6.02,7.19,10.65-3.97,1.7-8.11,3.4-12.05,4.95Z"/>
        </g>
      </g>
    </g>
  </g>
  <path class="st23" d="M143.64,124.94c-.46,1.8,5.92.83,6.65-2.26"/>
</svg>